<?xml version="1.0" encoding="utf-8"?>
<!-- Generator: Adobe Illustrator 21.0.0, SVG Export Plug-In . SVG Version: 6.00 Build 0)  -->
<svg version="1.1" xmlns="http://www.w3.org/2000/svg" xmlns:xlink="http://www.w3.org/1999/xlink" x="0px" y="0px"
	 viewBox="0 0 500 376" style="enable-background:new 0 0 500 376;" xml:space="preserve">
<style type="text/css">
	.st0{fill:#FFFFFF;}
	.st1{display:none;}
	.st2{display:inline;}
	.st3{fill:#4F8C68;}
</style>
<g id="Camada_1">
	<g>
		<path class="st0" d="M423.2,284.7c1.5,7,3.1,13.7,4.2,20.5c0.7,4.2,0.7,8.5,0.7,12.8c0,1.5-1,3-1.5,4.5c-0.2,0-0.5,0-0.7,0
			c-0.4-1.5-0.9-3-1.3-4.5c-12.1-43.6-27.3-86.1-47.1-126.9c-12.7-26.1-27.2-51.1-45.7-73.5c-12-14.4-25.4-27.3-41.8-36.7
			c-12.7-7.3-26.3-11.6-41.1-11.9c-13.9-0.3-26.8,3.3-38.9,9.9c-17.2,9.4-31,22.8-43.3,37.8c-16.2,19.8-29.2,41.7-40.7,64.5
			c-22.3,44.5-39.1,91-52.3,138.9c-0.2,0.6-0.4,1.2-0.5,1.8c-0.2,0.1-0.5,0.1-0.7,0.2c-0.5-1.8-1.2-3.6-1.3-5.5
			c-0.4-7,1.3-13.8,2.9-20.6c0.7-3.1,1.5-6.2,2.4-9.9c-1.1,0.9-1.7,1.3-2.2,1.7c-10.3,8.5-25.3,5-30.6-7.3c-0.7-1.5-1.5-2.2-3.1-2.7
			c-11-3.1-18.9-10.3-25.1-19.5C6,244.3,2.4,228.6,3,212c0.7-23.1,8.8-43.3,24.6-60.2c10.3-11,22.6-18.9,37.6-21.8
			c4.1-0.8,8.4-0.8,12.6-1.2c0.7-0.1,1.8-0.4,2-0.9c1.8-4.7,5.7-6.9,10.1-7.4c4-0.5,6.2-2.4,8.4-5.5c17.4-24.9,37.1-47.8,59.9-68
			c16.7-14.7,34.6-27.4,55.4-35.8c26.2-10.6,52-9.2,77.5,2.6c18.8,8.7,35.7,20.2,51.2,33.9c10.8,9.6,21.1,19.9,31.4,30.1
			c12.2,12.2,22.7,25.9,33.1,39.6c1.1,1.4,2.1,2.3,4.1,2.5c5.3,0.6,10.2,2.1,12.7,7.5c0.2,0.4,0.9,0.8,1.4,0.8
			c25.3,1.3,43.5,14.6,57.2,34.7c12,17.7,16.9,37.5,15.1,58.7c-1.3,16-6.4,30.6-17.3,42.8c-5.7,6.3-12.5,11.1-21,13.2
			c-0.6,0.1-1.2,0.7-1.4,1.3c-5.4,15-24.7,17-33.5,6C424,284.8,423.8,284.8,423.2,284.7z M375.3,152.5c0-0.9,0-1.4,0-1.8
			c-0.4-4.7,0.6-9,3.2-13c0.6-0.9,0.8-2,1-3.1c1.2-7.9,2-15.9,0.9-23.9c-0.4-3.1-0.1-6.5-2.5-9.1c-13.2-14.4-27-28-42.2-40.2
			c-15.5-12.4-31.9-23.3-50.4-30.7c-17.8-7.1-35.9-9.5-54.8-5.3c-17.4,3.9-33,11.8-47.6,21.7c-21.7,14.6-40.2,32.7-57.4,52.3
			c-0.7,0.8-1.2,2-1.5,3.1c-2.3,9-2.3,18.2-1.2,27.3c0.7,5.6,1.7,11.2,2.4,16.8c0.2,1.3,0.1,2.7,0.2,4c1-1,1.6-2,2.2-3.1
			c9-17.7,19.1-34.8,31-50.7c11.5-15.3,24.3-29.4,40.2-40.3c23.6-16.3,49.1-20.9,76.6-11.7c17.5,5.9,32.1,16.4,45.3,29.2
			c16.3,15.9,29.4,34.2,40.9,53.7C366.2,135.8,370.5,144,375.3,152.5z M101.6,129.1c4.5,0.6,8.7,1.1,12.9,1.6
			c-0.7-4.8-1.5-9.9-2.3-15.6C108.5,120.1,105,124.6,101.6,129.1z M390.5,116.1c-0.7,5-1.3,9.3-1.9,13.4c4.3,0,8.3,0,12.7,0
			C397.9,125.2,394.4,120.9,390.5,116.1z"/>
		<path class="st0" d="M60.5,352.6c1.9,0.2,3.6,0.6,5.3,0.6c40.1,0.1,80.1,0.1,120.2,0.2c5.6,0,8.7-3,10.3-7.6
			c1.7-5,3.1-10.2,4.3-15.3c4.9-20.5,10.9-40.7,19.9-59.9c3.8-8.1,8.3-15.9,15.1-21.9c9.1-8.2,19.8-8.1,29,0.1
			c6,5.4,10,12.2,13.6,19.3c6.4,13,11,26.8,15,40.7c3.2,10.8,5.9,21.8,9,32.6c0.9,3.1,2.3,6.1,3.8,9.1c1,2,2.9,2.9,5.3,2.9
			c41,0,82,0,123,0c1.5,0,3-0.5,4.9-0.8c0.4,1.9,1.1,4.1,1.3,6.4c0.2,2.3,0.1,4.7,0,7.1c-0.1,3.2-2.1,5.2-5.3,5.3
			c-0.8,0-1.6,0-2.4,0c-40.1,0-80.3,0-120.4,0c-3.5,0-5.9-1.4-6.9-4.5c-1.9-5.8-3.5-11.7-5-17.6c-5.5-20.6-11.1-41.1-20.2-60.5
			c-3.2-6.8-6.8-13.3-12.1-18.6c-2.8-2.8-6-5.5-9.4-7.2c-8.4-4.1-16.2-2.2-23.1,3.7c-7.7,6.6-12.6,15.3-16.8,24.4
			c-8.8,18.8-14,38.7-19.1,58.6c-1.3,5.1-2.6,10.2-4.2,15.2c-1.8,5.5-3.4,6.5-9.1,6.5c-40.1,0-80.3,0-120.4,0
			c-5.6,0-7.1-1.5-7.1-7.1C58.9,358.2,59.4,355,60.5,352.6z"/>
	</g>
</g>
<g id="Camada_2" class="st1">
	<g class="st2">
		<g>
			<path class="st3" d="M4.3,348.5c-1.2-23.3-0.9-57.4,7.4-97.2c5.3-25.7,16.4-76.9,54.1-130.4c14.5-20.6,42.2-59,91.1-84.9
				c12.5-6.6,38-19.8,73.8-23.4c5.7-0.6,19.5-1.7,36.9,0c47.8,4.6,81.6,26,94.8,34.5c31.3,20.3,49.5,42.9,60.3,56.6
				c32.8,41.5,46.2,82.6,55.4,110.8c7.8,23.9,11.4,42.3,12.3,46.8c6.9,35.5,7.2,65.8,6.2,87.4"/>
			<path class="st0" d="M484.2,328.8c-0.2-7.6-0.6-20-2.5-34.5c-0.6-4.4-2.6-19.3-8.6-40.6c-4.5-16.1-12.6-44.8-30.8-77.5
				c-11.2-20.2-29.8-52.9-66.5-82.5c-13.1-10.5-38.5-30.6-76.3-40.6c-20.9-5.5-38.3-6.1-44.3-6.2c-12.5-0.2-27.7,0.9-44.3,4.9
				c-13.3,3.2-22.9,7.1-29.5,9.8c-19.2,7.9-33.1,16.7-39.4,20.9c-4.8,3.2-24.1,16.4-45.5,40.6c-31.6,35.8-46.1,71.1-54.1,91.1
				c-3.8,9.4-13.4,34.6-19.7,68.9c-4.7,25.3-6,47.6-6.2,65.2c12.4,0,31.7,0,55.4,0c129.7,0.1,194.5,0.1,221.5,1.2
				c28.8,1.2,190.7,1.6,190.7,1.2C484.4,349.1,484.5,339,484.2,328.8z"/>
			<rect x="16.6" y="348.5" class="st3" width="467.6" height="11.1"/>
		</g>
		<circle class="st3" cx="152" cy="293.1" r="18.5"/>
		<circle class="st3" cx="345.2" cy="291.9" r="18.5"/>
		<g>
			<ellipse class="st3" cx="249.8" cy="169.5" rx="57.2" ry="96.6"/>
			<rect x="204.9" y="80.2" class="st0" width="7.4" height="194.4"/>
			<rect x="225.8" y="67.9" class="st0" width="7.4" height="203.1"/>
			<rect x="245.5" y="61.8" class="st0" width="7.4" height="208"/>
			<rect x="266.4" y="66.7" class="st0" width="7.4" height="208"/>
			<rect x="286.1" y="67.9" class="st0" width="7.4" height="208"/>
		</g>
	</g>
</g>
<g id="Camada_3" class="st1">
	<g class="st2">
		<path class="st0" d="M53.5,319c-3.9-3-4.5-6.7-3.7-10.6c1.9-9.8,4-19.6,6.3-29.4c10.4-42.5,24-83.8,41.9-123.7
			c13.5-30,29.1-58.9,48.9-85.2C162,50,179,31.8,200.6,18.4c13.2-8.2,27.5-13.7,43.1-15.1c15.7-1.3,30.7,1.9,45,8.5
			c18.5,8.7,33.8,21.6,47.6,36.4c21.4,23,38,49.2,52.5,76.9c28.7,55.1,47.9,113.5,61.3,173.9c0.9,4.1,1.5,8.3,1.8,12.5
			c0.2,2.8-0.6,5.6-3.9,7.3c-0.8-3.2-1.6-6.1-2.3-9.1c-12.3-49.3-28.7-97.1-51.3-142.7c-13.7-27.6-29.4-53.9-49.4-77.6
			c-15.1-17.9-32-33.7-53-44.3c-14-7.1-28.9-11-44.7-10.3c-20.1,1-37.8,8.6-54,20.1C170,71.5,152.1,93,136.4,116.4
			c-27,40.3-46.6,84.2-61.8,130.1c-7.5,22.7-13.4,45.9-20.1,68.9C54.2,316.4,53.9,317.5,53.5,319z"/>
		<path class="st0" d="M462.3,351.8c0.5,4.4,1.4,8.8,1.5,13.3c0.2,5.7-2.8,8.5-8.5,8.5c-11.9,0-23.7,0-35.6,0
			c-32.1,0-64.1-0.1-96.2,0.1c-6.2,0-10.4-2.5-12.2-8.2c-2.2-7.3-3.9-14.7-5.7-22.1c-5.1-20.6-11.2-40.8-20.4-59.9
			c-4.5-9.4-9.7-18.5-17.2-26c-11.3-11.2-22.9-11.4-34.3-0.3c-7.8,7.5-13,16.8-17.6,26.4c-11.2,23.4-17.9,48.2-23.5,73.4
			c-0.7,3.3-1.7,6.6-3,9.7c-1.9,4.6-5.5,6.9-10.6,6.9c-44.4,0-88.8,0-133.2,0c-6.9,0-9.8-3.8-8.8-12.1c0.4-3.3,1.2-6.5,1.8-9.1
			c4.6,0.2,8.8,0.5,13.1,0.5c41.5,0,83-0.1,124.5,0.1c9.1,0.1,13-2.3,15.7-12.2c3-10.9,5.3-22,8.3-32.9c5.7-20.6,12.5-40.9,24.2-59
			c3.6-5.5,7.9-10.7,12.8-15c8.6-7.5,18.6-7.1,27.4,0.2c7.5,6.2,12.6,14.2,17.1,22.7c10.4,19.5,16.9,40.5,22.4,61.8
			c1.9,7.6,3.5,15.2,5.5,22.8c0.7,2.6,2,5.1,3.4,7.3c1.9,2.9,4.8,4.4,8.4,4.4c44.8,0,89.6,0,134.5-0.1
			C457.8,352.8,459.6,352.2,462.3,351.8z"/>
	</g>
</g>
</svg>
