<?xml version="1.0" encoding="utf-8"?>
<!-- Generator: Adobe Illustrator 21.0.0, SVG Export Plug-In . SVG Version: 6.00 Build 0)  -->
<svg version="1.1" xmlns="http://www.w3.org/2000/svg" xmlns:xlink="http://www.w3.org/1999/xlink" x="0px" y="0px"
	 viewBox="0 0 500 438" style="enable-background:new 0 0 500 438;" xml:space="preserve">
<style type="text/css">
	.st0{display:none;}
	.st1{display:inline;}
	.st2{fill:#3C3C3B;}
	.st3{fill:#CA511C;}
	.st4{fill:#FDFDFD;}
	.st5{fill:url(#SVGID_1_);}
	.st6{fill:url(#SVGID_2_);}
	.st7{fill:#FFFFFF;}
	.st8{fill:url(#SVGID_3_);}
	.st9{fill:#D8D9DD;}
	.st10{fill:url(#SVGID_4_);}
	.st11{fill:url(#SVGID_5_);}
	.st12{fill:url(#SVGID_6_);}
	.st13{fill:url(#SVGID_7_);}
	.st14{fill:url(#SVGID_8_);}
	.st15{fill:url(#SVGID_9_);}
	.st16{fill:url(#SVGID_10_);}
</style>
<g id="Camada_1" class="st0">
	<g class="st1">
		<g>
			<path class="st2" d="M14.1,423.8c-5.1,0-8.7-4-8.7-9.9c0-6.2,3.8-10.3,8.9-10.3c5.3,0,8.7,4.1,8.7,9.9
				C23,420.2,19,423.8,14.1,423.8L14.1,423.8z M14.2,421.7c3.9,0,6.2-3.7,6.2-8.1c0-3.9-2-7.9-6.1-7.9S8,409.6,8,413.8
				C8,417.9,10.3,421.7,14.2,421.7L14.2,421.7z"/>
			<path class="st2" d="M26.2,413.8c0-1.7,0-3.1-0.1-4.4h2.2l0.1,2.8h0.1c0.6-1.9,2.2-3.1,3.9-3.1c0.3,0,0.5,0,0.7,0.1v2.4
				c-0.3,0-0.5-0.1-0.9-0.1c-1.8,0-3,1.4-3.4,3.2c-0.1,0.4-0.1,0.8-0.1,1.2v7.5h-2.5V413.8z"/>
			<path class="st2" d="M47.1,421.4c0,3.2-0.7,5.2-2,6.4c-1.4,1.2-3.3,1.7-5.1,1.7c-1.7,0-3.5-0.4-4.6-1.2l0.6-2
				c0.9,0.6,2.3,1.1,4.1,1.1c2.6,0,4.5-1.4,4.5-4.9V421h-0.1c-0.7,1.3-2.3,2.3-4.4,2.3c-3.4,0-5.9-3-5.9-6.9c0-4.8,3.1-7.4,6.3-7.4
				c2.4,0,3.7,1.2,4.3,2.4h0.1l0.1-2.1h2.2c-0.1,1-0.1,2.1-0.1,3.8V421.4z M44.6,414.9c0-0.4,0-0.8-0.1-1.1
				c-0.5-1.5-1.7-2.7-3.5-2.7c-2.4,0-4.1,2.1-4.1,5.3c0,2.7,1.4,5,4.1,5c1.6,0,3-1,3.5-2.6c0.1-0.4,0.2-0.9,0.2-1.4V414.9z"/>
			<path class="st2" d="M61,420.1c0,1.2,0.1,2.4,0.2,3.4H59l-0.2-1.8h-0.1c-0.7,1.1-2.3,2.1-4.2,2.1c-2.8,0-4.2-2-4.2-4
				c0-3.4,3-5.2,8.3-5.2v-0.3c0-1.2-0.3-3.3-3.1-3.2c-1.3,0-2.7,0.4-3.6,1l-0.6-1.7c1.1-0.7,2.8-1.2,4.6-1.2c4.3,0,5.3,2.9,5.3,5.7
				V420.1z M58.6,416.3c-2.7-0.1-5.9,0.4-5.9,3.2c0,1.7,1.1,2.4,2.3,2.4c1.8,0,3-1.2,3.4-2.3c0.1-0.3,0.1-0.6,0.1-0.8V416.3z"/>
			<path class="st2" d="M65.1,413.2c0-1.5,0-2.6-0.1-3.8h2.2l0.1,2.3h0.1c0.7-1.3,2.3-2.6,4.6-2.6c1.9,0,4.9,1.2,4.9,6v8.4h-2.5
				v-8.1c0-2.3-0.8-4.2-3.2-4.2c-1.6,0-2.9,1.2-3.4,2.6c-0.1,0.3-0.2,0.8-0.2,1.2v8.5h-2.5V413.2z"/>
			<path class="st2" d="M82.1,407c-0.9,0-1.5-0.7-1.5-1.6c0-0.9,0.6-1.6,1.6-1.6c0.9,0,1.5,0.7,1.5,1.6
				C83.7,406.3,83.1,407,82.1,407L82.1,407z M80.9,423.5v-14h2.5v14H80.9z"/>
			<path class="st2" d="M86,422l6.3-8.3c0.6-0.8,1.2-1.5,1.8-2.2v-0.1h-7.5v-2h10.6v1.6l-6.2,8.2c-0.6,0.8-1.1,1.5-1.8,2.2v0.1h8.1
				v2H86V422z"/>
			<path class="st2" d="M109.6,420.1c0,1.2,0.1,2.4,0.2,3.4h-2.3l-0.2-1.8h-0.1c-0.7,1.1-2.3,2.1-4.2,2.1c-2.8,0-4.2-2-4.2-4
				c0-3.4,3-5.2,8.3-5.2v-0.3c0-1.2-0.3-3.3-3.1-3.2c-1.3,0-2.7,0.4-3.6,1l-0.6-1.7c1.1-0.7,2.8-1.2,4.6-1.2c4.3,0,5.3,2.9,5.3,5.7
				V420.1z M107.2,416.3c-2.7-0.1-5.9,0.4-5.9,3.2c0,1.7,1.1,2.4,2.3,2.4c1.8,0,3-1.2,3.4-2.3c0.1-0.3,0.1-0.6,0.1-0.8V416.3z"/>
			<path class="st2" d="M123.5,422.9c-0.6,0.3-1.9,0.8-3.6,0.8l-0.7,1.2c1.1,0.2,2,0.9,2,2.1c0,1.7-1.4,2.4-3,2.4
				c-0.7,0-1.5-0.2-2-0.5l0.4-1.3c0.4,0.3,1,0.4,1.6,0.4c0.7,0,1.2-0.2,1.2-0.9c0-0.8-0.9-1.1-2.2-1.2l1.2-2.2
				c-3.5-0.4-5.8-3.2-5.8-7.1c0-4.3,2.9-7.5,7.4-7.5c1.5,0,2.8,0.4,3.5,0.8l-0.6,1.9c-0.6-0.3-1.5-0.7-2.9-0.7
				c-3.2,0-4.9,2.4-4.9,5.3c0,3.2,2.1,5.2,4.8,5.2c1.4,0,2.4-0.4,3.1-0.7L123.5,422.9z"/>
			<path class="st2" d="M136.2,420.1c0,1.2,0.1,2.4,0.2,3.4h-2.3l-0.2-1.8h-0.1c-0.7,1.1-2.3,2.1-4.2,2.1c-2.8,0-4.2-2-4.2-4
				c0-3.4,3-5.2,8.3-5.2v-0.3c0-1.2-0.3-3.3-3.1-3.2c-1.3,0-2.7,0.4-3.6,1l-0.6-1.7c1.1-0.7,2.8-1.2,4.6-1.2c4.3,0,5.3,2.9,5.3,5.7
				V420.1z M127.6,407c-0.1-1.9,0.7-3,1.9-3c0.6,0,1.1,0.3,1.8,0.6c0.5,0.3,0.9,0.5,1.2,0.5c0.4,0,0.7-0.3,0.8-1.2h1.3
				c0,1.9-0.6,2.9-1.9,2.9c-0.6,0-1.2-0.3-1.8-0.6c-0.6-0.3-0.9-0.5-1.2-0.5c-0.5,0-0.7,0.5-0.7,1.3H127.6z M133.7,416.3
				c-2.7-0.1-5.9,0.4-5.9,3.2c0,1.7,1.1,2.4,2.3,2.4c1.8,0,3-1.2,3.4-2.3c0.1-0.3,0.1-0.6,0.1-0.8V416.3z"/>
			<path class="st2" d="M145.8,423.8c-3.7,0-6.6-2.8-6.6-7.2c0-4.7,3.1-7.5,6.9-7.5c4,0,6.7,2.9,6.7,7.2
				C152.7,421.5,149.2,423.8,145.8,423.8L145.8,423.8z M146,421.9c2.4,0,4.2-2.3,4.2-5.5c0-2.4-1.2-5.4-4.1-5.4
				c-2.9,0-4.2,2.8-4.2,5.5C141.8,419.5,143.5,421.9,146,421.9L146,421.9z"/>
			<path class="st2" d="M163.4,416.9c0.1,3.4,2.2,4.8,4.7,4.8c1.8,0,2.9-0.3,3.8-0.7l0.5,1.8c-0.9,0.4-2.4,0.9-4.6,0.9
				c-4.2,0-6.8-2.9-6.8-7.1c0-4.2,2.5-7.6,6.5-7.6c4.5,0,5.7,4,5.7,6.6c0,0.5,0,0.9-0.1,1.2H163.4z M170.8,415.1
				c0-1.6-0.7-4.1-3.5-4.1c-2.6,0-3.7,2.4-3.9,4.1H170.8z"/>
			<path class="st2" d="M176.3,413.2c0-1.5-0.1-2.6-0.1-3.8h2.2l0.1,2.3h0.1c0.8-1.3,2.1-2.6,4.4-2.6c1.9,0,3.3,1.2,3.9,2.8h0.1
				c0.4-0.8,1-1.4,1.6-1.8c0.8-0.6,1.7-1,3-1c1.9,0,4.6,1.2,4.6,6.1v8.3h-2.5v-7.9c0-2.7-1-4.3-3-4.3c-1.5,0-2.5,1.1-3,2.3
				c-0.1,0.4-0.2,0.8-0.2,1.3v8.7H185V415c0-2.2-1-3.8-2.9-3.8c-1.5,0-2.7,1.3-3.1,2.6c-0.1,0.4-0.2,0.8-0.2,1.2v8.5h-2.5V413.2z"/>
			<path class="st2" d="M219.7,422.8c-0.9,0.5-2.7,0.9-5.1,0.9c-5.4,0-9.5-3.5-9.5-9.9c0-6.1,4.1-10.2,10.1-10.2
				c2.4,0,3.9,0.5,4.6,0.8l-0.6,2.1c-0.9-0.5-2.3-0.8-3.9-0.8c-4.5,0-7.5,2.9-7.5,8c0,4.8,2.7,7.8,7.4,7.8c1.5,0,3.1-0.3,4.1-0.8
				L219.7,422.8z"/>
			<path class="st2" d="M223.9,416.9c0.1,3.4,2.2,4.8,4.7,4.8c1.8,0,2.9-0.3,3.8-0.7l0.5,1.8c-0.9,0.4-2.4,0.9-4.6,0.9
				c-4.2,0-6.8-2.9-6.8-7.1c0-4.2,2.5-7.6,6.5-7.6c4.5,0,5.7,4,5.7,6.6c0,0.5,0,0.9-0.1,1.2H223.9z M231.3,415.1
				c0-1.6-0.7-4.1-3.5-4.1c-2.6,0-3.7,2.4-3.9,4.1H231.3z"/>
			<path class="st2" d="M236.8,413.2c0-1.5,0-2.6-0.1-3.8h2.2l0.1,2.3h0.1c0.7-1.3,2.3-2.6,4.6-2.6c1.9,0,4.9,1.2,4.9,6v8.4h-2.5
				v-8.1c0-2.3-0.8-4.2-3.2-4.2c-1.6,0-2.9,1.2-3.4,2.6c-0.1,0.3-0.2,0.8-0.2,1.2v8.5h-2.5V413.2z"/>
			<path class="st2" d="M255.6,406.1v3.4h3.6v1.9h-3.6v7.5c0,1.7,0.5,2.7,1.9,2.7c0.7,0,1.1-0.1,1.5-0.2l0.1,1.9
				c-0.5,0.2-1.3,0.3-2.2,0.3c-1.2,0-2.1-0.4-2.7-1.1c-0.7-0.8-1-2-1-3.7v-7.6H251v-1.9h2.1v-2.6L255.6,406.1z"/>
			<path class="st2" d="M262,413.8c0-1.7,0-3.1-0.1-4.4h2.2l0.1,2.8h0.1c0.6-1.9,2.2-3.1,3.9-3.1c0.3,0,0.5,0,0.7,0.1v2.4
				c-0.3,0-0.5-0.1-0.9-0.1c-1.8,0-3,1.4-3.4,3.2c-0.1,0.4-0.1,0.8-0.1,1.2v7.5H262V413.8z"/>
			<path class="st2" d="M276.7,423.8c-3.7,0-6.6-2.8-6.6-7.2c0-4.7,3.1-7.5,6.9-7.5c4,0,6.7,2.9,6.7,7.2
				C283.6,421.5,280.1,423.8,276.7,423.8L276.7,423.8z M276.9,421.9c2.4,0,4.2-2.3,4.2-5.5c0-2.4-1.2-5.4-4.1-5.4
				c-2.9,0-4.2,2.8-4.2,5.5C272.7,419.5,274.4,421.9,276.9,421.9L276.9,421.9z"/>
			<path class="st2" d="M286.5,420.8c0.8,0.5,2.1,1,3.3,1c1.8,0,2.7-0.9,2.7-2.1c0-1.2-0.7-1.9-2.5-2.6c-2.5-0.9-3.7-2.3-3.7-4
				c0-2.3,1.8-4.1,4.8-4.1c1.4,0,2.6,0.4,3.4,0.9l-0.6,1.8c-0.5-0.3-1.5-0.8-2.8-0.8c-1.5,0-2.3,0.9-2.3,1.9c0,1.2,0.8,1.7,2.6,2.4
				c2.4,0.9,3.6,2.1,3.6,4.2c0,2.5-1.9,4.2-5.1,4.2c-1.5,0-2.9-0.4-3.9-1L286.5,420.8z"/>
			<path class="st2" d="M316.1,402.9v17c0,1.2,0,2.7,0.1,3.6H314l-0.1-2.4h-0.1c-0.8,1.6-2.4,2.8-4.7,2.8c-3.3,0-5.9-2.9-5.9-7.1
				c0-4.7,2.9-7.5,6.2-7.5c2.1,0,3.6,1,4.2,2.1h0.1v-8.4H316.1z M313.6,415.1c0-0.3,0-0.8-0.1-1.1c-0.4-1.6-1.7-2.9-3.6-2.9
				c-2.6,0-4.1,2.3-4.1,5.4c0,2.9,1.4,5.2,4.1,5.2c1.7,0,3.2-1.2,3.7-3.1c0.1-0.3,0.1-0.7,0.1-1.1V415.1z"/>
			<path class="st2" d="M321.8,416.9c0.1,3.4,2.2,4.8,4.7,4.8c1.8,0,2.9-0.3,3.8-0.7l0.5,1.8c-0.9,0.4-2.4,0.9-4.6,0.9
				c-4.2,0-6.8-2.9-6.8-7.1c0-4.2,2.5-7.6,6.5-7.6c4.5,0,5.7,4,5.7,6.6c0,0.5,0,0.9-0.1,1.2H321.8z M329.1,415.1
				c0-1.6-0.7-4.1-3.5-4.1c-2.6,0-3.7,2.4-3.9,4.1H329.1z"/>
			<path class="st2" d="M343.9,417.3l-2,6.1h-2.6l6.5-19.5h3l6.6,19.5h-2.7l-2.1-6.1H343.9z M350.2,415.3l-1.9-5.6
				c-0.4-1.3-0.7-2.4-1-3.6h-0.1c-0.3,1.1-0.6,2.3-0.9,3.5l-1.9,5.7H350.2z"/>
			<path class="st2" d="M361,406.1v3.4h3.6v1.9H361v7.5c0,1.7,0.5,2.7,1.9,2.7c0.7,0,1.1-0.1,1.5-0.2l0.1,1.9
				c-0.5,0.2-1.3,0.3-2.2,0.3c-1.2,0-2.1-0.4-2.7-1.1c-0.7-0.8-1-2-1-3.7v-7.6h-2.1v-1.9h2.1v-2.6L361,406.1z"/>
			<path class="st2" d="M368.7,416.9c0.1,3.4,2.2,4.8,4.7,4.8c1.8,0,2.9-0.3,3.8-0.7l0.5,1.8c-0.9,0.4-2.4,0.9-4.6,0.9
				c-4.2,0-6.8-2.9-6.8-7.1c0-4.2,2.5-7.6,6.5-7.6c4.5,0,5.7,4,5.7,6.6c0,0.5,0,0.9-0.1,1.2H368.7z M376,415.1
				c0-1.6-0.7-4.1-3.5-4.1c-2.6,0-3.7,2.4-3.9,4.1H376z"/>
			<path class="st2" d="M381.5,413.2c0-1.5,0-2.6-0.1-3.8h2.2l0.1,2.3h0.1c0.7-1.3,2.3-2.6,4.6-2.6c1.9,0,4.9,1.2,4.9,6v8.4h-2.5
				v-8.1c0-2.3-0.8-4.2-3.2-4.2c-1.6,0-2.9,1.2-3.4,2.6c-0.1,0.3-0.2,0.8-0.2,1.2v8.5h-2.5V413.2z"/>
			<path class="st2" d="M409.4,402.9v17c0,1.2,0,2.7,0.1,3.6h-2.3l-0.1-2.4h-0.1c-0.8,1.6-2.4,2.8-4.7,2.8c-3.3,0-5.9-2.9-5.9-7.1
				c0-4.7,2.9-7.5,6.2-7.5c2.1,0,3.6,1,4.2,2.1h0.1v-8.4H409.4z M406.9,415.1c0-0.3,0-0.8-0.1-1.1c-0.4-1.6-1.7-2.9-3.6-2.9
				c-2.6,0-4.1,2.3-4.1,5.4c0,2.9,1.4,5.2,4.1,5.2c1.7,0,3.2-1.2,3.7-3.1c0.1-0.3,0.1-0.7,0.1-1.1V415.1z"/>
			<path class="st2" d="M414.8,407c-0.9,0-1.5-0.7-1.5-1.6c0-0.9,0.6-1.6,1.6-1.6c0.9,0,1.5,0.7,1.5,1.6
				C416.4,406.3,415.8,407,414.8,407L414.8,407z M413.6,423.5v-14h2.5v14H413.6z"/>
			<path class="st2" d="M420.2,413.2c0-1.5-0.1-2.6-0.1-3.8h2.2l0.1,2.3h0.1c0.8-1.3,2.1-2.6,4.4-2.6c1.9,0,3.3,1.2,3.9,2.8h0.1
				c0.4-0.8,1-1.4,1.6-1.8c0.8-0.6,1.7-1,3-1c1.9,0,4.6,1.2,4.6,6.1v8.3h-2.5v-7.9c0-2.7-1-4.3-3-4.3c-1.5,0-2.5,1.1-3,2.3
				c-0.1,0.4-0.2,0.8-0.2,1.3v8.7h-2.5V415c0-2.2-1-3.8-2.9-3.8c-1.5,0-2.7,1.3-3.1,2.6c-0.1,0.4-0.2,0.8-0.2,1.2v8.5h-2.5V413.2z"
				/>
			<path class="st2" d="M445.5,416.9c0.1,3.4,2.2,4.8,4.7,4.8c1.8,0,2.9-0.3,3.8-0.7l0.5,1.8c-0.9,0.4-2.4,0.9-4.6,0.9
				c-4.2,0-6.8-2.9-6.8-7.1c0-4.2,2.5-7.6,6.5-7.6c4.5,0,5.7,4,5.7,6.6c0,0.5,0,0.9-0.1,1.2H445.5z M452.9,415.1
				c0-1.6-0.7-4.1-3.5-4.1c-2.6,0-3.7,2.4-3.9,4.1H452.9z"/>
			<path class="st2" d="M458.4,413.2c0-1.5,0-2.6-0.1-3.8h2.2l0.1,2.3h0.1c0.7-1.3,2.3-2.6,4.6-2.6c1.9,0,4.9,1.2,4.9,6v8.4h-2.5
				v-8.1c0-2.3-0.8-4.2-3.2-4.2c-1.6,0-2.9,1.2-3.4,2.6c-0.1,0.3-0.2,0.8-0.2,1.2v8.5h-2.5V413.2z"/>
			<path class="st2" d="M477.2,406.1v3.4h3.6v1.9h-3.6v7.5c0,1.7,0.5,2.7,1.9,2.7c0.7,0,1.1-0.1,1.5-0.2l0.1,1.9
				c-0.5,0.2-1.3,0.3-2.2,0.3c-1.2,0-2.1-0.4-2.7-1.1c-0.7-0.8-1-2-1-3.7v-7.6h-2.1v-1.9h2.1v-2.6L477.2,406.1z"/>
			<path class="st2" d="M489.1,423.8c-3.7,0-6.6-2.8-6.6-7.2c0-4.7,3.1-7.5,6.9-7.5c4,0,6.7,2.9,6.7,7.2
				C496,421.5,492.4,423.8,489.1,423.8L489.1,423.8z M489.2,421.9c2.4,0,4.2-2.3,4.2-5.5c0-2.4-1.2-5.4-4.1-5.4
				c-2.9,0-4.2,2.8-4.2,5.5C485,419.5,486.8,421.9,489.2,421.9L489.2,421.9z"/>
		</g>
		<g>
			<path class="st3" d="M495.8,144.8c-1.1,7.4-2.8,13-3.9,16.5c-3.8,12.4-8.4,22.6-16.1,34.2c-27.8,41.5-55.4,83.2-83.1,124.8
				c-0.7,1-0.9,2.6-2.8,2.7c7.1-27.1,14.2-54.1,21.5-81.5c-4.1,0.8-7.7,1.6-11.3,2.2c-64.4,11.7-126.7-34-134.9-98.9
				c-3.8-29.8,3.6-58.2,19.1-80.9c29.3-43,76.7-49.2,78.8-49.4c0.3,0,3.7-0.4,8.2-0.8c5.5-0.5,8.4-0.7,11.3-0.7
				c3.4,0.1,6,0.4,9.6,0.8c0,0,3.8,0.4,7.3,1.1c13.2,2.3,37.4,8.8,59.2,28.6c0,0,28.5,25.9,36.1,65.7
				C495.9,115.2,498.3,128.3,495.8,144.8z M414.9,75.1c-3.8-2.2-9.8-5.5-17.9-7.6c-6.5-1.7-13.3-2.2-20.4-1.8
				c-50.1,3.4-77.9,59.1-50.4,101.1c15.3,23.3,41.1,29,44.8,29.8c7.8,1.8,15.7,2.1,23.6,0.9c14.7-2.2,27.4-8.4,37.6-19.1
				c14.3-15,20.5-33,17.9-53.9c-0.5-3.6-1.4-10.8-5.4-19.2c-6.7-14.1-17.3-22-22.3-25.6C421.5,79.3,418.7,77.3,414.9,75.1z"/>
			<path class="st2" d="M8.3,296c1.6-7.5,4.6-21,15.7-33.4c4.1-4.6,9-8.6,14.8-12.1c19.8-11.7,59.6-11.8,78.6,14.3
				c7.6,10.5,11.6,22.2,13,34.9c1.7,14.9,1.3,29.7-3.4,44.2c-9.1,28.3-32.5,43.5-62.2,41.8c-5.8-0.3-19.4-1.4-32.4-10.9
				C13.1,360.7,9.5,338.2,7.7,327C5.3,312.1,7.3,300.4,8.3,296z M105.5,314c-0.2-11.3-1.1-21.8-5.4-31.6c-8-18-30.5-25.2-47.5-15.1
				c-9,5.4-14.2,13.8-16.9,23.6c-4.4,15.6-4,31.4-0.3,47.1c1.7,7.3,4.8,14,10.4,19.2c15.7,14.7,42,9.9,52.6-9.6
				C104.1,337,105.4,325.2,105.5,314z"/>
			<path class="st2" d="M364.6,367.8c-14.4,15.8-32.6,20.3-52.2,17.1c-30.2-5-42.9-42.5-23.2-66.7c10.7-13.2,25-19.9,41.6-22.3
				c9.9-1.4,19.8-1.7,29.4,1.7c1.7,0.6,2.1,0.1,2-1.6c-0.2-5.9-1.1-11.6-3.7-17c-4-8.3-11-12.6-19.9-13.5
				c-14.6-1.5-28.4,0.6-40,10.7c-1.4,1.2-1.7,0.5-2.3-0.6c-2.8-5.7-5.7-11.5-8.7-17.1c-1-1.8,0.1-2.4,1.2-3.1
				c7.3-5,15.4-8,23.9-10.1c13.6-3.4,27.2-2.8,40.6,0.7c18.6,4.7,28.4,17.5,31.8,35.8c1.2,6.6,1.5,13.4,1.6,20.1c0,16,0,32,0,48
				c0,4.2,0.5,8.4,1.9,12.4c1,3,2.2,6.2,4.8,7.8c6,3.6,3.8,9.1,4.2,14.1c0.1,1.1-0.5,1.6-1.6,1.5c-7.5-0.2-15-0.7-21.7-4.7
				C369.4,377.8,366.7,373.1,364.6,367.8z M362.2,332.3c0-4.9,0-9.7,0-14.6c0-1.4-0.4-2.2-1.8-2.6c-9.9-2.3-19.8-3.1-29.7-0.1
				c-11,3.4-20,9.5-24.5,20.5c-6.5,15.8,2.1,29.2,19,30.6c14.6,1.2,25.9-4.7,35.3-15.2c1.2-1.4,1.9-2.8,1.8-4.7
				C362.1,341.6,362.2,336.9,362.2,332.3z"/>
			<path class="st2" d="M248.6,273.9c-10.4-7-21.6-10.6-33.8-10c-18.8,0.8-32.2,11.1-37.9,29.1c-4.4,13.8-4.7,27.8-0.9,41.8
				c4.8,17.9,18.6,28.7,37.1,30.1c13.5,1,25.3-2.9,35.9-10.7c2.3-1.7,3.1-1.3,4.1,1.1c2.2,5.2,4.6,10.3,7.2,15.3
				c1.1,2.1,0.5,3-1.3,4c-16.5,9.4-34.4,12.1-53,10.8c-18.3-1.3-33.1-9.4-44.4-23.8c-7.6-9.7-11.6-21-13-33.1
				c-1.6-14.2-1.2-28.3,3.8-41.8c9.6-25.9,28.8-39.8,55.9-43.1c17.7-2.2,33.8,2.4,49.1,11c2.8,1.6,3.1,2.8,1.1,5.4
				C255,264.4,251.9,269.2,248.6,273.9z"/>
			<path class="st2" d="M379.1,240.5c-1.3,0-33-48.3-48.3-71.6c-27.5-42,0.3-97.7,50.4-101.1c7-0.5,13.8,0.1,20.4,1.8
				c8.3,2.1,14.5,5.7,17.9,7.6c1.5,0.8,2.7,1.6,3.5,2.1c0.9,0.7,1.9,1.5,2.9,2.2c0.3,0.2,1.8,1.5,2.3,1.9
				c21.2,18.7,28.5,47.5,18.4,73.5c-10,25.8-35.1,42.3-63.3,41.6c-5.1-0.1-10-1.2-15.3-2.1C371.8,210.3,379.6,239.4,379.1,240.5z"/>
			<path class="st4" d="M373.8,238.6c-1.3,0-33-48.3-48.3-71.6c-27.5-42,0.3-97.7,50.4-101.1c7-0.5,13.8,0.1,20.4,1.8
				c8.3,2.1,14.5,5.7,17.9,7.6c1.5,0.8,2.7,1.6,3.5,2.1c0.9,0.7,1.9,1.5,2.9,2.2c0.3,0.2,1.8,1.5,2.3,1.9
				c21.2,18.7,28.5,47.5,18.4,73.5c-10,25.8-35.1,42.3-63.3,41.6c-5.1-0.1-10-1.2-15.3-2.1C366.5,208.3,374.3,237.4,373.8,238.6z"/>
		</g>
	</g>
</g>
<g id="Camada_2" class="st0">
	<g class="st1">
		<g>
			<radialGradient id="SVGID_1_" cx="68.7848" cy="15.121" r="622.4515" gradientUnits="userSpaceOnUse">
				<stop  offset="3.763440e-02" style="stop-color:#199A8E"/>
				<stop  offset="0.5538" style="stop-color:#7AF4AB"/>
				<stop  offset="1" style="stop-color:#F1FF8D"/>
			</radialGradient>
			<path class="st5" d="M461.7,216.6c0-54.8-20.4-104.7-54.1-142.7C368.4,32.8,313.1,7.2,251.8,7.2c-119,0-215.4,96.4-215.4,215.4
				c0,54.8,20.4,104.7,54.1,142.7C129.7,406.4,185,432,246.3,432C365.3,432,461.7,335.6,461.7,216.6z"/>
		</g>
		<radialGradient id="SVGID_2_" cx="245.7774" cy="201.449" r="257.977" gradientUnits="userSpaceOnUse">
			<stop  offset="0" style="stop-color:#199A8E"/>
			<stop  offset="0.2969" style="stop-color:#1B9C8F;stop-opacity:0.7031"/>
			<stop  offset="0.4624" style="stop-color:#23A292;stop-opacity:0.5376"/>
			<stop  offset="0.5956" style="stop-color:#31AC96;stop-opacity:0.4044"/>
			<stop  offset="0.7116" style="stop-color:#45BB9D;stop-opacity:0.2884"/>
			<stop  offset="0.8165" style="stop-color:#5ECDA5;stop-opacity:0.1835"/>
			<stop  offset="0.9119" style="stop-color:#7DE4B0;stop-opacity:8.811665e-02"/>
			<stop  offset="1" style="stop-color:#A1FFBC;stop-opacity:0"/>
		</radialGradient>
		<path class="st6" d="M128,330.9l100.4,100.4c5.9,0.5,11.9,0.7,18,0.7c119,0,215.4-96.4,215.4-215.4c0-3.4-0.1-6.8-0.2-10.2
			l-73.1-73.1L128,330.9z"/>
		<g>
			<g>
				<g>
					<g>
						<ellipse class="st7" cx="247" cy="217.3" rx="164.5" ry="164.5"/>
					</g>
				</g>
			</g>
			<g>
				<radialGradient id="SVGID_3_" cx="111.401" cy="63.4603" r="475.3036" gradientUnits="userSpaceOnUse">
					<stop  offset="0" style="stop-color:#F7F7F8"/>
					<stop  offset="0.5055" style="stop-color:#FBFBFB"/>
					<stop  offset="0.7151" style="stop-color:#FFFFFF"/>
				</radialGradient>
				<path class="st8" d="M411.4,217.3c0-41.8-15.6-80-41.3-109C340.2,77,298,57.4,251.2,57.4c-90.8,0-164.5,73.6-164.5,164.5
					c0,41.8,15.6,80,41.3,109c29.9,31.4,72.2,50.9,119,50.9C337.8,381.8,411.4,308.2,411.4,217.3z"/>
			</g>
			<g>
				<g>
					<path class="st9" d="M394.8,145.2c9.1,20.4,14.2,43,14.2,66.8c0,90.8-73.6,164.5-164.5,164.5c-54.6,0-102.9-26.6-132.9-67.5
						c4.9,7.8,10.3,15.1,16.4,21.9c29.9,31.4,72.2,50.9,119,50.9c90.8,0,164.5-73.6,164.5-164.5C411.4,191.4,405.5,167,394.8,145.2z
						"/>
				</g>
			</g>
		</g>
	</g>
</g>
<g id="Camada_4" class="st0">
	<g class="st1">
		<linearGradient id="SVGID_4_" gradientUnits="userSpaceOnUse" x1="249" y1="353" x2="249" y2="156">
			<stop  offset="3.763440e-02" style="stop-color:#199A8E"/>
			<stop  offset="0.5538" style="stop-color:#7AF4AB"/>
		</linearGradient>
		<path class="st10" d="M249,353L249,353c-16,0-29-13-29-29V185c0-15.9,13-29,29-29h0c15.9,0,29,13,29,29v139
			C278,340,265,353,249,353z"/>
		<linearGradient id="SVGID_5_" gradientUnits="userSpaceOnUse" x1="249" y1="150" x2="249" y2="88">
			<stop  offset="3.763440e-02" style="stop-color:#199A8E"/>
			<stop  offset="0.5538" style="stop-color:#7AF4AB"/>
		</linearGradient>
		<circle class="st11" cx="249" cy="119" r="31"/>
	</g>
</g>
<g id="Camada_3">
</g>
<g id="Camada_5">
	<g>
		<g>
			<g>
				<radialGradient id="SVGID_6_" cx="69.7166" cy="15.6097" r="621.7197" gradientUnits="userSpaceOnUse">
					<stop  offset="3.763440e-02" style="stop-color:#FF9100"/>
					<stop  offset="0.5699" style="stop-color:#FFB655"/>
					<stop  offset="1" style="stop-color:#FFF04A"/>
				</radialGradient>
				<path class="st12" d="M462.2,216.9c0-54.7-20.4-104.6-54-142.6C369,33.3,313.7,7.7,252.5,7.7C133.7,7.7,37.4,104,37.4,222.9
					c0,54.7,20.4,104.6,54,142.6c39.2,41,94.4,66.6,155.6,66.6C365.9,432,462.2,335.7,462.2,216.9z"/>
			</g>
			<radialGradient id="SVGID_7_" cx="246.5013" cy="201.7188" r="257.6736" gradientUnits="userSpaceOnUse">
				<stop  offset="0" style="stop-color:#FF9100"/>
				<stop  offset="0.342" style="stop-color:#FF9202;stop-opacity:0.658"/>
				<stop  offset="0.5326" style="stop-color:#FF960A;stop-opacity:0.4674"/>
				<stop  offset="0.686" style="stop-color:#FF9C18;stop-opacity:0.314"/>
				<stop  offset="0.8196" style="stop-color:#FFA42C;stop-opacity:0.1804"/>
				<stop  offset="0.9391" style="stop-color:#FFAF45;stop-opacity:6.085581e-02"/>
				<stop  offset="1" style="stop-color:#FFB655;stop-opacity:0"/>
			</radialGradient>
			<path class="st13" d="M128.9,331l100.2,100.2c5.9,0.5,11.9,0.7,17.9,0.7c118.8,0,215.1-96.3,215.1-215.1c0-3.4-0.1-6.8-0.2-10.2
				l-73-73L128.9,331z"/>
			<g>
				<g>
					<g>
						<g>
							<circle class="st7" cx="247.7" cy="217.6" r="164.3"/>
						</g>
					</g>
				</g>
				<g>
					<radialGradient id="SVGID_8_" cx="112.2806" cy="63.8913" r="474.7508" gradientUnits="userSpaceOnUse">
						<stop  offset="0" style="stop-color:#F7F7F8"/>
						<stop  offset="0.5055" style="stop-color:#FBFBFB"/>
						<stop  offset="0.7151" style="stop-color:#FFFFFF"/>
					</radialGradient>
					<path class="st14" d="M412,217.6c0-41.8-15.6-79.9-41.3-108.9c-29.9-31.3-72.1-50.8-118.8-50.8c-90.7,0-164.3,73.6-164.3,164.3
						c0,41.8,15.6,79.9,41.3,108.9c29.9,31.3,72.1,50.8,118.8,50.8C338.4,381.9,412,308.3,412,217.6z"/>
				</g>
				<g>
					<g>
						<path class="st9" d="M395.4,145.5c9.1,20.4,14.1,43,14.1,66.8c0,90.7-73.6,164.3-164.3,164.3c-54.5,0-102.8-26.6-132.7-67.4
							c4.8,7.8,10.3,15.1,16.3,21.9c29.9,31.3,72.1,50.8,118.8,50.8c90.7,0,164.3-73.6,164.3-164.3C412,191.7,406,167.3,395.4,145.5
							z"/>
					</g>
				</g>
			</g>
		</g>
		<g>
			<linearGradient id="SVGID_9_" gradientUnits="userSpaceOnUse" x1="250" y1="354" x2="250" y2="157">
				<stop  offset="3.763440e-02" style="stop-color:#FF9100"/>
				<stop  offset="0.5699" style="stop-color:#FFB655"/>
			</linearGradient>
			<path class="st15" d="M250,354L250,354c-16,0-29-13-29-29V186c0-15.9,13-29,29-29h0c15.9,0,29,13,29,29v139
				C279,341,266,354,250,354z"/>
			<linearGradient id="SVGID_10_" gradientUnits="userSpaceOnUse" x1="250" y1="151" x2="250" y2="89">
				<stop  offset="3.763440e-02" style="stop-color:#FF9100"/>
				<stop  offset="0.5699" style="stop-color:#FFB655"/>
			</linearGradient>
			<circle class="st16" cx="250" cy="120" r="31"/>
		</g>
	</g>
</g>
</svg>
