<?xml version="1.0" encoding="utf-8"?>
<!-- Generator: Adobe Illustrator 21.0.0, SVG Export Plug-In . SVG Version: 6.00 Build 0)  -->
<svg version="1.1" xmlns="http://www.w3.org/2000/svg" xmlns:xlink="http://www.w3.org/1999/xlink" x="0px" y="0px"
	 viewBox="0 0 3910 2450" style="enable-background:new 0 0 3910 2450;" xml:space="preserve">
<style type="text/css">
	.st0{fill:none;stroke:#A5B740;stroke-width:100;stroke-miterlimit:10;}
	.st1{fill:none;stroke:#4F91D9;stroke-width:100;stroke-miterlimit:10;}
	.st2{display:none;}
	.st3{display:inline;}
	.st4{fill:#3C3C3B;}
	.st5{fill:#CA511C;}
	.st6{fill:#FDFDFD;}
</style>
<g id="Camada_1">
	<g>
		<ellipse class="st0" cx="2695.9" cy="614.9" rx="120.5" ry="125.2"/>
		<ellipse class="st1" cx="3077.7" cy="1849.9" rx="120.9" ry="126.6"/>
		<rect x="2561.9" y="920.1" class="st1" width="268.1" height="1056.4"/>
		<rect x="2966.9" y="487.6" class="st0" width="222.3" height="1063.1"/>
		<g>
			<path class="st1" d="M939.2,1494.3c-49.7-25.4-82.8-54.6-102.5-74.8c-22.6-23.2-35.5-42.5-39-48c-20.5-31.4-30-59.2-33.3-69.9
				c-12.3-39.1-12.4-70.5-12.2-99.2c0.2-34.1,1.1-87.8,27.5-145.7c16.2-35.5,35.6-58.5,40.7-64.3c9.2-10.7,19.3-20.6,30.3-29.7
				c30.6-25.3,67.4-44.5,110.4-57.4c43-12.9,91.3-19.4,144.9-19.4c70,0,122.3,9.8,137,12.9c56.6,12.2,102.7,31,137.1,48.2
				c-6.1,23.7-12.3,47.6-18.7,71.7c-11.7,43.6-23.6,86.4-35.8,128.4c-13.1-6.2-74-34.9-120.4-47.2c-16.4-4.3-28.9-6.1-31.7-6.5
				c-5.2-0.7-29.1-3.8-52.1-1.6c-22.1,2.1-59.9,5.8-86.2,35c-24,26.6-34.6,70.1-18.7,104.9c13.4,29.5,42,44.4,48.8,48
				c9.7,5.1,18.5,7.9,24.9,9.6l86.1,33c36.3,14.4,69.3,29.2,99,44.5c29.6,15.3,54.8,34.2,75.3,56.7c20.6,22.5,36.6,49.8,48.1,81.8
				c14.6,40.8,15.9,73.4,17.2,118.4c0.8,28.6,1.5,60.6-7.3,101.7c-8.4,39.3-21.1,66.3-24.4,73.2c-3.9,8-16.4,33.3-37.4,59.4
				c-42.9,53.3-95.9,78.6-121.2,90.3c-72.1,33.5-134.8,36.1-187.1,38.2c-40.1,1.7-109.5,0.7-191.9-22
				c-50.2-13.8-90.5-31.6-119.6-46.4c7.4-36.8,16.7-76,28.5-117.1c8.7-30.4,18.1-59.2,27.7-86.2c40.3,21.5,75.5,34.8,100.6,43
				c46.5,15.2,93.7,30.1,153.2,24.5c35.3-3.3,65-6.2,89.5-30.1c26.9-26.3,36.5-67.4,28.5-101.7c-9-38.4-37.9-59.9-63.4-78.9
				c-22.2-16.5-43.4-25.7-57.7-30.9c-18.1-7.4-37.2-16-56.9-26C963.4,1508,951,1501.1,939.2,1494.3z"/>
		</g>
		<g>
			<path class="st1" d="M1791.4,1525.5c4.9,82,30.9,141.5,77.9,178.4c47,36.9,108.8,55.4,185.4,55.4c42,0,85-4.4,128.9-13.3
				s85.6-21.5,125.2-38c13.6,27.3,25.4,60.2,35.2,98.5c9.9,38.3,15.4,79.3,16.7,123c-96.4,41-205.2,61.5-326.4,61.5
				c-89,0-165.3-13.7-229-41c-63.7-27.3-115.6-65.3-155.7-113.8c-40.2-48.5-69.8-106.3-89-173.3s-28.7-140.1-28.7-219.5
				c0-77.9,9.9-151.1,29.7-219.4c19.8-68.3,49.1-127.8,88.1-178.4c38.9-50.6,87.1-90.6,144.6-120c57.5-29.4,124.5-44.1,201.2-44.1
				c66.8,0,126.1,13,178,39s96.1,61.5,132.6,106.6c36.5,45.1,64,98.8,82.5,161c18.5,62.2,27.8,128.9,27.8,200
				c0,26-0.9,51.6-2.8,76.9s-4,45.4-6.5,60.5H1791.4z M2167.8,1322.5c-2.5-65.6-18.9-118.6-49.1-158.9
				c-30.3-40.3-72.6-60.5-127-60.5c-61.8,0-108.8,19.1-140.9,57.4c-32.1,38.3-51.3,92.3-57.5,162H2167.8z"/>
		</g>
	</g>
</g>
<g id="Camada_2" class="st2">
	<g class="st3">
		<g>
			<path class="st4" d="M596.4,2400.7c-29.7,0-50.2-23.2-50.2-57.5c0-36,21.9-59.5,51.7-59.5c30.7,0,50.4,23.7,50.4,57.3
				c0,38.8-23.4,59.7-51.7,59.7H596.4z M597.2,2388.8c22.9,0,35.8-21.3,35.8-47.1c0-22.5-11.6-46.1-35.6-46.1s-36,22.7-36,47.2
				c0,23.9,12.9,45.9,35.6,45.9H597.2z"/>
			<path class="st4" d="M666.5,2342.9c0-9.6-0.2-17.8-0.7-25.4h12.8l0.7,16h0.5c3.6-10.9,12.6-17.8,22.4-17.8c1.5,0,2.7,0.2,4,0.3
				v14c-1.5-0.2-3-0.3-5-0.3c-10.3,0-17.6,7.9-19.6,18.8c-0.3,2.2-0.5,4.5-0.5,6.9v43.5h-14.6V2342.9z"/>
			<path class="st4" d="M788,2386.9c0,18.8-3.8,30.1-11.4,37.3c-8,7.2-19.2,9.8-29.3,9.8c-9.6,0-20.2-2.4-26.7-6.7l3.6-11.4
				c5.3,3.5,13.6,6.6,23.5,6.6c14.9,0,25.9-7.9,25.9-28.6v-8.9h-0.3c-4.3,7.6-13.1,13.6-25.5,13.6c-19.9,0-34.1-17.1-34.1-39.8
				c0-27.6,17.7-43,36.3-43c13.9,0,21.4,7.2,25,14.1h0.3l0.5-12.3h12.9c-0.5,5.7-0.7,12.4-0.7,22.2V2386.9z M773.4,2349.5
				c0-2.4-0.2-4.5-0.8-6.6c-2.7-8.7-9.6-15.8-20.4-15.8c-13.9,0-23.9,11.9-23.9,30.9c0,15.8,8.1,29.3,23.7,29.3
				c9.1,0,17.2-5.7,20.2-15.3c0.8-2.4,1.2-5.2,1.2-7.9V2349.5z"/>
			<path class="st4" d="M868.5,2379.4c0,7.1,0.3,14,1.2,19.5h-13.1l-1.3-10.3h-0.5c-4.3,6.4-13.1,12.1-24.5,12.1
				c-16.2,0-24.5-11.6-24.5-23.4c0-19.7,17.2-30.4,48.2-30.3v-1.7c0-6.7-1.8-19-18.2-18.8c-7.6,0-15.4,2.2-21.1,6l-3.3-9.9
				c6.6-4.2,16.4-7.1,26.5-7.1c24.7,0,30.7,17,30.7,33.3V2379.4z M854.3,2357.4c-15.9-0.3-34,2.5-34,18.3c0,9.8,6.3,14.1,13.6,14.1
				c10.6,0,17.4-6.7,19.7-13.6c0.5-1.5,0.7-3.2,0.7-4.7V2357.4z"/>
			<path class="st4" d="M891.9,2339.5c0-8.6-0.2-15.3-0.7-22h12.9l0.8,13.3h0.3c4-7.6,13.3-15.1,26.5-15.1
				c11.1,0,28.3,6.7,28.3,34.6v48.6h-14.6V2352c0-13.1-4.8-24.2-18.6-24.2c-9.4,0-16.9,6.9-19.6,15.1c-0.7,1.8-1,4.5-1,6.9v49.1
				h-14.6V2339.5z"/>
			<path class="st4" d="M990.8,2303.7c-5.3,0-8.8-4.2-8.8-9.1c0-5.2,3.6-9.2,9.1-9.2c5.3,0,8.9,4,8.9,9.2c0,4.9-3.5,9.1-9.1,9.1
				H990.8z M983.9,2398.9v-81.4h14.6v81.4H983.9z"/>
			<path class="st4" d="M1013.5,2390.3l36.3-47.9c3.6-4.5,6.8-8.4,10.6-12.8v-0.3h-43.6v-11.8h61.2v9.2l-36,47.4
				c-3.3,4.4-6.6,8.6-10.3,12.6v0.3h46.9v11.8h-65.1V2390.3z"/>
			<path class="st4" d="M1150.1,2379.4c0,7.1,0.3,14,1.2,19.5h-13.1l-1.3-10.3h-0.5c-4.3,6.4-13.1,12.1-24.5,12.1
				c-16.2,0-24.5-11.6-24.5-23.4c0-19.7,17.2-30.4,48.2-30.3v-1.7c0-6.7-1.8-19-18.2-18.8c-7.6,0-15.4,2.2-21.1,6l-3.3-9.9
				c6.6-4.2,16.4-7.1,26.5-7.1c24.7,0,30.7,17,30.7,33.3V2379.4z M1135.9,2357.4c-15.9-0.3-34,2.5-34,18.3c0,9.8,6.3,14.1,13.6,14.1
				c10.6,0,17.4-6.7,19.7-13.6c0.5-1.5,0.7-3.2,0.7-4.7V2357.4z"/>
			<path class="st4" d="M1230.7,2395.8c-3.3,1.8-10.9,4.5-20.9,4.7l-4.1,6.7c6.1,1.2,11.6,5.4,11.6,12.3c0,10.1-8.3,14-17.2,14
				c-3.8,0-8.5-1-11.6-2.9l2.5-7.6c2.5,1.5,5.8,2.4,9.1,2.4c3.8,0,7.1-1.3,7.1-5.4c-0.2-4.4-5.1-6.2-12.9-7.1l7-12.9
				c-20.4-2.5-33.5-18.5-33.5-41c0-25,16.9-43.4,43.1-43.4c8.6,0,16.2,2.2,20.2,4.4l-3.3,11.3c-3.5-1.8-9-3.9-16.9-3.9
				c-18.4,0-28.3,14-28.3,30.9c0,18.8,11.9,30.4,27.8,30.4c8.3,0,13.9-2.2,17.9-3.9L1230.7,2395.8z"/>
			<path class="st4" d="M1304.1,2379.4c0,7.1,0.3,14,1.2,19.5h-13.1l-1.3-10.3h-0.5c-4.3,6.4-13.1,12.1-24.5,12.1
				c-16.2,0-24.5-11.6-24.5-23.4c0-19.7,17.2-30.4,48.2-30.3v-1.7c0-6.7-1.8-19-18.2-18.8c-7.6,0-15.4,2.2-21.1,6l-3.3-9.9
				c6.6-4.2,16.4-7.1,26.5-7.1c24.7,0,30.7,17,30.7,33.3V2379.4z M1254.5,2303.6c-0.3-10.9,4.1-17.5,11.3-17.5
				c3.6,0,6.5,1.7,10.3,3.7c2.7,1.5,5,2.9,7.1,2.9c2.5,0,4.1-1.5,4.5-7.1h7.8c0.2,11.1-3.5,17-11.3,17c-3.6,0-6.8-1.7-10.3-3.5
				c-3.3-2-5.1-3-7.1-3c-2.7,0-4,2.9-4.3,7.6H1254.5z M1289.8,2357.4c-15.9-0.3-34,2.5-34,18.3c0,9.8,6.3,14.1,13.6,14.1
				c10.6,0,17.4-6.7,19.7-13.6c0.5-1.5,0.7-3.2,0.7-4.7V2357.4z"/>
			<path class="st4" d="M1360.1,2400.7c-21.5,0-38.5-16.1-38.5-41.9c0-27.2,17.7-43.2,39.8-43.2c23,0,38.6,17,38.6,41.7
				c0,30.3-20.7,43.4-39.8,43.4H1360.1z M1360.8,2389.6c13.9,0,24.4-13.3,24.4-31.8c0-13.8-6.8-31.1-24-31.1
				c-17.1,0-24.5,16.1-24.5,31.6c0,17.8,9.9,31.3,24,31.3H1360.8z"/>
			<path class="st4" d="M1461.9,2360.9c0.3,19.8,12.8,28.1,27.4,28.1c10.4,0,16.9-1.8,22.2-4.2l2.7,10.6c-5.1,2.4-14.1,5.2-26.9,5.2
				c-24.5,0-39.5-16.6-39.5-41c0-24.5,14.4-43.9,37.8-43.9c26.2,0,33,23.4,33,38.3c0,3-0.2,5.2-0.5,6.9H1461.9z M1504.5,2350.3
				c0.2-9.4-3.8-24-20.1-24c-14.9,0-21.2,13.8-22.4,24H1504.5z"/>
			<path class="st4" d="M1536.6,2339.5c0-8.6-0.3-15.3-0.7-22h12.8l0.7,13.1h0.5c4.5-7.7,11.9-15,25.4-15c10.8,0,19.1,6.7,22.5,16.3
				h0.3c2.5-4.7,5.8-8.1,9.1-10.6c4.8-3.7,9.9-5.7,17.6-5.7c10.8,0,26.5,7.1,26.5,35.3v47.9h-14.3v-46.1c0-15.8-5.8-25-17.4-25
				c-8.5,0-14.8,6.2-17.4,13.3c-0.7,2.2-1.2,4.9-1.2,7.4v50.4h-14.3V2350c0-12.9-5.6-22.2-16.7-22.2c-8.9,0-15.7,7.4-18.1,14.8
				c-0.8,2.2-1.2,4.7-1.2,7.2v49.1h-14.3V2339.5z"/>
			<path class="st4" d="M1788.4,2395.2c-5.1,2.7-15.9,5.4-29.5,5.4c-31.5,0-55-20.2-55-57.3c0-35.5,23.7-59.3,58.3-59.3
				c13.8,0,22.7,3,26.5,4.9l-3.6,12.1c-5.3-2.7-13.1-4.7-22.4-4.7c-26.2,0-43.6,17-43.6,46.6c0,27.7,15.7,45.4,42.8,45.4
				c8.9,0,17.9-1.8,23.7-4.7L1788.4,2395.2z"/>
			<path class="st4" d="M1812.6,2360.9c0.3,19.8,12.8,28.1,27.4,28.1c10.4,0,16.9-1.8,22.2-4.2l2.7,10.6c-5.1,2.4-14.1,5.2-26.9,5.2
				c-24.5,0-39.5-16.6-39.5-41c0-24.5,14.4-43.9,37.8-43.9c26.2,0,33,23.4,33,38.3c0,3-0.2,5.2-0.5,6.9H1812.6z M1855.2,2350.3
				c0.2-9.4-3.8-24-20.1-24c-14.9,0-21.2,13.8-22.4,24H1855.2z"/>
			<path class="st4" d="M1887.4,2339.5c0-8.6-0.2-15.3-0.7-22h12.9l0.8,13.3h0.3c4-7.6,13.3-15.1,26.5-15.1
				c11.1,0,28.3,6.7,28.3,34.6v48.6h-14.6V2352c0-13.1-4.8-24.2-18.6-24.2c-9.4,0-16.9,6.9-19.6,15.1c-0.7,1.8-1,4.5-1,6.9v49.1
				h-14.6V2339.5z"/>
			<path class="st4" d="M1996.3,2298v19.5h20.9v11.3h-20.9v43.7c0,10.1,2.8,15.8,10.9,15.8c4,0,6.3-0.3,8.5-1l0.7,11.3
				c-2.8,1-7.3,2-12.9,2c-6.8,0-12.3-2.4-15.7-6.2c-4-4.5-5.6-11.8-5.6-21.3v-44.2h-12.4v-11.3h12.4v-15L1996.3,2298z"/>
			<path class="st4" d="M2033.6,2342.9c0-9.6-0.2-17.8-0.7-25.4h12.8l0.7,16h0.5c3.6-10.9,12.6-17.8,22.4-17.8c1.5,0,2.7,0.2,4,0.3
				v14c-1.5-0.2-3-0.3-5-0.3c-10.3,0-17.6,7.9-19.6,18.8c-0.3,2.2-0.5,4.5-0.5,6.9v43.5h-14.6V2342.9z"/>
			<path class="st4" d="M2118.7,2400.7c-21.5,0-38.5-16.1-38.5-41.9c0-27.2,17.7-43.2,39.8-43.2c23,0,38.6,17,38.6,41.7
				c0,30.3-20.7,43.4-39.8,43.4H2118.7z M2119.4,2389.6c13.9,0,24.4-13.3,24.4-31.8c0-13.8-6.8-31.1-24-31.1
				c-17.1,0-24.5,16.1-24.5,31.6c0,17.8,9.9,31.3,24,31.3H2119.4z"/>
			<path class="st4" d="M2175.1,2383.7c4.5,2.7,12.1,5.7,19.4,5.7c10.4,0,15.4-5.2,15.4-12.1c0-7.1-4.1-10.8-14.7-14.8
				c-14.6-5.4-21.4-13.5-21.4-23c0-13.1,10.6-23.9,27.7-23.9c8.1,0,15.2,2.2,19.6,5l-3.5,10.6c-3.2-1.8-9-4.7-16.4-4.7
				c-8.6,0-13.3,5-13.3,11.1c0,6.7,4.6,9.8,15.1,14c13.8,5.2,21.1,12.3,21.1,24.4c0,14.5-11.1,24.5-29.8,24.5
				c-8.8,0-16.9-2.4-22.5-5.7L2175.1,2383.7z"/>
			<path class="st4" d="M2347.1,2279.5v98.3c0,7.2,0.2,15.5,0.7,21h-13.1l-0.7-14.1h-0.3c-4.5,9.1-14.1,16-27.2,16
				c-19.4,0-34.5-16.6-34.5-41.3c-0.2-27.2,16.6-43.7,36-43.7c12.4,0,20.7,5.9,24.2,12.3h0.3v-48.4H2347.1z M2332.6,2350.6
				c0-2-0.2-4.4-0.7-6.4c-2.2-9.2-10.1-17-21.1-17c-15.1,0-24,13.4-24,31.3c0,16.6,8.1,30.3,23.7,30.3c9.8,0,18.7-6.7,21.4-17.8
				c0.5-1.8,0.7-3.9,0.7-6.2V2350.6z"/>
			<path class="st4" d="M2379.6,2360.9c0.3,19.8,12.8,28.1,27.4,28.1c10.4,0,16.9-1.8,22.2-4.2l2.7,10.6c-5.1,2.4-14.1,5.2-26.9,5.2
				c-24.5,0-39.4-16.6-39.4-41c0-24.5,14.4-43.9,37.8-43.9c26.2,0,33,23.4,33,38.3c0,3-0.2,5.2-0.5,6.9H2379.6z M2422.2,2350.3
				c0.2-9.4-3.8-24-20.1-24c-14.9,0-21.2,13.8-22.4,24H2422.2z"/>
			<path class="st4" d="M2508.1,2363.2l-11.6,35.6h-14.9l38-113.3h17.4l38.1,113.3h-15.4l-11.9-35.6H2508.1z M2544.7,2351.8
				l-11.1-32.6c-2.3-7.4-4-14.1-5.6-20.7h-0.5c-1.5,6.6-3.3,13.6-5.5,20.5l-10.9,32.8H2544.7z"/>
			<path class="st4" d="M2606.9,2298v19.5h20.9v11.3h-20.9v43.7c0,10.1,2.8,15.8,10.9,15.8c4,0,6.3-0.3,8.5-1l0.7,11.3
				c-2.8,1-7.3,2-12.9,2c-6.8,0-12.3-2.4-15.7-6.2c-4-4.5-5.6-11.8-5.6-21.3v-44.2h-12.4v-11.3h12.4v-15L2606.9,2298z"/>
			<path class="st4" d="M2651.5,2360.9c0.3,19.8,12.8,28.1,27.3,28.1c10.4,0,16.9-1.8,22.2-4.2l2.7,10.6c-5.1,2.4-14.1,5.2-26.9,5.2
				c-24.5,0-39.4-16.6-39.4-41c0-24.5,14.4-43.9,37.8-43.9c26.2,0,33,23.4,33,38.3c0,3-0.2,5.2-0.5,6.9H2651.5z M2694.1,2350.3
				c0.2-9.4-3.8-24-20.1-24c-14.9,0-21.2,13.8-22.4,24H2694.1z"/>
			<path class="st4" d="M2726.2,2339.5c0-8.6-0.2-15.3-0.7-22h12.9l0.8,13.3h0.3c4-7.6,13.3-15.1,26.5-15.1
				c11.1,0,28.3,6.7,28.3,34.6v48.6h-14.6V2352c0-13.1-4.8-24.2-18.6-24.2c-9.4,0-16.9,6.9-19.6,15.1c-0.7,1.8-1,4.5-1,6.9v49.1
				h-14.6V2339.5z"/>
			<path class="st4" d="M2887.5,2279.5v98.3c0,7.2,0.2,15.5,0.7,21h-13.1l-0.7-14.1h-0.3c-4.5,9.1-14.1,16-27.2,16
				c-19.4,0-34.5-16.6-34.5-41.3c-0.2-27.2,16.6-43.7,36-43.7c12.4,0,20.7,5.9,24.2,12.3h0.3v-48.4H2887.5z M2872.9,2350.6
				c0-2-0.2-4.4-0.7-6.4c-2.2-9.2-10.1-17-21.1-17c-15.1,0-24,13.4-24,31.3c0,16.6,8.1,30.3,23.7,30.3c9.8,0,18.7-6.7,21.4-17.8
				c0.5-1.8,0.7-3.9,0.7-6.2V2350.6z"/>
			<path class="st4" d="M2918.6,2303.7c-5.3,0-8.8-4.2-8.8-9.1c0-5.2,3.7-9.2,9.1-9.2c5.3,0,9,4,9,9.2c0,4.9-3.5,9.1-9.1,9.1H2918.6
				z M2911.7,2398.9v-81.4h14.6v81.4H2911.7z"/>
			<path class="st4" d="M2950.5,2339.5c0-8.6-0.3-15.3-0.7-22h12.8l0.7,13.1h0.5c4.5-7.7,11.9-15,25.4-15c10.8,0,19.1,6.7,22.5,16.3
				h0.3c2.5-4.7,5.8-8.1,9.1-10.6c4.8-3.7,9.9-5.7,17.6-5.7c10.8,0,26.5,7.1,26.5,35.3v47.9h-14.3v-46.1c0-15.8-5.8-25-17.4-25
				c-8.4,0-14.8,6.2-17.4,13.3c-0.7,2.2-1.2,4.9-1.2,7.4v50.4h-14.3V2350c0-12.9-5.6-22.2-16.7-22.2c-9,0-15.7,7.4-18.1,14.8
				c-0.8,2.2-1.2,4.7-1.2,7.2v49.1h-14.3V2339.5z"/>
			<path class="st4" d="M3097,2360.9c0.3,19.8,12.8,28.1,27.3,28.1c10.4,0,16.9-1.8,22.2-4.2l2.7,10.6c-5.1,2.4-14.1,5.2-26.9,5.2
				c-24.5,0-39.4-16.6-39.4-41c0-24.5,14.4-43.9,37.8-43.9c26.2,0,33,23.4,33,38.3c0,3-0.2,5.2-0.5,6.9H3097z M3139.6,2350.3
				c0.2-9.4-3.8-24-20.1-24c-14.9,0-21.2,13.8-22.4,24H3139.6z"/>
			<path class="st4" d="M3171.7,2339.5c0-8.6-0.2-15.3-0.7-22h12.9l0.8,13.3h0.3c4-7.6,13.3-15.1,26.5-15.1
				c11.1,0,28.3,6.7,28.3,34.6v48.6h-14.6V2352c0-13.1-4.8-24.2-18.6-24.2c-9.4,0-16.9,6.9-19.6,15.1c-0.7,1.8-1,4.5-1,6.9v49.1
				h-14.6V2339.5z"/>
			<path class="st4" d="M3280.6,2298v19.5h20.9v11.3h-20.9v43.7c0,10.1,2.8,15.8,10.9,15.8c4,0,6.3-0.3,8.5-1l0.7,11.3
				c-2.8,1-7.3,2-12.9,2c-6.8,0-12.3-2.4-15.7-6.2c-4-4.5-5.6-11.8-5.6-21.3v-44.2h-12.4v-11.3h12.4v-15L3280.6,2298z"/>
			<path class="st4" d="M3349.6,2400.7c-21.5,0-38.5-16.1-38.5-41.9c0-27.2,17.7-43.2,39.8-43.2c23,0,38.6,17,38.6,41.7
				c0,30.3-20.7,43.4-39.8,43.4H3349.6z M3350.2,2389.6c13.9,0,24.4-13.3,24.4-31.8c0-13.8-6.8-31.1-24-31.1
				c-17.1,0-24.5,16.1-24.5,31.6c0,17.8,9.9,31.3,24,31.3H3350.2z"/>
		</g>
		<g>
			<path class="st5" d="M3388.6,784c-6.3,42.9-16.1,75.1-22.5,95.8c-22.2,72.1-48.6,130.9-93.4,197.9
				c-161,240.7-321,482.1-481.5,723.1c-3.9,5.8-5.3,14.8-16,15.4c41.4-157,82.6-313.3,124.4-472.2c-23.6,4.7-44.5,9.2-65.6,13
				c-373.3,67.5-734.3-197.2-782-573.4c-21.9-172.8,21.1-337.1,110.8-468.8c169.7-249,444.4-285,456.5-286.4
				c2-0.2,21.7-2.4,47.5-4.6c32.1-2.8,48.4-4.2,65.3-3.8c19.6,0.4,34.9,2.2,55.6,4.7c0,0,21.8,2.6,42,6.2
				c76.5,13.5,217,51.2,342.9,165.9c0,0,165.2,150,209.4,380.5C3388.9,612.6,3402.7,688.3,3388.6,784z M2919.3,380.2
				c-22.1-12.5-56.6-32.1-103.5-44c-37.8-9.6-77.2-12.9-118-10.1c-290.3,19.8-451.5,342.7-292.1,586.2
				c88.5,135.2,238.4,168.1,259.5,172.9c45,10.3,90.7,12.1,136.8,5.2c85.1-12.6,158.9-48.9,217.6-110.9
				c82.6-87.2,118.8-191.4,103.7-312.1c-2.6-20.9-8.4-62.7-31.5-111.4c-38.9-81.9-100.5-127.5-129.3-148.2
				C2957.7,404.3,2941.7,392.9,2919.3,380.2z"/>
			<path class="st4" d="M562.7,1660c9.1-43.7,26.6-121.8,90.7-193.8c23.7-26.6,52.1-50.1,85.7-70c114.5-67.8,345.7-68.5,455.8,83
				c44.1,60.6,67.1,128.7,75.3,202.3c9.7,86.5,7.5,172.4-19.5,256.1c-52.7,164.1-188.4,252.4-360.8,242.3
				c-33.5-2-112.6-8-187.6-62.9c-111.7-81.7-132.7-212.1-143.1-277.3C545.5,1753.6,557.3,1686,562.7,1660z M1126.2,1764.4
				c-1.4-65.7-6.4-126.1-31.5-182.9c-46.1-104.4-177-146-275.3-87.3c-52.4,31.3-82.2,80-98.2,136.9c-25.5,90.6-23.3,182-1.9,273.2
				c10,42.4,28,81.1,60.3,111.4c90.8,85.1,243.5,57.3,304.6-55.4C1118.2,1897.7,1125.4,1829.3,1126.2,1764.4z"/>
			<path class="st4" d="M2627.7,2076c-83.3,91.7-188.8,117.5-302.3,98.9c-175-28.7-248.8-246.1-134.7-386.5
				c62-76.3,145.1-115.2,240.8-129.2c57.4-8.4,114.7-9.7,170.6,9.6c10,3.5,11.9,0.6,11.6-9c-1-34.2-6.2-67.5-21.2-98.5
				c-23.2-48.1-63.6-73-115.1-78.2c-84.7-8.6-164.7,3.5-231.7,62c-7.9,6.9-9.9,3.1-13.2-3.5c-16.5-33.1-32.8-66.4-50.2-99.1
				c-5.5-10.4,0.7-13.6,7-18c42.1-29.2,89.4-46.5,138.6-58.7c78.7-19.6,157.4-16.1,235.3,3.8c107.8,27.5,164.4,101.3,184,207.5
				c7.1,38.5,9,77.4,9,116.4c0.1,92.7,0,185.5,0,278.2c0,24.4,2.9,48.5,10.8,71.7c5.8,17.2,12.5,36.1,27.6,45.1
				c34.9,20.6,21.9,52.8,24.1,81.5c0.5,6.5-2.9,9.1-9.3,8.9c-43.7-1-87-3.9-125.7-27.5C2655.7,2134.2,2640.2,2107.2,2627.7,2076z
				 M2614,1870.5c0-28.1-0.3-56.3,0.2-84.4c0.1-8.3-2.1-12.8-10.7-14.8c-57.5-13.5-115-18-172.4-0.5
				c-64,19.5-115.8,54.8-142.1,118.7c-37.5,91.3,12.1,169.1,110.1,177.2c84.4,7,150-27,204.5-88.3c7.2-8.1,10.9-16.2,10.6-27.3
				C2613.5,1924.3,2614,1897.4,2614,1870.5z"/>
			<path class="st4" d="M1955.9,1531.9c-60.1-40.7-125-61.4-196.1-58.2c-108.9,4.9-186.7,64.3-219.8,168.8
				c-25.3,79.8-27,161.3-5.3,242.1c27.7,103.6,108.1,166.4,215.2,174.5c78,5.9,146.4-17.1,208.2-62.3c13.3-9.7,17.8-7.4,23.7,6.4
				c12.9,29.9,26.5,59.5,41.5,88.4c6.4,12.4,3.1,17.3-7.7,23.4c-95.6,54.5-199.2,70.4-307.1,62.7c-105.9-7.5-191.9-54.5-257.3-137.8
				c-44.2-56.3-67.1-121.6-75.3-192.1c-9.5-82.2-7-163.9,22-242.1c55.8-150.3,166.6-230.4,324.2-249.6
				c102.6-12.5,196.1,13.6,284.7,63.6c16.3,9.2,17.9,16.5,6.2,31.4C1992.9,1477.3,1974.7,1505.1,1955.9,1531.9z"/>
			<path class="st4" d="M2712.2,1338.8c-7.3-0.2-191.1-279.7-279.7-415c-159.4-243.5,1.8-566.4,292.1-586.2
				c40.8-2.8,80.1,0.6,118,10.1c47.9,12.1,84.3,33,103.5,44c8.5,4.9,15.4,9.2,20.2,12.2c5.5,4.2,11.2,8.4,17.1,12.6
				c1.8,1.3,10.5,8.8,13.3,11.3c123.2,108.1,165,275.1,106.6,425.8c-57.9,149.5-203.3,245-366.7,241.2c-29.3-0.7-57.8-7.2-88.8-12
				C2669.5,1163.4,2715.1,1332.1,2712.2,1338.8z"/>
			<path class="st6" d="M2681.5,1327.2c-7.3-0.2-191.1-279.7-279.7-415c-159.4-243.5,1.8-566.4,292.1-586.2
				c40.8-2.8,80.1,0.6,118,10.1c47.9,12.1,84.3,33,103.5,44c8.5,4.9,15.4,9.2,20.2,12.2c5.5,4.2,11.2,8.4,17.1,12.6
				c1.8,1.3,10.5,8.8,13.3,11.3c123.2,108.1,165,275.1,106.6,425.8c-57.9,149.5-203.3,245-366.7,241.2c-29.3-0.7-57.8-7.2-88.8-12
				C2638.8,1151.9,2684.4,1320.6,2681.5,1327.2z"/>
		</g>
	</g>
</g>
</svg>
