<?xml version="1.0" encoding="utf-8"?>
<!-- Generator: Adobe Illustrator 21.0.0, SVG Export Plug-In . SVG Version: 6.00 Build 0)  -->
<svg version="1.1" id="Camada_1" xmlns="http://www.w3.org/2000/svg" xmlns:xlink="http://www.w3.org/1999/xlink" x="0px" y="0px"
	 viewBox="0 0 500 492" style="enable-background:new 0 0 500 492;" xml:space="preserve">
<style type="text/css">
	.st0{fill-rule:evenodd;clip-rule:evenodd;fill:#FBF49E;}
	.st1{fill-rule:evenodd;clip-rule:evenodd;fill:#32312A;}
	.st2{fill-rule:evenodd;clip-rule:evenodd;fill:#FFFFFF;}
	.st3{fill:none;stroke:#32312A;stroke-width:0.31;}
	.st4{fill-rule:evenodd;clip-rule:evenodd;fill:#D4E8F6;}
	.st5{fill-rule:evenodd;clip-rule:evenodd;fill:#BDD4AF;}
	.st6{fill-rule:evenodd;clip-rule:evenodd;fill:#B9031F;}
	.st7{fill:none;stroke:#32312A;stroke-width:0.707;}
	.st8{fill-rule:evenodd;clip-rule:evenodd;fill:#4F8B3B;}
	.st9{fill:none;stroke:#32312A;stroke-width:0.317;}
	.st10{fill-rule:evenodd;clip-rule:evenodd;fill:#FAEB1E;}
	.st11{fill:none;stroke:#5F605E;stroke-width:0.31;}
	.st12{fill:none;stroke:#32312A;stroke-width:0.277;}
	.st13{fill:none;stroke:#32312A;stroke-width:0.257;}
	.st14{fill:none;stroke:#32312A;stroke-width:0.309;}
	.st15{fill:none;stroke:#32312A;stroke-width:0.308;}
	.st16{fill:#211915;}
</style>
<g>
	<path class="st0" d="M251.7,7.6c14-16.2,27.1,39.2,48.4,42.6c23.1,3.6,44.6-34.9,65.7-24.7c19.4,9.4-3.2,48.8,13.1,62.9
		c13.9,12.1,41.6-15.8,55.5-3.5c12.5,11-12.6,35.6-3.5,49.5c9.6,14.6,45.4,2.5,49,19.6c4.1,19.2-37.7,28.5-34.7,47.9
		c3.6,23.2,48.4,26.7,49.9,50.1c1.2,18.5-43.2,15.4-44.5,33.9c-1.5,21.6,44.1,31.8,38.4,52.7c-5.7,20.8-41.7,14-59.8,25.9
		c-20.1,13.2-34,34-53.3,48.3c-12.5,9.2-26.5,16.8-41.3,21.6c-25.7,8.4-52.3,15.7-79.3,17.9c-20.6,1.6-41.7-1.7-61.7-6.7
		c-19.9-5-40.3-11.2-57.2-22.8c-22.7-15.6-37.3-40.6-59.2-57.3c-16-12.2-45.5-10.3-53.4-28.7c-6.1-14.2,27-24.5,24-39.6
		c-4.4-21.6-42.6-29-42.5-51c0-19.5,37.3-21.7,42.8-40.5c4.6-15.9-24.7-31.8-17.3-46.7c8.5-17.3,43.4-7.9,52.6-24.8
		c10.2-18.7-20.8-50.2-4.3-63.8c18.2-15,49.7,20.9,70.4,9.5c17-9.4-4-48.4,13.8-56.2c17.7-7.7,37.8,42.8,50.4,28.3L251.7,7.6z"/>
	<path class="st1" d="M245.4,467.2l-6.3,3.8l8,9l7-9l-5.1-3.9L245.4,467.2z M233.4,461L226,458l0.5,7.6L233.4,461z M266.2,465.1
		l0.7-7.6l-7.4,2.7L266.2,465.1z M243.3,450.9l0.1,13.1l-6,3.6l-4.5-3.8l4.1-3l-12.4-5l1,14l3.9-3.4l17.4,19.2l17-20l4.3,3.2
		l1.3-14.1l-13.8,5.1l3.7,3l-3.8,4.3l-4.7-3.4l-0.3-13.3L243.3,450.9z"/>
	<path class="st2" d="M172.8,409.1c-3.6,6.7-10.1,17-13.9,24c56.6,25.2,115.5,22.7,173.9,2.3c-3-9.1-5.8-18-8.5-26.9
		C270.8,426.9,223.7,429.8,172.8,409.1"/>
	<path class="st3" d="M172.8,409.1c-3.6,6.7-10.1,17-13.9,24c56.6,25.2,115.5,22.7,173.9,2.3c-3-9.1-5.8-18-8.5-26.9
		C270.8,426.9,223.7,429.8,172.8,409.1z"/>
	<path class="st2" d="M248,147.1c46.9-1.1,86.1,45.4,87.4,103.8c1.3,58.3-35.7,106.5-82.6,107.6c-46.9,1-86.1-45.4-87.4-103.8
		C164.1,196.3,201.1,148.1,248,147.1"/>
	<path class="st3" d="M248,147.1c46.9-1.1,86.1,45.4,87.4,103.8c1.3,58.3-35.7,106.5-82.6,107.6c-46.9,1-86.1-45.4-87.4-103.8
		C164.1,196.3,201.1,148.1,248,147.1z"/>
	<path class="st4" d="M249,172.5c33.6-0.8,61.7,35,62.8,79.8c1,44.8-25.4,81.7-59.1,82.5c-33.6,0.8-61.7-35-62.8-79.8
		C188.9,210.2,215.4,173.2,249,172.5"/>
	<path class="st3" d="M249,172.5c33.6-0.8,61.7,35,62.8,79.8c1,44.8-25.4,81.7-59.1,82.5c-33.6,0.8-61.7-35-62.8-79.8
		C188.9,210.2,215.4,173.2,249,172.5z"/>
	<path class="st1" d="M233.5,254.4c0.6,2.6,1.5,4.4,2.7,5.4c1.3,1.1,2.2,2.7,2.8,4.9c0.3,0.5,0.3,1,0.2,1.5c-0.1,0.6-0.2,1-0.2,1.5
		c-0.3,0.9,0.1,1.4,1,1.5c0.9,0.6,1.8,1.2,2.8,1.7c1,0.4,2,1,3,1.5c0.3,0.2,0.8,0.2,1.3,0.2c0.6,0,1.1-0.2,1.3-0.3
		c0.2-0.2,0.3-0.5,0.3-0.8c0-0.4-0.3-0.6-0.8-0.5c0.5,0.1,0.8,0.3,0.8,0.5c0,0.4-0.1,0.7-0.3,0.8c0.8,0.6,1.3,0.4,1.4-0.6
		c0,0-0.1-0.3-0.3-0.7c-0.2-0.5-0.4-0.6-0.5-0.5c0.5,0.3,0.7,0.8,0.7,1.1c0,0.3,0.2,0.5,0.5,0.3c0.3-0.1,0.3-0.5,0-1
		c-0.3-0.6-0.8-0.8-1.2-0.7c-0.4,0-0.9,0.1-1.3,0.3c-0.4,0.1-0.8,0.2-1.2,0.1c-0.5-0.3-1.3-0.7-2.1-1.2c-0.8-0.5-1.3-1-1.3-1.6
		c-0.3-1.5,0.2-3.3,1.4-5.3c1.2-2,1.6-3.8,1-5.2c0-0.4,0.1-0.5,0.4-0.1c3.2,2.8,5.9,3.5,8,2.3c2.1-1.3,4.2-1.7,5.9-1
		c0.2,1.5,0.4,3,0.5,4.7c0.1,1.6,0.2,3.2,0.3,4.6c0.1,1.1,0.4,2.1,1,3c0.1,0.4,0.4,0.6,0.8,0.8c0.8-0.1,1.8-0.1,2.8-0.1
		c1.1,0,1.7-0.1,1.8-0.3c0-0.3-0.2-0.7-0.9-1c-0.3-0.2-0.8-0.2-1.1-0.1c-0.4,0.1-0.8,0-1.1-0.4c-0.3-0.4-0.5-0.9-0.5-1.6
		c0.1-0.7,0.2-1.3,0.1-1.7c0.3-1.1,0.6-2,0.9-2.6c0.4-0.7,0.6-1.5,0.6-2.5c1.3,0.8,2.6,1.4,3.7,1.9c1.1,0.5,2.3,1,3.3,1.5
		c0.5,0.3,1.2,0.6,2.1,0.9c0.9,0.4,1.6,0.7,1.8,1.1c0.2,0.7,0.5,0.9,1,0.8c0.4-0.1,1-0.1,1.6,0.2c0.7,0.2,1.3,0.3,1.7,0.5
		c0.5,0.1,1.1,0.1,1.9,0c0.7-0.9,0.6-1.5-0.1-1.7c-0.8-0.2-1.6-0.4-2.3-0.6c-1,0-1.7-0.3-1.8-0.6c-0.2-0.3-0.5-0.7-0.8-1
		c-2.4-1.5-4.6-3.4-6.5-5.6c-0.4-0.2-0.6-0.6-0.6-1.2c0-0.1-0.2-0.9-0.5-2.2c-0.3-1.3-0.4-2.2-0.3-2.3c0.5,1.2,1,2.5,1.2,3.8
		c0.2,1.3,1.1,2.5,2.5,3.6c-0.1-0.1-0.3-0.6-0.4-1.1c-0.2-0.5-0.2-0.9-0.2-0.9c0.6,0.8,0.9,1.3,1.1,1.4c0.1-0.2,0.3-1.1,0.4-2.5
		c0.1-1.4,0.2-2.5,0.3-3c0.3,0.3,0.3,1,0.3,2.3c-0.1,1.3-0.3,2.1-0.6,2.5c0.4-0.3,1-1,1.8-2c0.8-1.1,1.2-1.8,1.2-2.4
		c0.1,0.1,0.7,0.6,1.6,1.2c0-0.3-0.1-1.1-0.3-2.2c-0.2-1.2-0.3-1.8-0.3-1.9c0-0.3,0.1-0.1,0.5,0.8c0.5,0.9,0.9,1.4,1.6,1.5
		c0-0.3-0.3-1.2-0.6-2.5c-0.3-1.3-0.5-2.2-0.4-2.6c0.1,0.2,0.3,0.6,0.6,1c0.3,0.5,0.6,1.1,0.7,1.5c0.2-0.2,0.4-0.7,0.5-1.4
		c0.1-0.7,0-1.3-0.1-1.7c0.6,0.9,1.5,1.7,2.4,2.3c-0.2-0.3-0.2-0.8-0.3-1.4c0-0.5,0-1.2-0.1-1.8c-0.5-0.3-0.1,0,1.1,1
		c1.3,1,2.6,0.7,3.7-0.8c0-0.1,0-0.2,0.2-0.3c0.1-0.1,0.2-0.3,0.2-0.6c0.5-0.5,0.8-1.1,0.8-1.5c0.4-0.1,0.6-0.6,0.6-1.2
		c0-0.1-0.7-0.7-2.2-1.8c-0.3-0.4-0.5-0.6-0.6-0.8c-0.1-0.2-0.3-0.4-0.5-0.7c-0.8-1.2-2.5-2-4.7-2.7c0.6-0.1,1.4,0.1,2.1,0.7
		c0.9,0.6,1.8,0.7,2.7,0.3c-0.6-0.3-1.4-0.7-2.3-1.2c-0.9-0.6-1.7-0.8-2.2-0.8c0.5-0.1,1-0.2,1.5-0.5c0.4-0.2,1-0.3,1.6-0.4
		c0.1-0.1-0.5-0.2-1.7-0.1c-1.2,0.1-2.2,0.2-2.5,0.4c0,0-0.1-0.2-0.4-0.4c-0.3-0.3-0.5-0.5-0.6-0.7c-2.5,0.9-3.7,0.7-3.6-0.5
		c-0.6,1-0.8,1.9-0.7,2.5c-1.3-0.2-2.3-0.2-2.7,0c-0.5,0.2-1.5,0.6-2.6,1.1c-0.7,0.3-2.1,0.9-3.7,1.9c-1,0.6-1.9,0.9-2.8,0.9
		c-0.8,0-1.7,0.7-2.5,2.1c-0.9,0.1-1.6,0.3-2.1,0.7c-0.5,0.3-1.5,0.7-3.3,0.9c-3.1,0.4-5.9,0.4-8.3,0.1c-2.4-0.3-5.6-0.1-9.5,0.8
		c-1.8,0.2-3.4,1.2-4.6,3c-1.2,1.8-2.3,3.3-3.2,4.6c-0.6,1-2.2,3.2-4.6,6.7c-2.4,3.4-4.1,6.1-5.1,8c-0.2,0.6-0.7,1-1.3,1.1
		c-0.6,0.1-0.7,0.4-0.3,0.6c0,0.1,0.3,0.3,0.9,0.6c0.6,0.3,0.9,0.3,0.9,0c0-0.3,0.2-1,0.7-1.9c1.1-2,2.7-4.5,4.8-7.1
		c2.1-2.7,4-4.8,5.5-6.2c0.1,0-0.2,1.8-1.1,5.3c-0.8,3.5-1.2,5.4-1.1,5.5c-0.1-0.1-0.1,0.6-0.1,2.1c0,1.4,0,2.4,0.2,2.8
		c0.1,0.9,0.3,1.8,0.3,2.7c0.1,0.2,0.5,0.4,1,0.6l-0.1-0.6c0,0,0,0.1,0,0.2c0,0.1,0,0.2,0,0.3c0.6,0,1.1-0.1,1.5-0.1
		c0-0.1,0-0.2,0-0.2c0.1-0.1,0.1-0.2,0.1-0.2c0-0.5,0-0.6,0-0.3c0,0.3,0,0.5,0,0.6c0.1,0,0.5,0,1,0c0.4-0.8,0.3-1.3-0.5-1.6
		c-0.8-0.3-1.3-0.3-1.5-0.2c0-0.5-0.2-1.2-0.3-1.9c-0.1-0.6,0-1.3,0.2-1.9c0.5-1.1,1.6-2.2,3-3.2c1.4-1,2.6-2.2,3.3-3.4
		c-0.4-0.6-1.3-1.7-2.3-2.9C234.2,257.6,233.6,256.1,233.5,254.4 M281.3,266.6c0.8,0.4,1.2,0.8,1.1,1.1L281.3,266.6z M281.6,266.3
		c0.7,0.2,1.1,0.6,1.2,1.1L281.6,266.3z"/>
	<path class="st5" d="M194,280.1c9.8,37.1,32.2,53.5,60.6,54.9c28.6-2.7,57-31.2,56.8-86.3l-21.9,10.7l-17.2,3.8l-13.1,4.1
		l-21.4,0.1L233,273l-12.1,0.3l-11.6,5C207.9,278.9,197.7,279.3,194,280.1"/>
	<path class="st3" d="M194,280.1c9.8,37.1,32.2,53.5,60.6,54.9c28.6-2.7,57-31.2,56.8-86.3l-21.9,10.7l-17.2,3.8l-13.1,4.1
		l-21.4,0.1L233,273l-12.1,0.3l-11.6,5C207.9,278.9,197.7,279.3,194,280.1z"/>
	<polygon class="st6" points="276.9,295.5 272.4,282.8 267.8,295.7 255.7,295.9 266.3,302.2 260.4,316 273.6,307 285.2,315 
		279.4,301.4 289.7,295.2 	"/>
	<polygon class="st3" points="276.9,295.5 272.4,282.8 267.8,295.7 255.7,295.9 266.3,302.2 260.4,316 273.6,307 285.2,315 
		279.4,301.4 289.7,295.2 	"/>
	<polyline class="st3" points="202.5,297.6 219,295.2 234.5,290.4 244.3,282.7 263.7,282.9 279.8,276.7 297.7,273.3 311.6,264.1 	
		"/>
	
		<rect x="247" y="192.6" transform="matrix(0.9998 -2.231787e-02 2.231787e-02 0.9998 -4.9139 5.634)" class="st1" width="5.9" height="60.8"/>
	
		<rect x="247" y="192.6" transform="matrix(0.9998 -2.231787e-02 2.231787e-02 0.9998 -4.9139 5.634)" class="st7" width="5.9" height="60.8"/>
	<path class="st8" d="M248.7,200.8c-4.6,11-16.1,5.1-6-5.3c-17.1,10-17.8-5.8-0.9-6.8c-15.2-13.7,23.1-17.6,10-2.6
		c0-0.3,11.2-9.8,11.4,0.4l-5.5,2.5c8.7,1.9,13.1,11.7-0.5,8.2c0.7,1.7,7.3,1.9,5.7,7.4C259.3,208.7,249.1,204.2,248.7,200.8"/>
	<path class="st3" d="M248.7,200.8c-4.6,11-16.1,5.1-6-5.3c-17.1,10-17.8-5.8-0.9-6.8c-15.2-13.7,23.1-17.6,10-2.6
		c0-0.3,11.2-9.8,11.4,0.4l-5.5,2.5c8.7,1.9,13.1,11.7-0.5,8.2c0.7,1.7,7.3,1.9,5.7,7.4C259.3,208.7,249.1,204.2,248.7,200.8z"/>
	<path class="st3" d="M199.1,281.7c1.7,0,2.9,0.8,4.3,1.3c7.5,2.7,23.3,0,30.7-0.7c3.2-0.4,6.6-1.3,9.7-1.4"/>
	<path class="st3" d="M222.4,277.5l17.5,0.2c0-0.6,0.8-1.7,1.7-1.7l30.4-0.7"/>
	<line class="st3" x1="246.9" y1="271.4" x2="296.6" y2="269.5"/>
	<line class="st3" x1="270.2" y1="266" x2="305.5" y2="263.2"/>
	<line class="st3" x1="295.4" y1="258.7" x2="307.4" y2="258.4"/>
	<path class="st3" d="M204,287.8c7.5-0.2,15.2,1.1,22.4-0.2l7.5-0.7"/>
	<path class="st3" d="M204.6,292.7c3.8,1.3,8.6,0.4,12.4,0.3c0-1.1,6-0.7,7.2-0.7"/>
	<path class="st3" d="M252.4,280.5c6-0.1,14.1,0.8,19.8-0.7l0-0.3l1.7,0"/>
	<line class="st3" x1="210.2" y1="279.9" x2="230.5" y2="279.8"/>
	<line class="st3" x1="275.1" y1="273.3" x2="294.1" y2="272.8"/>
	<polyline class="st3" points="303.9,254.5 308,254.4 308.5,254.1 	"/>
	<line class="st3" x1="284.3" y1="261.7" x2="305.9" y2="261"/>
	<line class="st3" x1="264.1" y1="268.4" x2="272.7" y2="268.2"/>
	<line class="st3" x1="237.1" y1="272.7" x2="248.9" y2="272.4"/>
	<line class="st3" x1="110.9" y1="194.6" x2="37.3" y2="172.1"/>
	<line class="st3" x1="110.1" y1="200.1" x2="46" y2="183.9"/>
	<line class="st3" x1="116.6" y1="206.7" x2="49.1" y2="194.2"/>
	<line class="st3" x1="116" y1="214.5" x2="50.2" y2="203.5"/>
	<line class="st3" x1="116.1" y1="221.1" x2="45.5" y2="211.1"/>
	<line class="st3" x1="111.5" y1="227.9" x2="36.1" y2="219.9"/>
	<line class="st3" x1="109" y1="234" x2="24.6" y2="229.3"/>
	<line class="st3" x1="106.9" y1="239.5" x2="16.9" y2="236.7"/>
	<line class="st3" x1="111.3" y1="245.8" x2="9.3" y2="246.1"/>
	<line class="st3" x1="103.5" y1="252.5" x2="15.8" y2="254.4"/>
	<line class="st3" x1="103.4" y1="261.5" x2="21.6" y2="264.7"/>
	<line class="st3" x1="109.3" y1="269.8" x2="32.5" y2="275.2"/>
	<line class="st3" x1="108.7" y1="276.9" x2="40.6" y2="285.6"/>
	<line class="st3" x1="113.6" y1="284.4" x2="47" y2="293.3"/>
	<line class="st3" x1="110.4" y1="290.1" x2="48" y2="302.3"/>
	<line class="st3" x1="110.9" y1="296.8" x2="41.6" y2="311.1"/>
	<line class="st3" x1="115.7" y1="304.1" x2="33.9" y2="320.7"/>
	<line class="st3" x1="302" y1="157.9" x2="366.8" y2="41.7"/>
	<line class="st3" x1="291.2" y1="155.2" x2="361.5" y2="27.2"/>
	<line class="st3" x1="286.7" y1="152.5" x2="338.4" y2="37.7"/>
	<line class="st3" x1="281.1" y1="149.4" x2="326.1" y2="44"/>
	<line class="st3" x1="274.5" y1="147.2" x2="312.1" y2="48.7"/>
	<line class="st3" x1="267.1" y1="144.2" x2="300.6" y2="47.8"/>
	<line class="st3" x1="261.5" y1="142.9" x2="290.9" y2="45"/>
	<line class="st3" x1="260.9" y1="139.1" x2="283.6" y2="39.7"/>
	<polyline class="st3" points="273,29.7 258.4,141.7 264.2,20.2 	"/>
	<line class="st3" x1="253.7" y1="141.8" x2="253.5" y2="9.1"/>
	<line class="st3" x1="246.8" y1="141.9" x2="244" y2="20.9"/>
	<line class="st3" x1="238.8" y1="142.6" x2="235.2" y2="32.6"/>
	<line class="st3" x1="231.5" y1="144.3" x2="218.1" y2="49.2"/>
	<line class="st9" x1="235" y1="144.2" x2="226.3" y2="40.8"/>
	<line class="st3" x1="227.2" y1="145.7" x2="208.3" y2="49.1"/>
	<line class="st3" x1="222.6" y1="146.8" x2="197.5" y2="45.1"/>
	<line class="st3" x1="219.4" y1="148.1" x2="186.3" y2="39.4"/>
	<line class="st3" x1="215.9" y1="149.8" x2="175.1" y2="32.7"/>
	<line class="st3" x1="210.5" y1="153.1" x2="164.5" y2="27.4"/>
	<line class="st3" x1="208.2" y1="154" x2="160.3" y2="42.6"/>
	<line class="st3" x1="204.5" y1="154.1" x2="157.1" y2="54.9"/>
	<line class="st3" x1="202" y1="157.2" x2="153.5" y2="71"/>
	<line class="st3" x1="196.3" y1="163" x2="145.6" y2="80.1"/>
	<line class="st3" x1="163.9" y1="124.2" x2="133" y2="81.2"/>
	<line class="st3" x1="157.2" y1="130.1" x2="116.7" y2="80.2"/>
	<line class="st3" x1="150.1" y1="132.8" x2="99.1" y2="77.4"/>
	<line class="st3" x1="183.3" y1="173.7" x2="81.9" y2="72"/>
	<line class="st3" x1="128.7" y1="133.3" x2="85.8" y2="91.4"/>
	<line class="st3" x1="123.7" y1="136.4" x2="85.3" y2="104"/>
	<line class="st3" x1="122.2" y1="141" x2="88.3" y2="117.4"/>
	<line class="st3" x1="120.7" y1="149.3" x2="85.8" y2="126.5"/>
	<line class="st3" x1="119.1" y1="157" x2="82.1" y2="136.2"/>
	<line class="st3" x1="114.8" y1="161.7" x2="72.9" y2="140.2"/>
	<line class="st3" x1="115" y1="171.3" x2="60.1" y2="145"/>
	<line class="st3" x1="111.9" y1="179.9" x2="47.5" y2="151.5"/>
	<line class="st3" x1="108.6" y1="187.8" x2="35.3" y2="159.9"/>
	<line class="st3" x1="340" y1="102.6" x2="368.8" y2="55.9"/>
	<line class="st3" x1="343.1" y1="106" x2="371.6" y2="71.8"/>
	<line class="st3" x1="350.4" y1="113.4" x2="374.5" y2="85.3"/>
	<line class="st3" x1="354.5" y1="118.6" x2="382" y2="91"/>
	<line class="st3" x1="359.3" y1="124.9" x2="391.6" y2="91.2"/>
	<line class="st3" x1="363.9" y1="132.6" x2="412" y2="89.8"/>
	<line class="st3" x1="366.9" y1="141.3" x2="432.6" y2="87.3"/>
	<line class="st3" x1="370.2" y1="146.3" x2="430.7" y2="100.6"/>
	<line class="st3" x1="403.6" y1="132.2" x2="429.9" y2="113.4"/>
	<line class="st3" x1="389.9" y1="152" x2="430.4" y2="125.3"/>
	<line class="st3" x1="393" y1="158.5" x2="429" y2="136.2"/>
	<line class="st3" x1="394.2" y1="166.2" x2="437.3" y2="144.2"/>
	<line class="st3" x1="395.5" y1="174" x2="446.6" y2="149"/>
	<line class="st3" x1="395" y1="181.8" x2="462.1" y2="152.2"/>
	<line class="st3" x1="398.6" y1="188.4" x2="475.7" y2="154.3"/>
	<line class="st3" x1="400" y1="195.7" x2="466.3" y2="168.1"/>
	<line class="st3" x1="402.2" y1="203" x2="455" y2="186.8"/>
	<line class="st3" x1="403.9" y1="210.6" x2="444.8" y2="202"/>
	<line class="st3" x1="404.5" y1="217.7" x2="453" y2="214"/>
	<line class="st3" x1="403.2" y1="225.7" x2="461.8" y2="221.2"/>
	<line class="st3" x1="406" y1="233.2" x2="471.4" y2="230.9"/>
	<line class="st3" x1="406.4" y1="243.8" x2="481.9" y2="241"/>
	<line class="st3" x1="405.2" y1="249.8" x2="488.6" y2="251"/>
	<line class="st3" x1="405" y1="257.2" x2="478" y2="260.1"/>
	<line class="st3" x1="404.1" y1="264.7" x2="467.1" y2="267.5"/>
	<line class="st3" x1="404" y1="270.8" x2="461.6" y2="275.7"/>
	<polyline class="st3" points="403.4,275.4 407.1,275.3 454.4,282.2 	"/>
	<line class="st3" x1="400.6" y1="278.4" x2="450.4" y2="291.7"/>
	<line class="st3" x1="400.8" y1="281.6" x2="458.7" y2="302.7"/>
	<line class="st3" x1="399" y1="286.3" x2="468" y2="316"/>
	<line class="st3" x1="398.9" y1="291.3" x2="484.3" y2="336.1"/>
	<line class="st3" x1="394.6" y1="296" x2="476.5" y2="342"/>
	<line class="st3" x1="391.2" y1="302.1" x2="465.5" y2="348"/>
	<line class="st3" x1="127.7" y1="307.1" x2="28.3" y2="332.6"/>
	<line class="st3" x1="120.2" y1="313.5" x2="33.3" y2="342.4"/>
	<line class="st3" x1="126.5" y1="317.7" x2="44.5" y2="348.2"/>
	<line class="st3" x1="106.3" y1="332.6" x2="61" y2="358.6"/>
	<line class="st3" x1="110" y1="327.6" x2="55.1" y2="351.9"/>
	<line class="st3" x1="129.7" y1="321.6" x2="86.5" y2="354.1"/>
	<line class="st3" x1="389" y1="306.6" x2="456.1" y2="352.2"/>
	<line class="st3" x1="383.6" y1="311.8" x2="445.7" y2="357.3"/>
	<line class="st3" x1="380.4" y1="316" x2="436.3" y2="360.9"/>
	<line class="st3" x1="375.2" y1="320.9" x2="410.3" y2="351.9"/>
	<line class="st3" x1="372" y1="324.4" x2="406.3" y2="360.2"/>
	<line class="st3" x1="365.8" y1="328.5" x2="402.8" y2="369"/>
	<line class="st3" x1="360.1" y1="332.8" x2="398.5" y2="375.8"/>
	<line class="st3" x1="356" y1="337" x2="393.6" y2="383.3"/>
	<line class="st3" x1="349.1" y1="338.1" x2="386.8" y2="390.3"/>
	<line class="st3" x1="342.4" y1="341.9" x2="379.6" y2="394.6"/>
	<line class="st3" x1="335.5" y1="343.7" x2="376.1" y2="401.8"/>
	<line class="st3" x1="328.8" y1="345.9" x2="371.8" y2="406.7"/>
	<line class="st3" x1="319.7" y1="344" x2="362.7" y2="414.7"/>
	<line class="st3" x1="354.9" y1="421.6" x2="313" y2="345.5"/>
	<line class="st3" x1="302.5" y1="345.3" x2="346" y2="427.1"/>
	<line class="st3" x1="334.5" y1="433.3" x2="298.4" y2="347.7"/>
	<line class="st3" x1="294.7" y1="350.1" x2="317" y2="411"/>
	<line class="st3" x1="291.3" y1="351.5" x2="309.9" y2="412.9"/>
	<line class="st3" x1="302.1" y1="415.4" x2="287.9" y2="353.5"/>
	<line class="st3" x1="293.7" y1="417.9" x2="284.2" y2="354.9"/>
	<line class="st3" x1="279.4" y1="358.5" x2="285.7" y2="419.9"/>
	<line class="st3" x1="278.9" y1="420.1" x2="272.7" y2="360.7"/>
	<line class="st3" x1="269.7" y1="421.9" x2="267.4" y2="362.2"/>
	<line class="st3" x1="261.8" y1="363.5" x2="262.9" y2="422.5"/>
	<line class="st3" x1="254.4" y1="363.4" x2="256" y2="422.9"/>
	<line class="st3" x1="250" y1="364" x2="247.6" y2="422.8"/>
	<line class="st3" x1="242.8" y1="363" x2="240.2" y2="423.2"/>
	<line class="st3" x1="237.6" y1="360.8" x2="234.4" y2="424.3"/>
	<line class="st3" x1="231.3" y1="360" x2="226.7" y2="422.4"/>
	<line class="st3" x1="216.5" y1="421.5" x2="225.2" y2="358.8"/>
	<line class="st3" x1="208.3" y1="421.4" x2="219.8" y2="356.8"/>
	<line class="st3" x1="215.9" y1="355.5" x2="201" y2="416.8"/>
	<line class="st3" x1="191.7" y1="414.4" x2="211.4" y2="352.9"/>
	<line class="st3" x1="207.1" y1="349.8" x2="183.5" y2="413"/>
	<line class="st3" x1="175.1" y1="410.5" x2="204.3" y2="348.4"/>
	<line class="st3" x1="158.6" y1="429.9" x2="201" y2="346.2"/>
	<line class="st3" x1="149.4" y1="426" x2="197.5" y2="345.8"/>
	<line class="st3" x1="142" y1="418.6" x2="185.3" y2="348.4"/>
	<line class="st3" x1="133.5" y1="413.2" x2="177.3" y2="344.7"/>
	<line class="st3" x1="125.3" y1="406.5" x2="170" y2="342.8"/>
	<line class="st3" x1="117.1" y1="397.3" x2="160.7" y2="340.7"/>
	<line class="st3" x1="109" y1="386.7" x2="155.3" y2="337.8"/>
	<line class="st3" x1="101.2" y1="381.3" x2="147.5" y2="334.5"/>
	<line class="st3" x1="95.9" y1="372.2" x2="140.9" y2="330.3"/>
	<line class="st3" x1="92.2" y1="363.8" x2="135.9" y2="325.8"/>
	<path class="st2" d="M305.8,445.4l4.8,27.2c48.7-3.8,114.8-72,130.6-121.7c-6.9,5.4-18,17.2-24.6,22.4c-0.4-6.4-1.1-17.9-1.3-24.6
		C384.1,404.4,344.4,439.1,305.8,445.4"/>
	<path class="st3" d="M305.8,445.4l4.8,27.2c48.7-3.8,114.8-72,130.6-121.7c-6.9,5.4-18,17.2-24.6,22.4c-0.4-6.4-1.1-17.9-1.3-24.6
		C384.1,404.4,344.4,439.1,305.8,445.4z"/>
	<path class="st2" d="M189.3,444.8l-3.4,27.4c-47.5-1.7-129.1-80.5-135.3-134.2c6.9,5.1,17.9,21.7,24.6,26.6
		c0.1-6.4,0.6-25.3,0.4-32C98.9,386.2,133.5,425.6,189.3,444.8"/>
	<path class="st3" d="M189.3,444.8l-3.4,27.4c-47.5-1.7-129.1-80.5-135.3-134.2c6.9,5.1,17.9,21.7,24.6,26.6
		c0.1-6.4,0.6-25.3,0.4-32C98.9,386.2,133.5,425.6,189.3,444.8z"/>
	<path class="st8" d="M338.4,233.9c4.5,46.5-7,83.6-39.1,112.8c53.1,5.2,86.4-30.4,97.5-56.6C394.8,276.1,354.9,254.6,338.4,233.9"
		/>
	<path class="st3" d="M338.4,233.9c4.5,46.5-7,83.6-39.1,112.8c53.1,5.2,86.4-30.4,97.5-56.6C394.8,276.1,354.9,254.6,338.4,233.9z"
		/>
	<path class="st10" d="M298.5,160.2l36.6-63.3c16.3,13.6,26.1,31.6,33.2,48.9c4.8-5.2,9.5-10.3,14.5-15.7
		c18.9,53.1,32,119.5,14.1,159.9c-4.8-15.3-46.1-36.7-58.7-55.9C334.3,201.5,310.8,169.8,298.5,160.2"/>
	<path class="st11" d="M298.5,160.2l36.6-63.3c16.3,13.6,26.1,31.6,33.2,48.9c4.8-5.2,9.5-10.3,14.5-15.7
		c18.9,53.1,32,119.5,14.1,159.9c-4.8-15.3-46.1-36.7-58.7-55.9C334.3,201.5,310.8,169.8,298.5,160.2z"/>
	<path class="st8" d="M161.6,233.6c-1.7,14.3-1.6,27.5,0.2,39.8c4.1,27.7,16.6,50.8,39.8,71.4c-43.6,2.6-76.4-20.1-93-49.9
		C113.8,280,142.5,257,161.6,233.6"/>
	<path class="st3" d="M161.6,233.6c-1.7,14.3-1.6,27.5,0.2,39.8c4.1,27.7,16.6,50.8,39.8,71.4c-43.6,2.6-76.4-20.1-93-49.9
		C113.8,280,142.5,257,161.6,233.6z"/>
	<path class="st10" d="M207.9,154.5l-23.4-59.5c-14.9,14.4-29.3,31.5-35.3,49.1l-20.2-15.9C112,190.4,87,247.5,109.3,295.5
		c-1.4-13.3,42.5-46,53.5-65.8C168.7,190.3,193.1,164.7,207.9,154.5"/>
	<path class="st3" d="M207.9,154.5l-23.4-59.5c-14.9,14.4-29.3,31.5-35.3,49.1l-20.2-15.9C112,190.4,87,247.5,109.3,295.5
		c-1.4-13.3,42.5-46,53.5-65.8C168.7,190.3,193.1,164.7,207.9,154.5z"/>
	<polygon class="st6" points="379.2,172.4 374.7,159.7 370.1,172.6 358,172.9 368.7,179.1 362.8,192.9 376,183.9 387.6,191.9 
		381.8,178.3 392,172.1 	"/>
	<polygon class="st3" points="379.2,172.4 374.7,159.7 370.1,172.6 358,172.9 368.7,179.1 362.8,192.9 376,183.9 387.6,191.9 
		381.8,178.3 392,172.1 	"/>
	<polygon class="st6" points="142.4,158.3 138.1,146.3 133.8,158.5 122.3,158.7 132.4,164.6 126.8,177.7 139.3,169.1 150.3,176.7 
		144.8,163.9 154.5,158 	"/>
	<polygon class="st3" points="142.4,158.3 138.1,146.3 133.8,158.5 122.3,158.7 132.4,164.6 126.8,177.7 139.3,169.1 150.3,176.7 
		144.8,163.9 154.5,158 	"/>
	<polygon class="st6" points="182.5,117.4 179.1,107.8 175.6,117.5 166.5,117.7 174.5,122.4 170.1,132.9 180,126.1 188.8,132.1 
		184.4,121.9 192.2,117.2 	"/>
	<polygon class="st3" points="182.5,117.4 179.1,107.8 175.6,117.5 166.5,117.7 174.5,122.4 170.1,132.9 180,126.1 188.8,132.1 
		184.4,121.9 192.2,117.2 	"/>
	<polygon class="st6" points="343,120.2 339.1,109.2 335.1,120.4 324.6,120.6 333.8,126 328.8,137.9 340.2,130.1 350.2,137.1 
		345.2,125.3 354,120 	"/>
	<polygon class="st3" points="343,120.2 339.1,109.2 335.1,120.4 324.6,120.6 333.8,126 328.8,137.9 340.2,130.1 350.2,137.1 
		345.2,125.3 354,120 	"/>
	<polygon class="st2" points="297.8,161.1 340.9,89.3 353,79.3 350.5,60.8 335.3,74.3 333.8,85.6 293.8,156.9 	"/>
	<polygon class="st12" points="297.8,161.1 340.9,89.3 353,79.3 350.5,60.8 335.3,74.3 333.8,85.6 293.8,156.9 	"/>
	<polygon class="st2" points="209.6,154.4 177.8,84.1 167.7,73.7 172.1,57 184.6,71.1 184.7,81.5 213.7,151.1 	"/>
	<polygon class="st13" points="209.6,154.4 177.8,84.1 167.7,73.7 172.1,57 184.6,71.1 184.7,81.5 213.7,151.1 	"/>
	<path class="st6" d="M267,105.8c8.1,1,9.4-1.4,11.5-5.1c0.1-7.1-0.9-14.9-8.5-18.9c-10.8-0.5-21.3,1.7-29.4,11.7
		c-9.2,9.7-8.7,22.7-7.7,29c2.4,8.3,1.8,9,12.9,10.2c10,0.5,20,1,30,1.5c4-1.8,6.1-7,4.1-11.6C277.7,112.1,273.9,112,267,105.8"/>
	<path class="st3" d="M267,105.8c8.1,1,9.4-1.4,11.5-5.1c0.1-7.1-0.9-14.9-8.5-18.9c-10.8-0.5-21.3,1.7-29.4,11.7
		c-9.2,9.7-8.7,22.7-7.7,29c2.4,8.3,1.8,9,12.9,10.2c10,0.5,20,1,30,1.5c4-1.8,6.1-7,4.1-11.6C277.7,112.1,273.9,112,267,105.8z"/>
	<path class="st3" d="M269.6,133.2c-6.6-9.9-20.2-7.4-26.9-1.5"/>
	
		<rect x="251.9" y="133.2" transform="matrix(0.9997 -2.248850e-02 2.248850e-02 0.9997 -3.0383 5.7765)" class="st6" width="6.7" height="9.6"/>
	
		<rect x="251.9" y="133.2" transform="matrix(0.9997 -2.248850e-02 2.248850e-02 0.9997 -3.0383 5.7765)" class="st3" width="6.7" height="9.6"/>
	<path class="st2" d="M257.9,98.5c3.3-0.1,6.1,2.5,6.2,5.8c0.1,3.3-2.6,6-5.9,6.1c-3.3,0.1-6.1-2.5-6.2-5.8
		C251.9,101.3,254.5,98.6,257.9,98.5"/>
	<path class="st3" d="M257.9,98.5c3.3-0.1,6.1,2.5,6.2,5.8c0.1,3.3-2.6,6-5.9,6.1c-3.3,0.1-6.1-2.5-6.2-5.8
		C251.9,101.3,254.5,98.6,257.9,98.5z"/>
	<path class="st8" d="M318.8,380c9.9-6.2,12.1-11.3,11.5-25.8c5.1,1,8.3-0.9,8.5,7.2c15-6.1,31.6-18.9,48.7-34
		c13.2-12.9,22.1-31.3,29.6-47.3c2.9-16.6,4.3-6.8,4.3-45.6c0-10.6-0.4-26.2-0.6-44.6c-8.4-10.8-11.7-25.5-14.2-41
		c-13.6-3.4-12.9-3.9-13.5-8.9c10.1-3.7,14.9,9.1,14.5,5.7c-1.8-17.4-2.8-41.1,3.8-47.2c3.4,6.8,8.4,11.1,6.1,23.3l-6.7,22
		c2.2-3,6.6-5,13.6-5.1c5.6,0.8,9.2,4.6,13.7,8.4c-7.4,0.2-13.9,3.3-23-2l-4.6,3.8c-0.2,13.6,2.5,27.5,12.7,39.2
		c1.4-9.2-1.9-20.6,7.2-30.3c-0.4,4.8,3,10.3,2.9,14.9c-0.1,4.8-5.3,11.4-5.4,16c4.8-2.2,8.4-8.2,13.5-10.6
		c5.5-2.6,12.5-1.7,18.3-4.3c-4.9,17.6-18.7,16.3-32.8,19.1c9.8,10.6,15.4,14.8,7.1,36.6c-4.1-7.9-4-22-6-30.7
		c-0.5-1.8-2.7,1.9-3.3,0.1l-0.2,62.1l8.1,0.1c1.6-9.5-4.4-19.4,22.6-29.9c0.3,11.2-12.1,18.9-17.9,28.2
		c10.3-7.3,20.5-16.3,33.3-17.7c-4,10-15.7,23.1-30.2,22.3c0,1.4-5.4-1.5-5.3,0.6c9.9,7.6,7,22.1,1,25c-4.4-7.7-2.2-16.5-11-23.4
		c-7.2,29.4-16.1,46.1-33.4,64.9c2.6-0.1,4.2-0.8,7-0.8c2.7-2.1,8.6-0.6,11.4-0.7c-1.3-7.6,5.8-19.4,19.7-22.5
		c2,5.9-7.8,15.6-17.6,22.9c8.6-1.3,15-2.6,22.3-0.5c-3.6,5.6-14,16.9-34.5,4c-1.4-0.4-2.7,1.5-4.2,1c13.1,15.6,11.5,27.6,0.7,31.2
		c-3.5-12.1,2.2-24.4-7-31.8c-8.2,6.9-16.7,13-24.6,19.6c-4.8,4-20.2,9.6-25.2,13.7c-0.2,2.5-2,5.3-1.2,7.2
		c16.3-10.3,26-11.2,35.9-7.2c-4.5,7.9-13.9,10.9-31.8,11.5c11.9,3.9,28.9,2.3,36.1,15.3c-13.1-4.1-19.5,11.5-41.4-12.6
		c5.2,12.8,14.2,19.9-1.4,28.1c1.4-11.1-2.7-16-3.8-23.8C329.3,382.3,326.2,380,318.8,380"/>
	<path class="st3" d="M318.8,380c9.9-6.2,12.1-11.3,11.5-25.8c5.1,1,8.3-0.9,8.5,7.2c15-6.1,31.6-18.9,48.7-34
		c13.2-12.9,22.1-31.3,29.6-47.3c2.9-16.6,4.3-6.8,4.3-45.6c0-10.6-0.4-26.2-0.6-44.6c-8.4-10.8-11.7-25.5-14.2-41
		c-13.6-3.4-12.9-3.9-13.5-8.9c10.1-3.7,14.9,9.1,14.5,5.7c-1.8-17.4-2.8-41.1,3.8-47.2c3.4,6.8,8.4,11.1,6.1,23.3l-6.7,22
		c2.2-3,6.6-5,13.6-5.1c5.6,0.8,9.2,4.6,13.7,8.4c-7.4,0.2-13.9,3.3-23-2l-4.6,3.8c-0.2,13.6,2.5,27.5,12.7,39.2
		c1.4-9.2-1.9-20.6,7.2-30.3c-0.4,4.8,3,10.3,2.9,14.9c-0.1,4.8-5.3,11.4-5.4,16c4.8-2.2,8.4-8.2,13.5-10.6
		c5.5-2.6,12.5-1.7,18.3-4.3c-4.9,17.6-18.7,16.3-32.8,19.1c9.8,10.6,15.4,14.8,7.1,36.6c-4.1-7.9-4-22-6-30.7
		c-0.5-1.8-2.7,1.9-3.3,0.1l-0.2,62.1l8.1,0.1c1.6-9.5-4.4-19.4,22.6-29.9c0.3,11.2-12.1,18.9-17.9,28.2
		c10.3-7.3,20.5-16.3,33.3-17.7c-4,10-15.7,23.1-30.2,22.3c0,1.4-5.4-1.5-5.3,0.6c9.9,7.6,7,22.1,1,25c-4.4-7.7-2.2-16.5-11-23.4
		c-7.2,29.4-16.1,46.1-33.4,64.9c2.6-0.1,4.2-0.8,7-0.8c2.7-2.1,8.6-0.6,11.4-0.7c-1.3-7.6,5.8-19.4,19.7-22.5
		c2,5.9-7.8,15.6-17.6,22.9c8.6-1.3,15-2.6,22.3-0.5c-3.6,5.6-14,16.9-34.5,4c-1.4-0.4-2.7,1.5-4.2,1c13.1,15.6,11.5,27.6,0.7,31.2
		c-3.5-12.1,2.2-24.4-7-31.8c-8.2,6.9-16.7,13-24.6,19.6c-4.8,4-20.2,9.6-25.2,13.7c-0.2,2.5-2,5.3-1.2,7.2
		c16.3-10.3,26-11.2,35.9-7.2c-4.5,7.9-13.9,10.9-31.8,11.5c11.9,3.9,28.9,2.3,36.1,15.3c-13.1-4.1-19.5,11.5-41.4-12.6
		c5.2,12.8,14.2,19.9-1.4,28.1c1.4-11.1-2.7-16-3.8-23.8C329.3,382.3,326.2,380,318.8,380z"/>
	<path class="st3" d="M247.2,142.7c49.5-1.1,90.9,47.4,92.3,108.3c1.4,60.9-37.7,111.3-87.2,112.4c-49.5,1.1-90.9-47.4-92.3-108.3
		C158.6,194.2,197.6,143.8,247.2,142.7z"/>
	<path class="st8" d="M180.2,378.5c-9.1-6.7-10.9-11.9-9.5-26.3c-5,0.7-7.9-1.3-8.6,6.7c-14-6.9-29.2-20.5-44.7-36.5
		c-11.9-13.6-19.3-32.4-25.5-48.8c-1.8-16.7-3.7-7-1.4-45.8c0.6-10.6,1.9-26.1,3.2-44.5c8.7-10.4,12.7-24.8,16-40.2
		c13.2-2.6,12.6-3.2,13.4-8.2c-9.5-4.2-14.8,8.3-14.3,4.9c2.8-17.3,5.1-40.8-0.8-47.3c-3.7,6.6-8.7,10.6-7.2,22.9l5.1,22.3
		c-2-3.2-6-5.3-12.7-5.9c-5.4,0.5-9.1,4.1-13.6,7.7c7.1,0.6,13.1,4,22.2-0.8l4.1,4c-0.7,13.5-4,27.3-14.5,38.5
		c-0.8-9.3,3-20.5-5.1-30.6c0.1,4.8-3.5,10.1-3.7,14.7c-0.2,4.8,4.4,11.6,4.3,16.2c-4.5-2.4-7.6-8.7-12.3-11.3
		c-5.1-2.9-11.9-2.3-17.2-5.3c3.7,17.8,16.9,17.3,30.3,20.9c-10,10-15.7,14-9,36.2c4.4-7.7,5.1-21.7,7.6-30.3c0.6-1.8,2.5,2,3.1,0.2
		l-3.5,62l-7.8-0.4c-1-9.5,5.4-19.2-19.8-31.1c-0.9,11.2,10.5,19.5,15.5,29.1c-9.4-7.9-18.7-17.4-30.8-19.5
		c3.2,10.2,13.7,23.9,27.6,23.9c-0.1,1.4,5.2-1.2,5.1,0.9c-10,7.1-8,21.7-2.5,24.9c4.6-7.5,3.1-16.3,11.9-22.8
		c5.2,29.7,12.7,46.9,28.1,66.5c-2.4-0.2-3.9-1-6.6-1.2c-2.5-2.3-8.2-1.1-10.8-1.3c1.7-7.5-4.4-19.7-17.5-23.5
		c-2.3,5.8,6.5,16,15.5,23.8c-8.1-1.8-14.2-3.4-21.3-1.7c3.1,5.8,12.4,17.6,32.8,5.8c1.4-0.3,2.6,1.6,3.9,1.2
		c-13.5,14.8-12.7,26.9-2.5,31.1c4.1-11.9-0.7-24.5,8.6-31.4c7.5,7.3,15.2,13.9,22.4,20.9c4.3,4.3,18.8,10.7,23.4,15
		c0,2.5,1.6,5.4,0.8,7.2c-15-11.1-24.2-12.5-33.9-9.1c3.8,8.1,12.7,11.6,29.8,13.2c-11.7,3.2-27.8,0.8-35.5,13.3
		c12.8-3.4,18,12.5,40.4-10.4c-5.7,12.5-14.8,19.1-0.3,28.1c-0.7-11.1,3.5-15.9,5-23.6C170,380.2,173.1,378.1,180.2,378.5"/>
	<path class="st14" d="M180.2,378.5c-9.1-6.7-10.9-11.9-9.5-26.3c-5,0.7-7.9-1.3-8.6,6.7c-14-6.9-29.2-20.5-44.7-36.5
		c-11.9-13.6-19.3-32.4-25.5-48.8c-1.8-16.7-3.7-7-1.4-45.8c0.6-10.6,1.9-26.1,3.2-44.5c8.7-10.4,12.7-24.8,16-40.2
		c13.2-2.6,12.6-3.2,13.4-8.2c-9.5-4.2-14.8,8.3-14.3,4.9c2.8-17.3,5.1-40.8-0.8-47.3c-3.7,6.6-8.7,10.6-7.2,22.9l5.1,22.3
		c-2-3.2-6-5.3-12.7-5.9c-5.4,0.5-9.1,4.1-13.6,7.7c7.1,0.6,13.1,4,22.2-0.8l4.1,4c-0.7,13.5-4,27.3-14.5,38.5
		c-0.8-9.3,3-20.5-5.1-30.6c0.1,4.8-3.5,10.1-3.7,14.7c-0.2,4.8,4.4,11.6,4.3,16.2c-4.5-2.4-7.6-8.7-12.3-11.3
		c-5.1-2.9-11.9-2.3-17.2-5.3c3.7,17.8,16.9,17.3,30.3,20.9c-10,10-15.7,14-9,36.2c4.4-7.7,5.1-21.7,7.6-30.3c0.6-1.8,2.5,2,3.1,0.2
		l-3.5,62l-7.8-0.4c-1-9.5,5.4-19.2-19.8-31.1c-0.9,11.2,10.5,19.5,15.5,29.1c-9.4-7.9-18.7-17.4-30.8-19.5
		c3.2,10.2,13.7,23.9,27.6,23.9c-0.1,1.4,5.2-1.2,5.1,0.9c-10,7.1-8,21.7-2.5,24.9c4.6-7.5,3.1-16.3,11.9-22.8
		c5.2,29.7,12.7,46.9,28.1,66.5c-2.4-0.2-3.9-1-6.6-1.2c-2.5-2.3-8.2-1.1-10.8-1.3c1.7-7.5-4.4-19.7-17.5-23.5
		c-2.3,5.8,6.5,16,15.5,23.8c-8.1-1.8-14.2-3.4-21.3-1.7c3.1,5.8,12.4,17.6,32.8,5.8c1.4-0.3,2.6,1.6,3.9,1.2
		c-13.5,14.8-12.7,26.9-2.5,31.1c4.1-11.9-0.7-24.5,8.6-31.4c7.5,7.3,15.2,13.9,22.4,20.9c4.3,4.3,18.8,10.7,23.4,15
		c0,2.5,1.6,5.4,0.8,7.2c-15-11.1-24.2-12.5-33.9-9.1c3.8,8.1,12.7,11.6,29.8,13.2c-11.7,3.2-27.8,0.8-35.5,13.3
		c12.8-3.4,18,12.5,40.4-10.4c-5.7,12.5-14.8,19.1-0.3,28.1c-0.7-11.1,3.5-15.9,5-23.6C170,380.2,173.1,378.1,180.2,378.5z"/>
	<polygon class="st2" points="323.6,189 389.2,136.4 404,131.2 408.2,112.9 389.2,120.4 383.8,130.5 321.3,183.7 	"/>
	<polygon class="st15" points="323.6,189 389.2,136.4 404,131.2 408.2,112.9 389.2,120.4 383.8,130.5 321.3,183.7 	"/>
	<polygon class="st2" points="186.9,175.7 128.2,125.9 115.2,121.3 110.8,103.2 127.5,109.9 132.5,119.8 188.6,170.3 	"/>
	<polygon class="st3" points="186.9,175.7 128.2,125.9 115.2,121.3 110.8,103.2 127.5,109.9 132.5,119.8 188.6,170.3 	"/>
	<line class="st3" x1="290.6" y1="266.6" x2="302.6" y2="266.4"/>
	<path class="st1" d="M305.1,345.9c14.2-13.8,26.7-31.4,36.7-58.3c-4.5,23.9-15.1,41.8-29.5,58.6
		C309.9,345.7,307.3,346.2,305.1,345.9"/>
	<path class="st1" d="M320.1,345.4c11.9-13.9,22-30.8,29-56.4c-2.1,22.4-10,39.1-21.9,55.9C324.9,344.6,322.1,345.5,320.1,345.4"/>
	<path class="st1" d="M334.2,342.8c10.6-12.7,19.2-27.8,25.2-51.1c-1.6,20.3-7.4,33.4-17.9,48.7C339.5,340.1,336,342.8,334.2,342.8"
		/>
	<path class="st1" d="M349.9,337.2c8.5-11.7,16.6-24.7,20.3-45.7c0,18.2-4.7,27.5-11.9,41.5C356.4,332.8,351.5,337.2,349.9,337.2"/>
	<path class="st1" d="M367.5,326.8c4.3-8.4,11.2-18.8,11.4-32.6c1.9,11.7-1.8,18-5,27.7C372.7,322,368.5,326.7,367.5,326.8"/>
	<path class="st1" d="M381.1,313.5c3.6-8.7,10.5-23.3,10.6-37c2.9,11.5-0.8,20.3-3.1,30.3C387.4,306.9,382.2,313.2,381.1,313.5"/>
	<path class="st1" d="M323.3,182.7c-1.2-7.5-8.6-13.9-15-23.1c8,5.5,16.5,11.6,18.6,20C326.2,180.1,323.8,182,323.3,182.7"/>
	<polygon class="st8" points="201.6,404.5 324.7,375.9 326.9,380.3 203.8,408.8 	"/>
	<polygon class="st3" points="201.6,404.5 324.7,375.9 326.9,380.3 203.8,408.8 	"/>
	<path class="st1" d="M330.1,176.6c-2.7-10.6-2.8-7.4-13.1-19.7c10.4,8.8,13.2,8.5,17.4,14.4C333.4,172.3,330.8,175.7,330.1,176.6"
		/>
	<path class="st1" d="M338.5,168.5c-2.2-3.3-6.7-7.2-14.7-13.4c7.6,2.6,13.7,5.7,18,10.8C341.2,166.6,339,167.9,338.5,168.5"/>
	<path class="st1" d="M345.3,164c-2.7-4.5-5.7-5.6-13-12c9.2,2.2,10.4,3.7,16.3,9C348,161.9,345.9,163.2,345.3,164"/>
	<path class="st1" d="M350.4,159.4c-2.7-5-4.8-6.1-11.6-11c6.4,3.1,11.6,2.7,15.3,7.6C353.8,156.5,350.7,158.8,350.4,159.4"/>
	<path class="st1" d="M356.4,154.3c-3-4.7-2.4-3.2-9.2-8c6.7,2.6,7.2,0.8,11.3,5.4C358.3,152.4,356.7,153.7,356.4,154.3"/>
	<path class="st1" d="M361,149.1c-2.3-3.5-1.8-2.4-6.8-5.9c5,1.9,5.4,0.6,8.4,4C362.4,147.6,361.2,148.6,361,149.1"/>
	<path class="st1" d="M186.7,168.1c1.4-5.8,7.8-10.3,13.5-17.1c-6.9,3.8-14.2,8.2-16.4,14.5C184.3,165.9,186.2,167.5,186.7,168.1"/>
	<path class="st1" d="M181.3,163c2.7-8,2.7-5.6,11.8-14.5c-9,6.3-11.3,5.9-15.1,10.2C178.7,159.6,180.7,162.3,181.3,163"/>
	<path class="st1" d="M174.6,156.4c2-2.4,5.9-5.2,12.8-9.6c-6.4,1.6-11.6,3.7-15.4,7.5C172.4,154.7,174.2,155.9,174.6,156.4"/>
	<path class="st1" d="M169.2,152.5c2.5-3.3,5-4,11.3-8.6c-7.7,1.3-8.8,2.3-14,6.1C167.1,150.7,168.7,151.9,169.2,152.5"/>
	<path class="st1" d="M165.1,148.7c2.4-3.7,4.3-4.5,10.1-7.9c-5.5,2.1-9.8,1.5-13.1,5.1C162.4,146.3,164.9,148.2,165.1,148.7"/>
	<polygon class="st8" points="175.7,374.4 291.2,408.5 289.4,413.2 173.7,378.8 	"/>
	<polygon class="st3" points="175.7,374.4 291.2,408.5 289.4,413.2 173.7,378.8 	"/>
	<path class="st1" d="M160.4,144.5c2.7-3.5,2.2-2.3,8-5.7c-5.7,1.7-6,0.3-9.7,3.6C158.9,142.9,160.2,144,160.4,144.5"/>
	<path class="st1" d="M156.8,140.2c2-2.6,1.6-1.7,5.9-4.3c-4.2,1.3-4.5,0.2-7.2,2.7C155.7,139,156.7,139.9,156.8,140.2"/>
	<path class="st1" d="M188,344.2c-12.3-13.8-24.2-32.2-33.1-59.3c4.1,24.1,13.3,42,25.9,59C182.8,343.4,186.1,344.5,188,344.2"/>
	<path class="st1" d="M174.8,343.6c-10.3-14-19.9-31.4-26.1-57.3c2,22.6,8.9,39.4,19.3,56.3C169.9,342.3,173.1,343.7,174.8,343.6"/>
	<path class="st1" d="M162.1,340.8c-9.2-12.8-16.7-28-22.1-51.4c1.6,20.5,6.6,33.6,15.8,49C157.6,338.1,160.5,340.8,162.1,340.8"/>
	<path class="st1" d="M148.5,334.1c-7.4-11.7-14.6-24-17.9-45.2c0.1,18.4,4.3,27.7,10.6,41.8C142.8,330.5,147.1,334,148.5,334.1"/>
	<path class="st1" d="M132.2,323.5c-3.7-8.4-8.6-17.8-8.9-31.8c-1.5,11.8,0.3,18.1,3.2,27.9C127.4,319.7,131.3,323.3,132.2,323.5"/>
	<path class="st1" d="M121.8,312.3c-3.1-8.7-9-21.1-9.2-34.9c-2.4,11.6,0.1,15.8,2.3,25.8C115.9,303.4,120.9,312.1,121.8,312.3"/>
	<polygon class="st2" points="198.6,362.2 314.6,380.4 313.1,385.9 196.9,367.1 	"/>
	<polygon class="st3" points="198.6,362.2 314.6,380.4 313.1,385.9 196.9,367.1 	"/>
	<polygon class="st2" points="184.6,384.5 301,369.1 300.9,364.5 184.3,379.7 	"/>
	<polygon class="st3" points="184.6,384.5 301,369.1 300.9,364.5 184.3,379.7 	"/>
	<path class="st6" d="M181.8,349.3c-2.9,5.4-4,16.9,3,17.9c8.6,1.2,9.9-12.2,7.5-16.7c8.9,4.9,6.2,16,2.8,20.2
		c-3.4,2.8-6.7,3.6-10.6,3.9c-6.5-1.5-6.4-4-9.5-7.4C173.7,361.9,173.3,352.5,181.8,349.3"/>
	<path class="st3" d="M181.8,349.3c-2.9,5.4-4,16.9,3,17.9c8.6,1.2,9.9-12.2,7.5-16.7c8.9,4.9,6.2,16,2.8,20.2
		c-3.4,2.8-6.7,3.6-10.6,3.9c-6.5-1.5-6.4-4-9.5-7.4C173.7,361.9,173.3,352.5,181.8,349.3z"/>
	<path class="st6" d="M307,350.8c-2.4,5.6-2.5,17.1,4.5,17.5c8.7,0.5,8.9-13,6-17.3c9.3,4.1,7.5,15.4,4.5,19.8
		c-3.2,3.1-6.3,4.2-10.2,4.8c-6.6-0.9-6.7-3.4-10.1-6.5C300.1,364,298.8,354.6,307,350.8"/>
	<path class="st15" d="M307,350.8c-2.4,5.6-2.5,17.1,4.5,17.5c8.7,0.5,8.9-13,6-17.3c9.3,4.1,7.5,15.4,4.5,19.8
		c-3.2,3.1-6.3,4.2-10.2,4.8c-6.6-0.9-6.7-3.4-10.1-6.5C300.1,364,298.8,354.6,307,350.8z"/>
	<path class="st2" d="M187.2,343.7c3.5-0.1,6.3,2.6,6.4,6.1c0.1,3.4-2.7,6.3-6.1,6.3c-3.5,0.1-6.3-2.6-6.4-6.1
		C181,346.6,183.7,343.8,187.2,343.7"/>
	<path class="st3" d="M187.2,343.7c3.5-0.1,6.3,2.6,6.4,6.1c0.1,3.4-2.7,6.3-6.1,6.3c-3.5,0.1-6.3-2.6-6.4-6.1
		C181,346.6,183.7,343.8,187.2,343.7z"/>
	<path class="st2" d="M312.4,346.2c3.5-0.1,6.3,2.6,6.4,6.1c0.1,3.4-2.7,6.3-6.1,6.3c-3.5,0.1-6.3-2.6-6.4-6.1
		C306.2,349.1,309,346.3,312.4,346.2"/>
	<path class="st3" d="M312.4,346.2c3.5-0.1,6.3,2.6,6.4,6.1c0.1,3.4-2.7,6.3-6.1,6.3c-3.5,0.1-6.3-2.6-6.4-6.1
		C306.2,349.1,309,346.3,312.4,346.2z"/>
	<g>
		<path class="st16" d="M93.7,388.5l-1.3-1.5c0.5-0.6,0.8-1.1,0.9-1.6c0.2-0.8,0-1.5-0.5-2.1c-0.4-0.5-0.8-0.9-1.4-1
			c-0.7-0.2-1.5-0.3-2.5-0.1c-0.9,0.2-2,0.8-3.3,1.7c0.9,0,1.6,0.1,2.3,0.5c0.7,0.4,1.2,0.8,1.7,1.5c0.8,1.1,1,2.3,0.8,3.6
			c-0.3,1.3-1,2.4-2.3,3.3c-0.8,0.6-1.7,0.9-2.7,1.1c-1,0.1-1.8,0-2.7-0.3c-0.8-0.3-1.5-0.9-2.1-1.7c-0.9-1.3-1.2-2.8-0.8-4.3
			c0.4-1.5,1.7-3.1,4-4.7c2.5-1.8,4.7-2.6,6.5-2.5c1.6,0.1,2.9,0.9,3.8,2.2c0.7,1,1,2.1,0.9,3.1C95.2,386.7,94.7,387.6,93.7,388.5
			 M83.4,385.9c-0.6,0.4-1,0.9-1.3,1.5c-0.3,0.6-0.5,1.2-0.5,1.8c0,0.6,0.2,1.1,0.5,1.6c0.5,0.7,1.2,1.1,2.1,1.2
			c0.9,0.1,1.8-0.2,2.7-0.9c0.9-0.6,1.4-1.4,1.6-2.2c0.2-0.8,0-1.6-0.5-2.4c-0.5-0.7-1.2-1.2-2.1-1.3
			C85.2,385.1,84.3,385.3,83.4,385.9"/>
		<rect x="94.2" y="397.5" transform="matrix(0.7725 -0.635 0.635 0.7725 -232.6858 151.6042)" class="st16" width="2" height="6"/>
		<path class="st16" d="M106.1,408.6c-0.3-0.8-0.5-1.5-0.3-2.2c0.1-0.7,0.5-1.3,1-1.8c0.8-0.8,1.8-1.2,3-1.1
			c1.2,0.1,2.2,0.6,3.2,1.6c1,1,1.4,2.1,1.4,3.3c0,1.2-0.4,2.2-1.3,3c-0.5,0.5-1.1,0.8-1.8,0.9c-0.7,0.1-1.4,0-2.1-0.4
			c0.5,0.9,0.6,1.8,0.4,2.7c-0.2,0.9-0.6,1.6-1.3,2.3c-1,0.9-2.2,1.4-3.5,1.3c-1.3-0.1-2.6-0.7-3.7-1.8c-1.1-1.1-1.6-2.4-1.6-3.7
			c0-1.3,0.5-2.5,1.5-3.5c0.8-0.7,1.6-1.1,2.4-1.2C104.4,407.8,105.2,408,106.1,408.6 M102.4,410.6c-0.4,0.4-0.7,0.9-0.9,1.4
			c-0.2,0.6-0.2,1.1-0.1,1.7c0.1,0.6,0.4,1.1,0.9,1.5c0.7,0.7,1.4,1,2.3,1.1c0.9,0,1.6-0.3,2.3-0.9c0.7-0.7,1-1.4,1-2.3
			c0-0.9-0.3-1.7-1-2.4c-0.6-0.7-1.4-1-2.3-1C103.9,409.7,103.1,410,102.4,410.6 M108.2,406c-0.5,0.5-0.8,1.1-0.8,1.8
			c0,0.7,0.3,1.3,0.8,1.9c0.5,0.5,1.1,0.8,1.8,0.9c0.7,0,1.3-0.2,1.8-0.7c0.5-0.5,0.8-1.1,0.8-1.8c0-0.7-0.2-1.3-0.7-1.9
			c-0.5-0.5-1.1-0.8-1.8-0.9C109.3,405.3,108.7,405.5,108.2,406"/>
		
			<rect x="115.8" y="420" transform="matrix(0.6669 -0.7452 0.7452 0.6669 -276.3518 227.9466)" class="st16" width="2" height="6"/>
		<path class="st16" d="M127,438.9l-1.6-1.2l7.6-10c-0.6,0.1-1.4,0.1-2.3,0c-0.9-0.1-1.6-0.2-2.3-0.4l1.2-1.5
			c1.2,0.3,2.3,0.3,3.4,0.2c1.1-0.1,2-0.3,2.7-0.7l1,0.8L127,438.9z"/>
		<path class="st16" d="M133.5,439.1l1.7,0.9c-0.4,0.8-0.5,1.5-0.3,2.1c0.2,0.6,0.5,1.1,1.1,1.5c0.5,0.3,1,0.5,1.6,0.5
			c0.5,0,1.1-0.1,1.5-0.3c0.5-0.2,1-0.6,1.6-1.2c0.6-0.5,1.1-1.2,1.6-1.9c0-0.1,0.1-0.2,0.2-0.3c-0.7,0.3-1.4,0.4-2.2,0.4
			c-0.8,0-1.5-0.3-2.2-0.7c-1.1-0.7-1.8-1.7-2-3.1c-0.2-1.3,0.1-2.6,0.9-3.9c0.9-1.4,2-2.2,3.4-2.5c1.3-0.3,2.6-0.1,3.8,0.7
			c0.9,0.6,1.5,1.3,1.9,2.3c0.4,0.9,0.5,2,0.3,3.1c-0.2,1.1-0.8,2.5-1.9,4.1c-1.1,1.7-2.2,3-3.2,3.7c-1,0.8-2.1,1.2-3.2,1.2
			c-1.1,0.1-2.1-0.2-3.1-0.9c-1.1-0.7-1.7-1.5-2-2.6C132.8,441.3,133,440.2,133.5,439.1 M144.1,437.6c0.6-0.9,0.9-1.9,0.7-2.7
			c-0.1-0.9-0.6-1.6-1.3-2c-0.7-0.5-1.6-0.6-2.5-0.4c-0.9,0.2-1.7,0.8-2.3,1.8c-0.6,0.9-0.8,1.7-0.6,2.6c0.2,0.9,0.6,1.6,1.4,2
			c0.8,0.5,1.6,0.6,2.4,0.4C142.8,439.1,143.5,438.5,144.1,437.6"/>
		<path class="st16" d="M145.8,442c0.9-1.7,1.8-2.9,2.7-3.7c0.9-0.8,1.8-1.3,2.8-1.5c1-0.2,2,0,3,0.6c0.8,0.4,1.3,0.9,1.7,1.6
			c0.4,0.6,0.6,1.3,0.7,2.1c0,0.8,0,1.6-0.3,2.6c-0.2,0.9-0.8,2.1-1.5,3.5c-0.9,1.6-1.8,2.9-2.7,3.7c-0.9,0.8-1.8,1.3-2.8,1.5
			c-1,0.2-2,0-3-0.6c-1.3-0.8-2.1-1.8-2.4-3.2C143.7,446.8,144.3,444.6,145.8,442 M147.6,443c-1.3,2.3-1.9,4-1.7,5
			c0.1,1.1,0.6,1.8,1.4,2.3c0.8,0.4,1.7,0.4,2.6,0c1-0.5,2.1-1.8,3.4-4.1c1.3-2.3,1.9-4,1.8-5c-0.1-1.1-0.6-1.8-1.4-2.3
			c-0.8-0.4-1.6-0.5-2.5-0.1C150,439.3,148.9,440.7,147.6,443"/>
		<path class="st16" d="M163.3,457.7l-0.8,1.7l-9.6-4.5c0.2-0.4,0.4-0.8,0.8-1.1c0.5-0.5,1.2-1,2.1-1.4c0.8-0.4,1.9-0.8,3.4-1.1
			c2.2-0.6,3.7-1.1,4.6-1.6c0.9-0.5,1.5-1.1,1.8-1.8c0.3-0.7,0.4-1.4,0.1-2.1c-0.3-0.7-0.8-1.3-1.6-1.6c-0.9-0.4-1.7-0.5-2.4-0.2
			c-0.8,0.3-1.4,0.9-1.8,1.8l-1.7-1c0.8-1.3,1.7-2.1,2.9-2.5c1.2-0.3,2.4-0.2,3.8,0.5c1.4,0.6,2.3,1.6,2.8,2.7
			c0.4,1.2,0.4,2.3-0.1,3.4c-0.3,0.6-0.7,1.1-1.2,1.5c-0.5,0.5-1.2,0.9-2,1.2c-0.8,0.4-2.1,0.8-3.9,1.3c-1.5,0.4-2.5,0.7-2.9,0.9
			c-0.5,0.2-0.9,0.4-1.2,0.6L163.3,457.7z"/>
		<path class="st16" d="M190.8,438.7l-1.9-0.5l3.4-12.1c-0.6,0.3-1.3,0.6-2.2,0.8c-0.9,0.2-1.6,0.4-2.3,0.4l0.5-1.8
			c1.2-0.2,2.3-0.5,3.3-1c1-0.5,1.7-1,2.3-1.6l1.2,0.3L190.8,438.7z"/>
		<path class="st16" d="M196.9,435.9l2.1,0.2c-0.1,1,0.1,1.8,0.6,2.4c0.4,0.6,1,1,1.8,1.2c0.9,0.2,1.8,0,2.6-0.6
			c0.8-0.6,1.3-1.4,1.5-2.6c0.2-1.1,0.1-2-0.4-2.8c-0.5-0.8-1.2-1.2-2.2-1.5c-0.6-0.1-1.2-0.1-1.8,0.1c-0.6,0.2-1,0.5-1.4,0.9
			l-1.8-0.6l3.2-7.7l7.8,1.6l-0.4,1.8l-6.3-1.3l-1.7,4c1.1-0.5,2.1-0.6,3.2-0.4c1.4,0.3,2.4,1,3.2,2.1c0.7,1.1,1,2.5,0.7,4
			c-0.3,1.4-1,2.6-2,3.4c-1.3,1.1-2.8,1.4-4.5,1.1c-1.4-0.3-2.5-0.9-3.2-1.9C197.1,438.5,196.8,437.3,196.9,435.9"/>
		
			<rect x="216.8" y="434.9" transform="matrix(0.1202 -0.9928 0.9928 0.1202 -243.1389 601.5775)" class="st16" width="2" height="6"/>
		<path class="st16" d="M238.5,433.2l-2,0.1c-0.1-0.8-0.4-1.4-0.7-1.7c-0.5-0.6-1.2-0.9-1.9-0.9c-0.6,0-1.2,0.1-1.7,0.5
			c-0.6,0.4-1.2,1.1-1.6,1.9c-0.4,0.9-0.6,2.1-0.7,3.7c0.5-0.7,1.1-1.2,1.8-1.5c0.7-0.3,1.4-0.5,2.2-0.4c1.3,0.1,2.4,0.6,3.3,1.6
			c0.9,1,1.3,2.3,1.2,3.8c0,1-0.3,1.9-0.8,2.8c-0.5,0.8-1.1,1.5-1.9,1.9c-0.8,0.4-1.6,0.6-2.6,0.6c-1.6-0.1-2.9-0.7-3.9-2
			c-1-1.3-1.4-3.3-1.3-6c0.1-3.1,0.8-5.3,2-6.7c1.1-1.2,2.4-1.7,4.1-1.7c1.3,0.1,2.3,0.5,3,1.2C238,430.9,238.4,431.9,238.5,433.2
			 M230.2,439.7c0,0.7,0.1,1.3,0.3,2c0.3,0.6,0.6,1.1,1.1,1.5c0.5,0.3,1,0.5,1.6,0.6c0.8,0,1.6-0.3,2.2-0.9c0.6-0.6,1-1.5,1-2.7
			c0-1.1-0.2-2-0.8-2.7c-0.6-0.7-1.3-1-2.2-1.1c-0.9,0-1.7,0.2-2.3,0.9C230.6,437.8,230.2,438.7,230.2,439.7"/>
		
			<rect x="245.9" y="438.4" transform="matrix(0.9997 -2.443880e-02 2.443880e-02 0.9997 -10.6636 6.2149)" class="st16" width="6" height="2"/>
		<path class="st16" d="M267,444.1l-2,0.2l-1.1-12.5c-0.4,0.5-1,1-1.7,1.5c-0.7,0.5-1.4,0.9-2,1.2l-0.2-1.9c1-0.6,1.9-1.3,2.7-2.1
			c0.8-0.8,1.3-1.6,1.5-2.3l1.3-0.1L267,444.1z"/>
		<path class="st16" d="M271.9,439.9l1.8-0.4c0.3,0.9,0.7,1.5,1.2,1.8c0.5,0.3,1.1,0.4,1.8,0.4c0.6-0.1,1.1-0.3,1.5-0.6
			c0.4-0.3,0.7-0.8,1-1.2c0.2-0.5,0.4-1.2,0.5-2c0.1-0.8,0.1-1.6,0-2.4c0-0.1,0-0.2-0.1-0.4c-0.3,0.7-0.8,1.3-1.4,1.7
			c-0.6,0.5-1.3,0.8-2.1,0.9c-1.3,0.2-2.5-0.1-3.5-1c-1-0.8-1.7-2-1.9-3.6c-0.2-1.6,0.1-3,0.9-4.1c0.8-1.1,1.9-1.8,3.4-2
			c1-0.1,2,0,2.9,0.4c0.9,0.4,1.7,1.1,2.3,2.1c0.6,1,1,2.4,1.3,4.4c0.3,2,0.3,3.7,0,4.9c-0.3,1.3-0.8,2.3-1.6,3
			c-0.8,0.7-1.8,1.2-2.9,1.4c-1.2,0.2-2.3,0-3.2-0.6C272.8,442,272.2,441.1,271.9,439.9 M278.9,431.7c-0.2-1.1-0.6-2-1.3-2.5
			c-0.7-0.6-1.4-0.8-2.3-0.7c-0.9,0.1-1.6,0.6-2.1,1.4c-0.5,0.8-0.7,1.8-0.6,2.9c0.1,1,0.6,1.8,1.3,2.3c0.7,0.5,1.5,0.8,2.4,0.6
			c0.9-0.1,1.6-0.5,2.1-1.3C278.9,433.8,279.1,432.9,278.9,431.7"/>
		<path class="st16" d="M292.3,428l-1.9,0.5c-0.3-0.7-0.7-1.2-1-1.5c-0.6-0.5-1.3-0.6-2.1-0.5c-0.6,0.1-1.1,0.4-1.5,0.8
			c-0.5,0.6-0.9,1.3-1.1,2.2c-0.2,0.9-0.2,2.2,0.1,3.7c0.3-0.8,0.8-1.4,1.4-1.9c0.6-0.5,1.3-0.8,2-0.9c1.3-0.2,2.5,0,3.6,0.8
			c1.1,0.8,1.8,1.9,2,3.4c0.2,1,0.1,1.9-0.1,2.9c-0.3,0.9-0.7,1.7-1.4,2.3c-0.7,0.6-1.5,1-2.4,1.1c-1.6,0.3-3-0.1-4.3-1.1
			c-1.2-1-2.1-2.9-2.6-5.6c-0.6-3-0.4-5.4,0.5-7c0.8-1.4,2-2.2,3.6-2.5c1.2-0.2,2.3-0.1,3.2,0.5C291.3,426,292,426.9,292.3,428
			 M285.7,436.3c0.1,0.7,0.4,1.3,0.8,1.8c0.4,0.6,0.9,0.9,1.4,1.2c0.6,0.2,1.1,0.3,1.7,0.2c0.8-0.2,1.5-0.6,1.9-1.4
			c0.5-0.8,0.6-1.7,0.4-2.9c-0.2-1.1-0.7-1.9-1.3-2.4c-0.7-0.5-1.5-0.7-2.4-0.5c-0.9,0.2-1.6,0.6-2.1,1.4
			C285.7,434.4,285.5,435.3,285.7,436.3"/>
		<path class="st16" d="M306.3,435.4l0.4,1.8l-10.3,2.4c-0.1-0.5-0.1-0.9-0.1-1.4c0.1-0.8,0.4-1.5,0.8-2.4c0.4-0.8,1.1-1.8,2-2.9
			c1.4-1.8,2.3-3.1,2.7-4.1c0.4-1,0.5-1.8,0.4-2.5c-0.2-0.8-0.6-1.3-1.3-1.7c-0.7-0.4-1.4-0.5-2.3-0.3c-0.9,0.2-1.6,0.7-2,1.3
			c-0.4,0.7-0.5,1.5-0.3,2.5l-2,0.2c-0.2-1.5,0.1-2.7,0.8-3.7c0.7-1,1.8-1.6,3.3-2c1.5-0.3,2.8-0.2,3.8,0.4c1.1,0.6,1.7,1.6,2,2.8
			c0.1,0.6,0.2,1.3,0,1.9c-0.1,0.7-0.4,1.4-0.8,2.2c-0.4,0.8-1.2,1.9-2.3,3.4c-0.9,1.2-1.5,2.1-1.8,2.5c-0.2,0.4-0.4,0.8-0.6,1.2
			L306.3,435.4z"/>
		<path class="st16" d="M333.8,456.7l0.7,1.8l-9.9,3.8c-0.2-0.4-0.3-0.9-0.3-1.4c0-0.8,0.1-1.6,0.4-2.5c0.3-0.9,0.8-1.9,1.5-3.2
			c1.1-2,1.8-3.4,2.1-4.4c0.3-1,0.3-1.8,0-2.5c-0.3-0.7-0.8-1.2-1.5-1.5c-0.7-0.3-1.5-0.3-2.3,0c-0.9,0.3-1.5,0.9-1.8,1.6
			c-0.3,0.7-0.3,1.6,0,2.5l-2,0.5c-0.4-1.5-0.3-2.7,0.2-3.8c0.6-1.1,1.5-1.9,3-2.4c1.4-0.6,2.7-0.6,3.9-0.1c1.1,0.5,1.9,1.3,2.4,2.5
			c0.2,0.6,0.3,1.2,0.3,1.9c0,0.7-0.2,1.4-0.5,2.3c-0.3,0.9-0.9,2.1-1.8,3.7c-0.7,1.4-1.2,2.3-1.4,2.7c-0.2,0.4-0.3,0.9-0.4,1.3
			L333.8,456.7z"/>
		<path class="st16" d="M342.5,454.6l-1.7-3.4l-6.2,3.1l-0.8-1.6l1.9-12.6l1.4-0.7l4.6,9.3l1.9-1l0.8,1.6l-1.9,1l1.7,3.4
			L342.5,454.6z M340,449.5l-3.2-6.5l-1.3,8.7L340,449.5z"/>
		
			<rect x="349.7" y="441.1" transform="matrix(0.8415 -0.5402 0.5402 0.8415 -182.9099 260.5815)" class="st16" width="6" height="2"/>
		<path class="st16" d="M370.7,436.3l-1.5,1.2l-7.7-9.9c-0.1,0.6-0.3,1.4-0.6,2.2c-0.3,0.8-0.7,1.5-1,2.1l-1.2-1.5
			c0.5-1.1,0.9-2.2,1.1-3.3c0.2-1.1,0.2-2,0-2.8l1-0.8L370.7,436.3z"/>
		
			<rect x="374.3" y="421.8" transform="matrix(0.7302 -0.6833 0.6833 0.7302 -187.0633 371.916)" class="st16" width="6" height="2"/>
		<path class="st16" d="M394,414l-1.3,1.5l-9.3-8.4c0,0.7-0.1,1.4-0.2,2.3c-0.2,0.9-0.4,1.6-0.6,2.2l-1.4-1.3
			c0.4-1.2,0.5-2.3,0.6-3.4c0-1.1-0.1-2-0.4-2.7l0.9-0.9L394,414z"/>
		<path class="st16" d="M394.7,407.6l1.1-1.6c0.8,0.4,1.5,0.6,2.1,0.5c0.6-0.1,1.1-0.4,1.6-1c0.4-0.5,0.6-1,0.7-1.5
			c0.1-0.5,0-1.1-0.2-1.6c-0.2-0.5-0.5-1.1-1-1.7c-0.5-0.6-1.1-1.2-1.7-1.7c-0.1-0.1-0.2-0.1-0.3-0.2c0.2,0.7,0.3,1.4,0.2,2.2
			c-0.1,0.8-0.4,1.5-0.9,2.1c-0.8,1-1.9,1.6-3.2,1.7c-1.3,0.1-2.6-0.3-3.8-1.3c-1.3-1-2-2.2-2.1-3.6c-0.2-1.4,0.2-2.6,1.1-3.7
			c0.7-0.8,1.5-1.4,2.5-1.7c1-0.3,2-0.3,3.1,0c1.1,0.3,2.4,1.1,3.9,2.3c1.6,1.3,2.7,2.5,3.4,3.6c0.7,1.1,1,2.2,0.9,3.3
			c-0.1,1.1-0.5,2.1-1.2,3c-0.8,1-1.7,1.6-2.7,1.7C396.9,408.5,395.8,408.3,394.7,407.6 M394.3,396.9c-0.9-0.7-1.8-1-2.7-1
			c-0.9,0.1-1.6,0.4-2.1,1.1c-0.6,0.7-0.8,1.5-0.6,2.4c0.1,1,0.7,1.8,1.5,2.5c0.8,0.6,1.6,0.9,2.5,0.8c0.9-0.1,1.6-0.5,2.2-1.2
			c0.6-0.7,0.8-1.5,0.7-2.3C395.7,398.4,395.2,397.6,394.3,396.9"/>
		<path class="st16" d="M398.9,395.7c-1.5-1.1-2.6-2.2-3.4-3.2c-0.7-1-1.1-2-1.1-3c-0.1-1,0.3-2,0.9-2.9c0.5-0.7,1.1-1.2,1.7-1.5
			c0.7-0.3,1.4-0.5,2.2-0.4c0.8,0,1.6,0.2,2.5,0.6c0.9,0.4,2,1,3.3,1.9c1.5,1.1,2.6,2.2,3.3,3.1c0.7,1,1.1,2,1.1,3
			c0.1,1-0.3,2-1,2.9c-0.9,1.2-2.1,1.9-3.5,2C403.4,398.4,401.3,397.5,398.9,395.7 M400.1,394.1c2.1,1.5,3.7,2.3,4.8,2.3
			c1.1,0,1.9-0.3,2.4-1.1c0.5-0.7,0.6-1.6,0.3-2.6c-0.3-1-1.6-2.3-3.7-3.8c-2.1-1.6-3.7-2.3-4.8-2.3c-1.1,0-1.9,0.4-2.4,1.1
			c-0.5,0.7-0.7,1.5-0.4,2.4C396.7,391.2,398,392.6,400.1,394.1"/>
		<path class="st16" d="M409.1,387.9l0.9-1.8c1.1,0.4,1.9,0.5,2.6,0.4c0.7-0.2,1.3-0.6,1.7-1.3c0.5-0.8,0.7-1.6,0.5-2.5
			c-0.2-0.9-0.7-1.6-1.5-2.1c-0.8-0.5-1.5-0.7-2.4-0.5c-0.8,0.2-1.5,0.6-2,1.4c-0.2,0.3-0.4,0.7-0.6,1.3l-1.3-1.1
			c0.1-0.1,0.1-0.2,0.2-0.3c0.5-0.7,0.7-1.5,0.7-2.3s-0.4-1.5-1.1-1.9c-0.6-0.4-1.2-0.5-1.9-0.4c-0.7,0.2-1.2,0.6-1.6,1.2
			c-0.4,0.6-0.6,1.3-0.4,2c0.1,0.7,0.5,1.4,1.3,2l-1.4,1.5c-1-0.9-1.5-1.9-1.7-3.1c-0.1-1.1,0.1-2.2,0.8-3.3
			c0.5-0.7,1.1-1.3,1.8-1.7c0.7-0.4,1.5-0.6,2.2-0.6c0.8,0,1.4,0.2,2,0.6c0.6,0.4,1,0.9,1.3,1.5c0.3,0.6,0.3,1.3,0.2,2.1
			c0.7-0.7,1.5-1,2.3-1.1c0.9-0.1,1.7,0.2,2.6,0.8c1.2,0.8,1.9,1.8,2.1,3.2c0.3,1.4,0,2.7-0.9,4c-0.8,1.2-1.8,1.9-3,2.2
			C411.5,388.7,410.3,388.5,409.1,387.9"/>
		<polygon class="st16" points="193.6,295.3 178.5,300.5 177.5,297.5 185.4,287.8 175.3,291.3 174.3,288.5 189.4,283.2 190.5,286.3 
			182.8,295.8 192.6,292.4 		"/>
		<polygon class="st16" points="188.6,280 172.9,283 170.7,271.3 173.4,270.8 175,279.3 178.5,278.7 177,270.8 179.6,270.3 
			181.1,278.2 185.4,277.4 183.7,268.6 186.4,268.1 		"/>
		<path class="st16" d="M179.7,255.4l0.9-3.2c1.8,0.4,3.1,1.1,4,2.2c0.9,1.1,1.4,2.5,1.5,4.2c0.1,2.1-0.5,3.9-1.9,5.3
			c-1.4,1.4-3.3,2.2-5.9,2.3c-2.7,0.1-4.8-0.5-6.3-1.8c-1.5-1.3-2.4-3.1-2.5-5.3c-0.1-2,0.4-3.6,1.5-4.9c0.6-0.8,1.6-1.3,2.9-1.8
			l0.9,3.2c-0.8,0.2-1.5,0.7-1.9,1.3c-0.5,0.6-0.7,1.4-0.6,2.2c0.1,1.2,0.5,2.1,1.4,2.8c0.9,0.7,2.3,1,4.2,0.9
			c2-0.1,3.4-0.5,4.3-1.3c0.8-0.8,1.2-1.7,1.2-2.9c0-0.9-0.3-1.6-0.9-2.2C181.8,256.1,180.9,255.7,179.7,255.4"/>
		<polygon class="st16" points="186.1,242.8 170.4,240.6 170.8,237.4 183.9,239.3 185,231.3 187.7,231.7 		"/>
		<path class="st16" d="M172.7,225.1l0.9-3.1l8.3,2.4c1.3,0.4,2.2,0.6,2.6,0.6c0.7,0.1,1.3-0.1,1.8-0.5c0.5-0.4,0.9-1,1.2-1.9
			c0.3-0.9,0.3-1.6,0-2.2c-0.2-0.6-0.6-1-1.1-1.2c-0.5-0.2-1.4-0.5-2.6-0.9l-8.5-2.5l0.9-3.1l8.1,2.4c1.8,0.5,3.1,1,3.8,1.4
			c0.7,0.4,1.3,0.9,1.7,1.5c0.4,0.6,0.6,1.3,0.7,2.2c0.1,0.8,0,1.9-0.4,3.1c-0.4,1.5-0.9,2.5-1.5,3.2c-0.6,0.7-1.2,1.1-1.8,1.4
			c-0.7,0.3-1.3,0.4-2,0.4c-0.9-0.1-2.3-0.3-4-0.8L172.7,225.1z"/>
		<path class="st16" d="M191.9,202.4l2.3-2.4c1.4,1.2,2.2,2.5,2.5,3.8c0.3,1.4,0.1,2.8-0.7,4.4c-0.9,1.9-2.3,3.2-4.2,3.8
			c-1.9,0.6-4,0.4-6.3-0.7c-2.4-1.2-4-2.7-4.7-4.5c-0.7-1.9-0.6-3.8,0.4-5.9c0.8-1.8,2.1-3,3.6-3.6c0.9-0.4,2.1-0.4,3.4-0.2
			l-0.7,3.2c-0.8-0.2-1.6-0.1-2.3,0.2c-0.7,0.3-1.2,0.9-1.6,1.7c-0.5,1.1-0.5,2.1-0.1,3.2c0.5,1,1.5,2,3.3,2.8
			c1.8,0.9,3.3,1.2,4.4,0.9c1.1-0.3,1.9-1,2.4-2c0.4-0.8,0.4-1.6,0.2-2.4C193.5,204,192.9,203.2,191.9,202.4"/>
		<polygon class="st16" points="200,200 187,190.6 193.9,181 196.1,182.5 191.1,189.6 193.9,191.6 198.6,185.1 200.8,186.7 
			196.1,193.2 199.7,195.8 204.9,188.5 207.1,190.1 		"/>
		<path class="st16" d="M202.8,182.8c-1.1-1.2-1.8-2.4-2.2-3.5c-0.3-0.9-0.4-1.7-0.4-2.6c0-0.9,0.2-1.7,0.6-2.5
			c0.5-1,1.2-1.9,2.1-2.8c1.8-1.6,3.6-2.3,5.7-2.2c2,0.1,3.9,1.2,5.7,3.1c1.7,1.9,2.6,3.9,2.5,5.9c-0.1,2-1,3.8-2.7,5.4
			c-1.8,1.6-3.7,2.3-5.7,2.2C206.3,185.7,204.5,184.7,202.8,182.8 M205.2,180.5c1.2,1.3,2.4,2.1,3.7,2.2c1.3,0.1,2.4-0.2,3.3-1.1
			c1-0.9,1.4-1.9,1.4-3.2c0-1.2-0.6-2.6-1.9-3.9c-1.2-1.4-2.4-2.1-3.6-2.2c-1.2-0.1-2.3,0.3-3.3,1.1c-1,0.9-1.5,2-1.5,3.2
			C203.3,177.8,203.9,179.1,205.2,180.5"/>
		<path class="st16" d="M226.8,174.1l-5.8-15l4.8-1.9c1.8-0.7,3.1-1.1,3.7-1.2c0.9-0.1,1.9,0.1,2.7,0.6c0.9,0.5,1.5,1.4,2,2.6
			c0.4,0.9,0.5,1.8,0.4,2.5c-0.1,0.8-0.3,1.4-0.7,2c-0.4,0.6-0.8,1-1.3,1.3c-0.7,0.4-1.7,0.9-3.1,1.4l-2,0.8l2.2,5.6L226.8,174.1z
			 M225,160.5l1.6,4.2l1.6-0.6c1.2-0.5,2-0.8,2.3-1.2c0.3-0.3,0.6-0.7,0.7-1.1c0.1-0.4,0.1-0.9-0.1-1.3c-0.2-0.5-0.5-0.9-1-1.2
			c-0.5-0.2-0.9-0.3-1.5-0.2c-0.4,0.1-1.1,0.3-2.2,0.7L225,160.5z"/>
		<polygon class="st16" points="240.4,169.3 238.9,153.5 242.1,153.2 243.4,166.3 251.4,165.5 251.6,168.2 		"/>
		<path class="st16" d="M256.2,152.5l3.2,0.6l-1.6,8.5c-0.3,1.4-0.4,2.2-0.4,2.7c0,0.7,0.2,1.3,0.7,1.7c0.4,0.5,1.1,0.8,2,1
			c0.9,0.2,1.6,0.1,2.1-0.2c0.5-0.3,0.9-0.7,1.1-1.2c0.2-0.5,0.4-1.4,0.6-2.7l1.6-8.7l3.2,0.6l-1.6,8.3c-0.4,1.9-0.7,3.2-1,4
			c-0.3,0.7-0.8,1.3-1.3,1.8c-0.6,0.5-1.3,0.8-2.1,0.9c-0.8,0.2-1.9,0.1-3.1-0.1c-1.5-0.3-2.6-0.7-3.3-1.2c-0.7-0.5-1.2-1.1-1.6-1.7
			c-0.3-0.6-0.5-1.3-0.6-1.9c0-0.9,0.1-2.3,0.4-4.1L256.2,152.5z"/>
		<path class="st16" d="M268.5,171.6l7.4-14.2l6,3.1c1.5,0.8,2.6,1.5,3.1,2.1c0.6,0.6,0.9,1.4,0.9,2.2c0.1,0.9-0.1,1.7-0.5,2.6
			c-0.6,1.1-1.3,1.8-2.3,2.2s-2.2,0.3-3.5-0.2c0.4,0.7,0.7,1.3,0.9,2c0.2,0.6,0.3,1.7,0.4,3.2l0.3,3.7l-3.4-1.8l-0.5-4.2
			c-0.2-1.5-0.3-2.4-0.4-2.9c-0.1-0.4-0.3-0.8-0.6-1c-0.2-0.3-0.7-0.6-1.4-0.9l-0.6-0.3l-3.1,5.9L268.5,171.6z M275.7,164.9l2.1,1.1
			c1.4,0.7,2.3,1.1,2.7,1.2c0.4,0.1,0.8,0,1.1-0.2c0.3-0.2,0.6-0.5,0.8-0.9c0.3-0.5,0.3-0.9,0.2-1.4c-0.1-0.4-0.4-0.8-0.8-1.1
			c-0.2-0.2-0.9-0.5-2.1-1.1l-2.2-1.2L275.7,164.9z"/>
		
			<rect x="280.3" y="172.5" transform="matrix(0.6154 -0.7882 0.7882 0.6154 -26.3828 294.2575)" class="st16" width="16" height="3.2"/>
		<path class="st16" d="M298.8,172.3l4.4,4.7c0.9,0.9,1.5,1.7,1.8,2.2c0.3,0.5,0.6,1.1,0.6,1.7c0.1,0.6,0,1.2-0.1,1.8
			c-0.2,0.6-0.5,1.2-1,1.6c-0.6,0.5-1.2,0.8-1.9,1c-0.7,0.1-1.5,0-2.2-0.2c0.5,0.9,0.6,1.8,0.5,2.6c-0.1,0.9-0.6,1.6-1.2,2.2
			c-0.5,0.5-1.2,0.9-1.9,1.1c-0.7,0.2-1.5,0.3-2.2,0.1c-0.7-0.1-1.4-0.5-2-1.1c-0.4-0.4-1.3-1.3-2.7-2.8l-3.7-4L298.8,172.3z
			 M294.4,180.8l-3.1,2.9l2,2.2c0.8,0.9,1.3,1.4,1.6,1.6c0.4,0.3,0.8,0.4,1.3,0.4c0.5,0,0.9-0.2,1.3-0.6c0.4-0.3,0.6-0.7,0.7-1.1
			c0.1-0.4,0-0.8-0.1-1.2c-0.2-0.4-0.8-1.2-1.8-2.3L294.4,180.8z M299,176.4l-2.7,2.5l1.4,1.6c0.9,0.9,1.4,1.5,1.6,1.7
			c0.4,0.4,0.9,0.5,1.3,0.6c0.4,0,0.9-0.2,1.2-0.5c0.4-0.3,0.6-0.7,0.6-1.1c0-0.4-0.1-0.8-0.4-1.3c-0.2-0.3-0.8-1-1.8-2.1L299,176.4
			z"/>
		<path class="st16" d="M311.2,186.7l1.7,2.8l-7.4,4.5c-1.2,0.7-1.9,1.2-2.2,1.5c-0.5,0.5-0.8,1-0.8,1.7c-0.1,0.7,0.1,1.4,0.6,2.1
			c0.5,0.8,1,1.3,1.6,1.5c0.6,0.2,1.1,0.2,1.6,0c0.5-0.2,1.3-0.6,2.4-1.3l7.6-4.6l1.7,2.8l-7.2,4.4c-1.6,1-2.8,1.6-3.6,1.9
			c-0.8,0.3-1.5,0.3-2.2,0.2c-0.7-0.1-1.4-0.4-2.1-0.9c-0.7-0.5-1.4-1.3-2-2.4c-0.8-1.3-1.2-2.4-1.4-3.2c-0.1-0.9,0-1.6,0.2-2.3
			c0.2-0.7,0.6-1.3,1-1.7c0.7-0.7,1.8-1.5,3.3-2.4L311.2,186.7z"/>
		<path class="st16" d="M310.1,206.1l1.5,2.8c-0.9,0.6-1.5,1.2-1.7,1.9c-0.2,0.7-0.2,1.5,0.2,2.5c0.4,1,0.9,1.6,1.5,1.9
			c0.6,0.3,1.2,0.4,1.7,0.2c0.4-0.1,0.6-0.4,0.8-0.7c0.2-0.3,0.2-0.8,0.2-1.3c0-0.4-0.1-1.3-0.3-2.7c-0.2-1.8-0.2-3.1,0.1-4
			c0.5-1.2,1.3-2.1,2.4-2.6c0.8-0.3,1.6-0.4,2.4-0.2c0.8,0.2,1.6,0.6,2.3,1.3c0.7,0.7,1.2,1.6,1.7,2.7c0.7,1.9,0.9,3.4,0.5,4.7
			c-0.4,1.3-1.3,2.2-2.7,2.8l-1.3-3c0.7-0.4,1.2-0.9,1.3-1.5c0.2-0.6,0.1-1.3-0.3-2.1c-0.4-0.9-0.8-1.5-1.4-1.8
			c-0.4-0.2-0.7-0.3-1.1-0.1c-0.3,0.1-0.6,0.4-0.7,0.8c-0.2,0.5-0.1,1.6,0.1,3.2c0.2,1.6,0.3,2.8,0.2,3.7c-0.1,0.8-0.4,1.6-0.9,2.2
			c-0.5,0.7-1.2,1.2-2.1,1.5c-0.9,0.3-1.7,0.4-2.7,0.2c-0.9-0.2-1.7-0.6-2.5-1.3c-0.7-0.7-1.3-1.7-1.8-3c-0.8-1.9-0.9-3.5-0.4-4.9
			C307.5,208.1,308.5,207,310.1,206.1"/>
		
			<rect x="312.5" y="227.2" transform="matrix(0.9776 -0.2104 0.2104 0.9776 -40.9775 72.5574)" class="st16" width="16" height="3.2"/>
		<polygon class="st16" points="313.8,235.1 329.8,233.5 330.3,238.4 319.7,242.3 330.8,244.1 331.3,248.9 315.3,250.5 315.1,247.5 
			327.6,246.3 314.7,244.3 314.4,241.2 326.7,236.9 314.1,238.1 		"/>
		<path class="st16" d="M315.3,253.5l16,0.8l-0.3,5.2c-0.1,2-0.2,3.2-0.4,3.8c-0.3,0.9-0.8,1.6-1.7,2.2c-0.8,0.6-1.9,0.8-3.2,0.8
			c-1,0-1.8-0.3-2.5-0.7c-0.7-0.4-1.2-0.9-1.5-1.4c-0.4-0.6-0.6-1.1-0.7-1.7c-0.1-0.8-0.1-1.9-0.1-3.4l0.1-2.1l-6-0.3L315.3,253.5z
			 M328.4,257.4l-4.5-0.2l-0.1,1.8c-0.1,1.3,0,2.1,0.1,2.6c0.1,0.4,0.4,0.8,0.7,1.1c0.3,0.3,0.8,0.4,1.2,0.4c0.6,0,1.1-0.1,1.5-0.4
			c0.4-0.3,0.7-0.7,0.8-1.3c0.1-0.4,0.2-1.2,0.2-2.3L328.4,257.4z"/>
		<path class="st16" d="M312.1,281l0.6-3.5l3.8-0.7l1.1-6.3l-3.4-1.9l0.6-3.4l14.7,8.9l-0.6,3.4L312.1,281z M319.3,276.2l6.2-1.1
			l-5.5-3.2L319.3,276.2z"/>
		<path class="st16" d="M311.5,282.6l15.2,5.2l-2.2,6.4c-0.6,1.6-1.1,2.8-1.6,3.4c-0.5,0.6-1.2,1.1-2.1,1.3
			c-0.8,0.2-1.7,0.2-2.6-0.2c-1.1-0.4-2-1-2.5-2c-0.5-0.9-0.6-2.1-0.4-3.5c-0.6,0.5-1.2,0.9-1.8,1.2c-0.6,0.3-1.6,0.6-3.1,0.9
			l-3.6,0.8l1.3-3.7l4.1-1.1c1.5-0.4,2.4-0.7,2.8-0.9c0.4-0.2,0.7-0.4,0.9-0.7c0.2-0.3,0.5-0.8,0.7-1.5l0.2-0.6l-6.3-2.2
			L311.5,282.6z M319.3,288.6l-0.8,2.3c-0.5,1.5-0.8,2.4-0.8,2.8c0,0.4,0.1,0.8,0.3,1.1c0.2,0.3,0.6,0.5,1,0.7c0.5,0.2,1,0.2,1.4,0
			c0.4-0.2,0.7-0.5,1-1c0.1-0.2,0.4-1,0.8-2.2l0.8-2.4L319.3,288.6z"/>
	</g>
</g>
</svg>
