<?xml version="1.0" encoding="utf-8"?>
<!-- Generator: Adobe Illustrator 21.0.0, SVG Export Plug-In . SVG Version: 6.00 Build 0)  -->
<svg version="1.1" id="Camada_1" xmlns="http://www.w3.org/2000/svg" xmlns:xlink="http://www.w3.org/1999/xlink" x="0px" y="0px"
	 viewBox="0 0 381 500" style="enable-background:new 0 0 381 500;" xml:space="preserve">
<style type="text/css">
	.st0{fill:none;}
	.st1{fill-rule:evenodd;clip-rule:evenodd;fill:#FBF49E;}
	.st2{fill-rule:evenodd;clip-rule:evenodd;fill:#32312A;}
	.st3{fill-rule:evenodd;clip-rule:evenodd;fill:#FFFFFF;}
	.st4{fill:none;stroke:#32312A;stroke-width:0.31;}
	.st5{fill-rule:evenodd;clip-rule:evenodd;fill:#D4E8F6;}
	.st6{fill-rule:evenodd;clip-rule:evenodd;fill:#BDD4AF;}
	.st7{fill-rule:evenodd;clip-rule:evenodd;fill:#B9031F;}
	.st8{fill:none;stroke:#32312A;stroke-width:0.707;}
	.st9{fill-rule:evenodd;clip-rule:evenodd;fill:#4F8B3B;}
	.st10{fill:none;stroke:#32312A;stroke-width:0.317;}
	.st11{fill-rule:evenodd;clip-rule:evenodd;fill:#FAEB1E;}
	.st12{fill:none;stroke:#5F605E;stroke-width:0.31;}
	.st13{fill:none;stroke:#32312A;stroke-width:0.277;}
	.st14{fill:none;stroke:#32312A;stroke-width:0.257;}
	.st15{fill:none;stroke:#32312A;stroke-width:0.309;}
	.st16{fill:none;stroke:#32312A;stroke-width:0.308;}
	.st17{fill:#27241F;}
	.st18{clip-path:url(#SVGID_2_);fill:url(#SVGID_3_);}
	.st19{clip-path:url(#SVGID_5_);fill:url(#SVGID_6_);}
	.st20{fill:#003E82;}
	.st21{fill:#211915;}
</style>
<rect x="-11" y="15" class="st0" width="844.3" height="595.9"/>
<g>
	<path class="st1" d="M191.4,7.1c10.5-12.2,20.3,29.4,36.3,32c17.3,2.7,33.5-26.2,49.3-18.5c14.6,7.1-2.4,36.6,9.8,47.2
		c10.5,9.1,31.3-11.8,41.6-2.7c9.3,8.3-9.5,26.7-2.6,37.1c7.2,11,34.1,1.9,36.8,14.7c3.1,14.4-28.3,21.4-26,35.9
		c2.7,17.4,36.3,20.1,37.5,37.6c0.9,13.9-32.4,11.5-33.4,25.4c-1.2,16.2,33.1,23.9,28.8,39.5c-4.3,15.6-31.3,10.5-44.9,19.5
		c-15.1,9.9-25.5,25.5-40,36.2c-9.4,6.9-19.9,12.6-31,16.2c-19.3,6.3-39.2,11.8-59.5,13.4c-15.5,1.2-31.3-1.3-46.3-5
		c-15-3.7-30.3-8.4-42.9-17.1c-17-11.7-28-30.5-44.4-43c-12-9.2-34.1-7.7-40.1-21.5c-4.6-10.6,20.3-18.4,18-29.7
		c-3.3-16.2-32-21.7-31.9-38.3c0-14.6,28-16.3,32.1-30.4c3.5-12-18.5-23.9-13-35.1c6.4-13,32.6-6,39.5-18.6
		c7.7-14.1-15.6-37.7-3.2-47.9c13.7-11.2,37.3,15.7,52.8,7.1c12.8-7.1-3-36.3,10.4-42.1c13.3-5.8,28.4,32.1,37.8,21.2L191.4,7.1z"/>
	<path class="st2" d="M186.7,351.9l-4.7,2.9l6,6.8l5.3-6.8l-3.9-2.9L186.7,351.9z M177.7,347.3l-5.5-2.2l0.4,5.7L177.7,347.3z
		 M202.3,350.4l0.5-5.7l-5.6,2L202.3,350.4z M185.1,339.7l0.1,9.8l-4.5,2.7l-3.3-2.9l3.1-2.2l-9.3-3.7l0.8,10.5l2.9-2.5l13.1,14.4
		l12.7-15l3.2,2.4l1-10.6l-10.4,3.8l2.8,2.3l-2.8,3.2l-3.5-2.6l-0.2-10L185.1,339.7z"/>
	<path class="st3" d="M132.2,308.3c-2.7,5.1-7.6,12.8-10.4,18c42.5,18.9,86.7,17,130.5,1.7c-2.2-6.8-4.3-13.5-6.4-20.2
		C205.7,321.7,170.4,323.8,132.2,308.3"/>
	<path class="st4" d="M132.2,308.3c-2.7,5.1-7.6,12.8-10.4,18c42.5,18.9,86.7,17,130.5,1.7c-2.2-6.8-4.3-13.5-6.4-20.2
		C205.7,321.7,170.4,323.8,132.2,308.3z"/>
	<path class="st3" d="M188.6,111.7c35.2-0.8,64.6,34.1,65.6,77.9c1,43.8-26.8,79.9-62,80.7c-35.2,0.8-64.6-34.1-65.6-77.9
		C125.6,148.7,153.4,112.5,188.6,111.7"/>
	<path class="st4" d="M188.6,111.7c35.2-0.8,64.6,34.1,65.6,77.9c1,43.8-26.8,79.9-62,80.7c-35.2,0.8-64.6-34.1-65.6-77.9
		C125.6,148.7,153.4,112.5,188.6,111.7z"/>
	<path class="st5" d="M189.4,130.8c25.2-0.6,46.3,26.3,47.1,59.9c0.8,33.6-19.1,61.3-44.3,61.9c-25.2,0.6-46.3-26.3-47.1-59.9
		C144.3,159.1,164.2,131.3,189.4,130.8"/>
	<path class="st4" d="M189.4,130.8c25.2-0.6,46.3,26.3,47.1,59.9c0.8,33.6-19.1,61.3-44.3,61.9c-25.2,0.6-46.3-26.3-47.1-59.9
		C144.3,159.1,164.2,131.3,189.4,130.8z"/>
	<path class="st2" d="M177.7,192.2c0.4,1.9,1.1,3.3,2.1,4.1c1,0.8,1.7,2,2.1,3.7c0.2,0.3,0.2,0.7,0.2,1.2c-0.1,0.4-0.2,0.8-0.1,1.2
		c-0.2,0.6,0.1,1.1,0.8,1.1c0.7,0.4,1.4,0.9,2.1,1.3c0.8,0.3,1.5,0.7,2.2,1.1c0.2,0.2,0.6,0.2,1,0.1c0.5,0,0.8-0.2,1-0.2
		c0.1-0.1,0.2-0.3,0.2-0.6c0-0.3-0.2-0.4-0.6-0.4c0.4,0,0.6,0.2,0.6,0.4c0,0.3-0.1,0.5-0.2,0.6c0.6,0.4,1,0.3,1.1-0.4
		c0,0-0.1-0.2-0.2-0.5c-0.1-0.4-0.3-0.4-0.4-0.4c0.3,0.3,0.5,0.6,0.5,0.8c0,0.3,0.1,0.4,0.4,0.3c0.2-0.1,0.3-0.4,0-0.8
		c-0.2-0.4-0.6-0.6-0.9-0.5c-0.3,0-0.7,0.1-1,0.2c-0.3,0.1-0.6,0.1-0.9,0.1c-0.4-0.2-1-0.5-1.6-0.9c-0.6-0.4-1-0.8-1-1.2
		c-0.2-1.2,0.1-2.5,1-3.9c0.9-1.5,1.2-2.8,0.8-3.9c0-0.3,0.1-0.3,0.3-0.1c2.4,2.1,4.4,2.6,6,1.7c1.6-1,3.2-1.2,4.5-0.8
		c0.2,1.1,0.3,2.3,0.4,3.5c0,1.2,0.1,2.4,0.2,3.5c0.1,0.8,0.3,1.5,0.7,2.3c0.1,0.3,0.3,0.5,0.6,0.6c0.6,0,1.4-0.1,2.1-0.1
		c0.8,0,1.3-0.1,1.3-0.2c0-0.3-0.2-0.5-0.7-0.7c-0.2-0.1-0.6-0.1-0.9-0.1c-0.3,0.1-0.6,0-0.8-0.3c-0.3-0.3-0.4-0.7-0.4-1.2
		c0.1-0.6,0.1-1,0.1-1.3c0.2-0.8,0.5-1.5,0.7-2c0.3-0.5,0.5-1.1,0.4-1.8c1,0.6,1.9,1,2.8,1.4c0.8,0.4,1.8,0.8,2.5,1.1
		c0.3,0.2,0.9,0.4,1.6,0.7c0.7,0.3,1.2,0.5,1.4,0.8c0.1,0.5,0.4,0.7,0.8,0.6c0.3-0.1,0.8-0.1,1.2,0.1c0.5,0.1,1,0.2,1.3,0.4
		c0.4,0.1,0.9,0.1,1.4,0c0.5-0.7,0.5-1.1-0.1-1.3c-0.6-0.2-1.2-0.3-1.7-0.5c-0.8,0-1.2-0.2-1.3-0.4c-0.1-0.2-0.4-0.5-0.6-0.7
		c-1.8-1.1-3.4-2.5-4.9-4.2c-0.3-0.2-0.5-0.5-0.5-0.9c0-0.1-0.1-0.7-0.4-1.6c-0.2-1-0.3-1.6-0.2-1.7c0.4,0.9,0.8,1.9,0.9,2.8
		c0.2,1,0.8,1.9,1.9,2.7c-0.1-0.1-0.2-0.4-0.3-0.8c-0.1-0.4-0.1-0.6-0.1-0.7c0.4,0.6,0.7,1,0.8,1.1c0.1-0.2,0.2-0.8,0.3-1.9
		c0.1-1.1,0.1-1.9,0.2-2.3c0.2,0.2,0.3,0.8,0.2,1.7c-0.1,1-0.3,1.6-0.5,1.9c0.3-0.3,0.7-0.8,1.3-1.5c0.6-0.8,0.9-1.4,0.9-1.8
		c0.1,0.1,0.6,0.4,1.2,0.9c0-0.2-0.1-0.8-0.3-1.6c-0.2-0.9-0.2-1.4-0.2-1.5c0-0.3,0.1-0.1,0.4,0.6c0.3,0.7,0.7,1,1.2,1.1
		c0-0.3-0.2-0.9-0.4-1.9c-0.3-1-0.4-1.6-0.3-1.9c0.1,0.1,0.2,0.4,0.4,0.7c0.2,0.4,0.4,0.8,0.5,1.1c0.2-0.1,0.3-0.5,0.3-1.1
		c0.1-0.5,0-1-0.1-1.3c0.5,0.7,1.1,1.3,1.8,1.7c-0.1-0.2-0.2-0.6-0.2-1c0-0.4,0-0.9-0.1-1.4c-0.4-0.2-0.1,0,0.9,0.8
		c1,0.7,1.9,0.5,2.8-0.6c0-0.1,0-0.2,0.1-0.2c0.1-0.1,0.2-0.2,0.2-0.4c0.3-0.4,0.6-0.8,0.6-1.2c0.3-0.1,0.5-0.4,0.4-0.9
		c0,0-0.6-0.5-1.6-1.3c-0.2-0.3-0.4-0.5-0.4-0.6c-0.1-0.1-0.3-0.3-0.4-0.5c-0.6-0.9-1.9-1.5-3.5-2c0.5-0.1,1,0.1,1.6,0.6
		c0.6,0.4,1.4,0.5,2,0.2c-0.4-0.2-1.1-0.5-1.8-0.9c-0.7-0.4-1.3-0.6-1.6-0.6c0.4-0.1,0.7-0.2,1.1-0.4c0.3-0.2,0.7-0.2,1.2-0.3
		c0-0.1-0.4-0.1-1.3-0.1c-0.9,0.1-1.6,0.2-1.9,0.3c0,0-0.1-0.1-0.3-0.3c-0.2-0.2-0.4-0.4-0.4-0.6c-1.9,0.7-2.8,0.6-2.7-0.3
		c-0.5,0.7-0.6,1.4-0.5,1.9c-1-0.1-1.7-0.1-2,0c-0.4,0.2-1.1,0.5-2,0.8c-0.6,0.2-1.5,0.7-2.8,1.4c-0.7,0.4-1.4,0.6-2.1,0.7
		c-0.6,0-1.3,0.6-1.9,1.6c-0.7,0.1-1.2,0.3-1.6,0.5c-0.4,0.3-1.1,0.5-2.4,0.7c-2.3,0.3-4.4,0.3-6.3,0.1c-1.8-0.2-4.2-0.1-7.2,0.6
		c-1.4,0.1-2.6,0.9-3.4,2.2c-0.9,1.3-1.7,2.5-2.4,3.4c-0.5,0.7-1.7,2.4-3.4,5c-1.8,2.6-3.1,4.6-3.8,6c-0.2,0.4-0.5,0.7-1,0.8
		c-0.5,0.1-0.5,0.3-0.2,0.4c0,0.1,0.2,0.2,0.6,0.5c0.4,0.2,0.7,0.2,0.7,0c0-0.2,0.1-0.7,0.5-1.4c0.8-1.5,2-3.3,3.6-5.4
		c1.6-2.1,3-3.6,4.1-4.6c0.1,0-0.2,1.4-0.8,4c-0.6,2.7-0.9,4.1-0.9,4.2c-0.1-0.1-0.1,0.5-0.1,1.6c0,1.1,0,1.8,0.1,2.1
		c0.1,0.7,0.2,1.3,0.2,2c0.1,0.1,0.4,0.3,0.7,0.4l0-0.4c0,0,0,0.1,0,0.2c0,0.1,0,0.2,0,0.3c0.5,0,0.8,0,1.2-0.1c0,0,0-0.1,0-0.1
		c0,0,0.1-0.1,0.1-0.2c0-0.4,0-0.4,0-0.2c0,0.2,0,0.4,0,0.5c0.1,0,0.4,0,0.8,0c0.3-0.6,0.2-1-0.4-1.2c-0.6-0.2-1-0.2-1.1-0.1
		c0-0.4-0.2-0.9-0.2-1.4c-0.1-0.5,0-1,0.1-1.4c0.4-0.8,1.2-1.7,2.3-2.4c1.1-0.8,1.9-1.6,2.4-2.5c-0.3-0.5-0.9-1.3-1.7-2.2
		C178.3,194.6,177.8,193.5,177.7,192.2 M213.7,201.4c0.6,0.3,0.9,0.6,0.9,0.8L213.7,201.4z M213.9,201.2c0.5,0.2,0.8,0.5,0.9,0.8
		L213.9,201.2z"/>
	<path class="st6" d="M148.1,211.5c7.4,27.8,24.2,40.1,45.5,41.2c21.5-2,42.8-23.4,42.6-64.8l-16.4,8.1l-12.9,2.9l-9.8,3L181,202
		l-3.5,4.2l-9.1,0.2l-8.7,3.8C158.5,210.7,150.9,211,148.1,211.5"/>
	<path class="st4" d="M148.1,211.5c7.4,27.8,24.2,40.1,45.5,41.2c21.5-2,42.8-23.4,42.6-64.8l-16.4,8.1l-12.9,2.9l-9.8,3L181,202
		l-3.5,4.2l-9.1,0.2l-8.7,3.8C158.5,210.7,150.9,211,148.1,211.5z"/>
	<polygon class="st7" points="210.3,223.1 206.9,213.5 203.5,223.2 194.4,223.4 202.4,228.1 198,238.5 207.9,231.7 216.6,237.7 
		212.2,227.5 219.9,222.8 	"/>
	<polygon class="st4" points="210.3,223.1 206.9,213.5 203.5,223.2 194.4,223.4 202.4,228.1 198,238.5 207.9,231.7 216.6,237.7 
		212.2,227.5 219.9,222.8 	"/>
	<polyline class="st4" points="154.5,224.7 166.9,222.9 178.5,219.3 185.9,213.5 200.4,213.6 212.5,209 225.9,206.4 236.4,199.5 	
		"/>
	
		<rect x="187.9" y="145.8" transform="matrix(0.9998 -2.231787e-02 2.231787e-02 0.9998 -3.7167 4.2849)" class="st2" width="4.4" height="45.6"/>
	
		<rect x="187.9" y="145.8" transform="matrix(0.9998 -2.231787e-02 2.231787e-02 0.9998 -3.7167 4.2849)" class="st8" width="4.4" height="45.6"/>
	<path class="st9" d="M189.2,152c-3.4,8.3-12.1,3.9-4.5-4c-12.8,7.5-13.3-4.3-0.6-5.1c-11.4-10.3,17.3-13.2,7.5-2
		c0-0.3,8.4-7.4,8.6,0.3l-4.1,1.9c6.5,1.4,9.8,8.8-0.4,6.2c0.5,1.3,5.5,1.4,4.3,5.5C197.1,158,189.5,154.5,189.2,152"/>
	<path class="st4" d="M189.2,152c-3.4,8.3-12.1,3.9-4.5-4c-12.8,7.5-13.3-4.3-0.6-5.1c-11.4-10.3,17.3-13.2,7.5-2
		c0-0.3,8.4-7.4,8.6,0.3l-4.1,1.9c6.5,1.4,9.8,8.8-0.4,6.2c0.5,1.3,5.5,1.4,4.3,5.5C197.1,158,189.5,154.5,189.2,152z"/>
	<path class="st4" d="M152,212.8c1.3,0,2.2,0.6,3.3,1c5.7,2,17.5,0,23.1-0.5c2.4-0.3,4.9-1,7.3-1"/>
	<path class="st4" d="M169.4,209.6l13.2,0.1c0-0.4,0.6-1.3,1.3-1.3l22.8-0.5"/>
	<line class="st4" x1="187.8" y1="205" x2="225.1" y2="203.6"/>
	<line class="st4" x1="205.3" y1="200.9" x2="231.8" y2="198.8"/>
	<line class="st4" x1="224.2" y1="195.5" x2="233.2" y2="195.3"/>
	<path class="st4" d="M155.6,217.3c5.6-0.1,11.4,0.8,16.8-0.2l5.6-0.6"/>
	<path class="st4" d="M156.1,221c2.8,1,6.5,0.3,9.3,0.2c0-0.9,4.5-0.5,5.4-0.5"/>
	<path class="st4" d="M192,211.9c4.5-0.1,10.6,0.6,14.9-0.5l0-0.2l1.3,0"/>
	<line class="st4" x1="160.2" y1="211.4" x2="175.5" y2="211.3"/>
	<line class="st4" x1="209" y1="206.4" x2="223.2" y2="206.1"/>
	<polyline class="st4" points="230.6,192.3 233.6,192.2 234.1,192 	"/>
	<line class="st4" x1="215.9" y1="197.8" x2="232.1" y2="197.2"/>
	<line class="st4" x1="200.7" y1="202.8" x2="207.2" y2="202.6"/>
	<line class="st4" x1="180.5" y1="205.9" x2="189.3" y2="205.7"/>
	<line class="st4" x1="85.8" y1="147.3" x2="30.5" y2="130.4"/>
	<line class="st4" x1="85.2" y1="151.5" x2="37.1" y2="139.3"/>
	<line class="st4" x1="90.1" y1="156.4" x2="39.4" y2="147.1"/>
	<line class="st4" x1="89.6" y1="162.3" x2="40.2" y2="154"/>
	<line class="st4" x1="89.7" y1="167.3" x2="36.7" y2="159.7"/>
	<line class="st4" x1="86.2" y1="172.4" x2="29.6" y2="166.4"/>
	<line class="st4" x1="84.3" y1="176.9" x2="21" y2="173.4"/>
	<line class="st4" x1="82.7" y1="181.1" x2="15.3" y2="179"/>
	<line class="st4" x1="86.1" y1="185.8" x2="9.5" y2="186"/>
	<line class="st4" x1="80.2" y1="190.8" x2="14.4" y2="192.3"/>
	<line class="st4" x1="80.1" y1="197.6" x2="18.8" y2="200"/>
	<line class="st4" x1="84.6" y1="203.8" x2="26.9" y2="207.9"/>
	<line class="st4" x1="84.1" y1="209.2" x2="33" y2="215.6"/>
	<line class="st4" x1="87.8" y1="214.8" x2="37.8" y2="221.4"/>
	<line class="st4" x1="85.4" y1="219" x2="38.5" y2="228.2"/>
	<line class="st4" x1="85.8" y1="224.1" x2="33.8" y2="234.8"/>
	<line class="st4" x1="89.4" y1="229.5" x2="28" y2="242"/>
	<line class="st4" x1="229.1" y1="119.8" x2="277.8" y2="32.6"/>
	<line class="st4" x1="221.1" y1="117.8" x2="273.8" y2="21.7"/>
	<line class="st4" x1="217.7" y1="115.8" x2="256.5" y2="29.6"/>
	<line class="st4" x1="213.5" y1="113.5" x2="247.2" y2="34.4"/>
	<line class="st4" x1="208.5" y1="111.8" x2="236.7" y2="37.9"/>
	<line class="st4" x1="203" y1="109.6" x2="228.1" y2="37.2"/>
	<line class="st4" x1="198.8" y1="108.5" x2="220.9" y2="35.1"/>
	<line class="st4" x1="198.3" y1="105.7" x2="215.3" y2="31.1"/>
	<polyline class="st4" points="207.4,23.6 196.4,107.6 200.8,16.5 	"/>
	<line class="st4" x1="192.9" y1="107.7" x2="192.8" y2="8.1"/>
	<line class="st4" x1="187.7" y1="107.8" x2="185.6" y2="17"/>
	<line class="st4" x1="181.8" y1="108.3" x2="179" y2="25.8"/>
	<line class="st4" x1="176.2" y1="109.6" x2="166.2" y2="38.2"/>
	<line class="st10" x1="178.9" y1="109.6" x2="172.4" y2="31.9"/>
	<line class="st4" x1="173" y1="110.7" x2="158.9" y2="38.2"/>
	<line class="st4" x1="169.6" y1="111.5" x2="150.8" y2="35.2"/>
	<line class="st4" x1="167.2" y1="112.5" x2="142.3" y2="30.9"/>
	<line class="st4" x1="164.6" y1="113.7" x2="134" y2="25.9"/>
	<line class="st4" x1="160.5" y1="116.2" x2="126" y2="21.9"/>
	<line class="st4" x1="158.8" y1="116.9" x2="122.8" y2="33.3"/>
	<line class="st4" x1="156" y1="117" x2="120.4" y2="42.5"/>
	<line class="st4" x1="154.1" y1="119.3" x2="117.7" y2="54.6"/>
	<line class="st4" x1="149.9" y1="123.7" x2="111.8" y2="61.4"/>
	<line class="st4" x1="125.5" y1="94.6" x2="102.3" y2="62.2"/>
	<line class="st4" x1="120.5" y1="99" x2="90.1" y2="61.5"/>
	<line class="st4" x1="115.2" y1="101" x2="76.9" y2="59.4"/>
	<line class="st4" x1="140.1" y1="131.7" x2="64" y2="55.3"/>
	<line class="st4" x1="99.2" y1="101.4" x2="66.9" y2="69.9"/>
	<line class="st4" x1="95.4" y1="103.7" x2="66.6" y2="79.4"/>
	<line class="st4" x1="94.2" y1="107.2" x2="68.8" y2="89.4"/>
	<line class="st4" x1="93.1" y1="113.4" x2="66.9" y2="96.3"/>
	<line class="st4" x1="91.9" y1="119.1" x2="64.1" y2="103.5"/>
	<line class="st4" x1="88.6" y1="122.6" x2="57.2" y2="106.5"/>
	<line class="st4" x1="88.8" y1="129.9" x2="47.6" y2="110.1"/>
	<line class="st4" x1="86.5" y1="136.3" x2="38.2" y2="115"/>
	<line class="st4" x1="84" y1="142.2" x2="29" y2="121.3"/>
	<line class="st4" x1="257.7" y1="78.3" x2="279.3" y2="43.3"/>
	<line class="st4" x1="260" y1="80.9" x2="281.4" y2="55.2"/>
	<line class="st4" x1="265.5" y1="86.4" x2="283.6" y2="65.3"/>
	<line class="st4" x1="268.6" y1="90.3" x2="289.2" y2="69.6"/>
	<line class="st4" x1="272.2" y1="95.1" x2="296.4" y2="69.8"/>
	<line class="st4" x1="275.6" y1="100.9" x2="311.7" y2="68.7"/>
	<line class="st4" x1="277.8" y1="107.4" x2="327.2" y2="66.8"/>
	<line class="st4" x1="280.4" y1="111.1" x2="325.7" y2="76.8"/>
	<line class="st4" x1="305.4" y1="100.5" x2="325.1" y2="86.4"/>
	<line class="st4" x1="295.1" y1="115.4" x2="325.5" y2="95.3"/>
	<line class="st4" x1="297.5" y1="120.3" x2="324.5" y2="103.6"/>
	<line class="st4" x1="298.3" y1="126" x2="330.7" y2="109.5"/>
	<line class="st4" x1="299.3" y1="131.9" x2="337.7" y2="113.1"/>
	<line class="st4" x1="298.9" y1="137.8" x2="349.3" y2="115.5"/>
	<line class="st4" x1="301.7" y1="142.7" x2="359.5" y2="117.1"/>
	<line class="st4" x1="302.7" y1="148.2" x2="352.4" y2="127.5"/>
	<line class="st4" x1="304.4" y1="153.7" x2="344" y2="141.5"/>
	<line class="st4" x1="305.6" y1="159.3" x2="336.3" y2="152.9"/>
	<line class="st4" x1="306.1" y1="164.7" x2="342.5" y2="161.9"/>
	<line class="st4" x1="305.1" y1="170.7" x2="349.1" y2="167.4"/>
	<line class="st4" x1="307.2" y1="176.4" x2="356.3" y2="174.6"/>
	<line class="st4" x1="307.5" y1="184.3" x2="364.1" y2="182.2"/>
	<line class="st4" x1="306.6" y1="188.8" x2="369.2" y2="189.7"/>
	<line class="st4" x1="306.4" y1="194.3" x2="361.2" y2="196.5"/>
	<line class="st4" x1="305.8" y1="200" x2="353.1" y2="202.1"/>
	<line class="st4" x1="305.7" y1="204.5" x2="348.9" y2="208.2"/>
	<polyline class="st4" points="305.3,208 308.1,207.9 343.5,213.1 	"/>
	<line class="st4" x1="303.2" y1="210.2" x2="340.5" y2="220.3"/>
	<line class="st4" x1="303.3" y1="212.6" x2="346.8" y2="228.5"/>
	<line class="st4" x1="302" y1="216.2" x2="353.7" y2="238.5"/>
	<line class="st4" x1="301.9" y1="220" x2="366" y2="253.5"/>
	<line class="st4" x1="298.6" y1="223.5" x2="360.1" y2="258"/>
	<line class="st4" x1="296.1" y1="228" x2="351.9" y2="262.5"/>
	<line class="st4" x1="98.3" y1="231.8" x2="23.8" y2="250.9"/>
	<line class="st4" x1="92.8" y1="236.6" x2="27.5" y2="258.3"/>
	<line class="st4" x1="97.5" y1="239.7" x2="35.9" y2="262.6"/>
	<line class="st4" x1="82.3" y1="250.9" x2="48.3" y2="270.5"/>
	<line class="st4" x1="85.1" y1="247.2" x2="43.9" y2="265.4"/>
	<line class="st4" x1="99.9" y1="242.7" x2="67.4" y2="267.1"/>
	<line class="st4" x1="294.5" y1="231.4" x2="344.8" y2="265.7"/>
	<line class="st4" x1="290.4" y1="235.3" x2="337" y2="269.4"/>
	<line class="st4" x1="288" y1="238.5" x2="329.9" y2="272.2"/>
	<line class="st4" x1="284.1" y1="242.2" x2="310.4" y2="265.4"/>
	<line class="st4" x1="281.7" y1="244.8" x2="307.4" y2="271.7"/>
	<line class="st4" x1="277.1" y1="247.8" x2="304.8" y2="278.3"/>
	<line class="st4" x1="272.8" y1="251" x2="301.6" y2="283.3"/>
	<line class="st4" x1="269.7" y1="254.2" x2="297.9" y2="288.9"/>
	<line class="st4" x1="264.5" y1="255" x2="292.8" y2="294.2"/>
	<line class="st4" x1="259.5" y1="257.9" x2="287.4" y2="297.5"/>
	<line class="st4" x1="254.3" y1="259.2" x2="284.8" y2="302.9"/>
	<line class="st4" x1="249.3" y1="260.9" x2="281.5" y2="306.6"/>
	<line class="st4" x1="242.5" y1="259.5" x2="274.7" y2="312.6"/>
	<line class="st4" x1="268.9" y1="317.7" x2="237.4" y2="260.6"/>
	<line class="st4" x1="229.6" y1="260.5" x2="262.2" y2="321.8"/>
	<line class="st4" x1="253.6" y1="326.5" x2="226.5" y2="262.3"/>
	<line class="st4" x1="223.7" y1="264.1" x2="240.5" y2="309.7"/>
	<line class="st4" x1="221.1" y1="265.1" x2="235.1" y2="311.2"/>
	<line class="st4" x1="229.2" y1="313.1" x2="218.6" y2="266.6"/>
	<line class="st4" x1="223" y1="314.9" x2="215.8" y2="267.7"/>
	<line class="st4" x1="212.2" y1="270.3" x2="216.9" y2="316.5"/>
	<line class="st4" x1="211.8" y1="316.6" x2="207.2" y2="272"/>
	<line class="st4" x1="204.9" y1="317.9" x2="203.2" y2="273.1"/>
	<line class="st4" x1="199" y1="274.1" x2="199.9" y2="318.4"/>
	<line class="st4" x1="193.4" y1="274" x2="194.6" y2="318.7"/>
	<line class="st4" x1="190.1" y1="274.5" x2="188.4" y2="318.7"/>
	<line class="st4" x1="184.7" y1="273.7" x2="182.8" y2="319"/>
	<line class="st4" x1="180.8" y1="272.1" x2="178.4" y2="319.7"/>
	<line class="st4" x1="176.1" y1="271.5" x2="172.7" y2="318.3"/>
	<line class="st4" x1="165" y1="317.6" x2="171.6" y2="270.6"/>
	<line class="st4" x1="158.9" y1="317.6" x2="167.5" y2="269.1"/>
	<line class="st4" x1="164.5" y1="268.1" x2="153.4" y2="314.1"/>
	<line class="st4" x1="146.4" y1="312.3" x2="161.2" y2="266.1"/>
	<line class="st4" x1="158" y1="263.8" x2="140.2" y2="311.3"/>
	<line class="st4" x1="133.9" y1="309.4" x2="155.9" y2="262.8"/>
	<line class="st4" x1="121.5" y1="323.9" x2="153.4" y2="261.1"/>
	<line class="st4" x1="114.6" y1="321" x2="150.8" y2="260.9"/>
	<line class="st4" x1="109.1" y1="315.4" x2="141.6" y2="262.8"/>
	<line class="st4" x1="102.7" y1="311.4" x2="135.6" y2="260"/>
	<line class="st4" x1="96.5" y1="306.4" x2="130.1" y2="258.6"/>
	<line class="st4" x1="90.4" y1="299.5" x2="123.1" y2="257"/>
	<line class="st4" x1="84.3" y1="291.5" x2="119.1" y2="254.8"/>
	<line class="st4" x1="78.5" y1="287.5" x2="113.2" y2="252.4"/>
	<line class="st4" x1="74.5" y1="280.7" x2="108.3" y2="249.2"/>
	<line class="st4" x1="71.7" y1="274.4" x2="104.6" y2="245.8"/>
	<path class="st3" d="M232,335.6l3.6,20.4c36.6-2.9,86.1-54,98-91.4c-5.1,4.1-13.5,12.9-18.5,16.8c-0.3-4.8-0.8-13.4-0.9-18.4
		C290.8,304.8,261,330.8,232,335.6"/>
	<path class="st4" d="M232,335.6l3.6,20.4c36.6-2.9,86.1-54,98-91.4c-5.1,4.1-13.5,12.9-18.5,16.8c-0.3-4.8-0.8-13.4-0.9-18.4
		C290.8,304.8,261,330.8,232,335.6z"/>
	<path class="st3" d="M144.6,335.1l-2.6,20.6c-35.6-1.3-96.9-60.4-101.5-100.7c5.2,3.9,13.4,16.3,18.4,19.9c0.1-4.8,0.4-19,0.3-24
		C76.8,291.1,102.7,320.7,144.6,335.1"/>
	<path class="st4" d="M144.6,335.1l-2.6,20.6c-35.6-1.3-96.9-60.4-101.5-100.7c5.2,3.9,13.4,16.3,18.4,19.9c0.1-4.8,0.4-19,0.3-24
		C76.8,291.1,102.7,320.7,144.6,335.1z"/>
	<path class="st9" d="M256.5,176.8c3.4,34.9-5.3,62.7-29.3,84.6c39.8,3.9,64.9-22.8,73.1-42.5C298.8,208.5,268.9,192.4,256.5,176.8"
		/>
	<path class="st4" d="M256.5,176.8c3.4,34.9-5.3,62.7-29.3,84.6c39.8,3.9,64.9-22.8,73.1-42.5C298.8,208.5,268.9,192.4,256.5,176.8z
		"/>
	<path class="st11" d="M226.6,121.6L254,74.1c12.3,10.2,19.6,23.7,24.9,36.7c3.6-3.9,7.1-7.7,10.9-11.8c14.2,39.9,24,89.7,10.6,120
		c-3.6-11.5-34.6-27.5-44-42C253.4,152.5,235.8,128.8,226.6,121.6"/>
	<path class="st12" d="M226.6,121.6L254,74.1c12.3,10.2,19.6,23.7,24.9,36.7c3.6-3.9,7.1-7.7,10.9-11.8c14.2,39.9,24,89.7,10.6,120
		c-3.6-11.5-34.6-27.5-44-42C253.4,152.5,235.8,128.8,226.6,121.6z"/>
	<path class="st9" d="M123.8,176.7c-1.3,10.7-1.2,20.7,0.2,29.9c3,20.8,12.4,38.1,29.9,53.6c-32.7,1.9-57.3-15.1-69.8-37.4
		C88,211.4,109.5,194.2,123.8,176.7"/>
	<path class="st4" d="M123.8,176.7c-1.3,10.7-1.2,20.7,0.2,29.9c3,20.8,12.4,38.1,29.9,53.6c-32.7,1.9-57.3-15.1-69.8-37.4
		C88,211.4,109.5,194.2,123.8,176.7z"/>
	<path class="st11" d="M158.5,117.3l-17.6-44.6c-11.2,10.8-22,23.6-26.5,36.8L99.3,97.6c-12.7,46.7-31.4,89.5-14.7,125.5
		c-1.1-10,31.9-34.5,40.1-49.4C129.2,144.2,147.4,124.9,158.5,117.3"/>
	<path class="st4" d="M158.5,117.3l-17.6-44.6c-11.2,10.8-22,23.6-26.5,36.8L99.3,97.6c-12.7,46.7-31.4,89.5-14.7,125.5
		c-1.1-10,31.9-34.5,40.1-49.4C129.2,144.2,147.4,124.9,158.5,117.3z"/>
	<polygon class="st7" points="287.1,130.7 283.8,121.2 280.3,130.9 271.2,131.1 279.2,135.7 274.8,146.1 284.7,139.3 293.4,145.4 
		289,135.2 296.7,130.5 	"/>
	<polygon class="st4" points="287.1,130.7 283.8,121.2 280.3,130.9 271.2,131.1 279.2,135.7 274.8,146.1 284.7,139.3 293.4,145.4 
		289,135.2 296.7,130.5 	"/>
	<polygon class="st7" points="109.4,120.1 106.2,111.1 102.9,120.3 94.3,120.4 101.9,124.9 97.7,134.7 107.1,128.3 115.3,134 
		111.2,124.3 118.5,119.9 	"/>
	<polygon class="st4" points="109.4,120.1 106.2,111.1 102.9,120.3 94.3,120.4 101.9,124.9 97.7,134.7 107.1,128.3 115.3,134 
		111.2,124.3 118.5,119.9 	"/>
	<polygon class="st7" points="139.5,89.4 136.9,82.2 134.3,89.5 127.5,89.7 133.5,93.2 130.2,101.1 137.6,95.9 144.2,100.5 
		140.9,92.8 146.7,89.3 	"/>
	<polygon class="st4" points="139.5,89.4 136.9,82.2 134.3,89.5 127.5,89.7 133.5,93.2 130.2,101.1 137.6,95.9 144.2,100.5 
		140.9,92.8 146.7,89.3 	"/>
	<polygon class="st7" points="259.9,91.5 257,83.3 254,91.7 246.2,91.8 253.1,95.9 249.3,104.8 257.8,99 265.3,104.2 261.6,95.4 
		268.2,91.3 	"/>
	<polygon class="st4" points="259.9,91.5 257,83.3 254,91.7 246.2,91.8 253.1,95.9 249.3,104.8 257.8,99 265.3,104.2 261.6,95.4 
		268.2,91.3 	"/>
	<polygon class="st3" points="226,122.2 258.4,68.3 267.5,60.9 265.6,46.9 254.2,57.1 253.1,65.6 223,119.1 	"/>
	<polygon class="st13" points="226,122.2 258.4,68.3 267.5,60.9 265.6,46.9 254.2,57.1 253.1,65.6 223,119.1 	"/>
	<polygon class="st3" points="159.8,117.2 136,64.4 128.4,56.6 131.7,44.1 141.1,54.6 141.2,62.5 162.9,114.7 	"/>
	<polygon class="st14" points="159.8,117.2 136,64.4 128.4,56.6 131.7,44.1 141.1,54.6 141.2,62.5 162.9,114.7 	"/>
	<path class="st7" d="M202.9,80.7c6.1,0.8,7.1-1.1,8.6-3.9c0.1-5.3-0.7-11.2-6.4-14.2c-8.1-0.4-16,1.3-22.1,8.8
		c-6.9,7.3-6.5,17-5.8,21.8c1.8,6.2,1.4,6.8,9.7,7.7c7.5,0.4,15,0.8,22.5,1.1c3-1.4,4.5-5.2,3-8.7C210.9,85.5,208.1,85.3,202.9,80.7
		"/>
	<path class="st4" d="M202.9,80.7c6.1,0.8,7.1-1.1,8.6-3.9c0.1-5.3-0.7-11.2-6.4-14.2c-8.1-0.4-16,1.3-22.1,8.8
		c-6.9,7.3-6.5,17-5.8,21.8c1.8,6.2,1.4,6.8,9.7,7.7c7.5,0.4,15,0.8,22.5,1.1c3-1.4,4.5-5.2,3-8.7C210.9,85.5,208.1,85.3,202.9,80.7
		z"/>
	<path class="st4" d="M204.9,101.3c-4.9-7.5-15.1-5.6-20.2-1.2"/>
	
		<rect x="191.6" y="101.2" transform="matrix(0.9997 -2.248850e-02 2.248850e-02 0.9997 -2.3093 4.3922)" class="st7" width="5.1" height="7.2"/>
	
		<rect x="191.6" y="101.2" transform="matrix(0.9997 -2.248850e-02 2.248850e-02 0.9997 -2.3093 4.3922)" class="st4" width="5.1" height="7.2"/>
	<path class="st3" d="M196.1,75.3c2.5-0.1,4.6,1.9,4.6,4.4c0.1,2.5-1.9,4.5-4.4,4.6c-2.5,0.1-4.6-1.9-4.6-4.4
		C191.6,77.4,193.6,75.3,196.1,75.3"/>
	<path class="st4" d="M196.1,75.3c2.5-0.1,4.6,1.9,4.6,4.4c0.1,2.5-1.9,4.5-4.4,4.6c-2.5,0.1-4.6-1.9-4.6-4.4
		C191.6,77.4,193.6,75.3,196.1,75.3z"/>
	<path class="st9" d="M241.8,286.5c7.4-4.6,9-8.5,8.6-19.3c3.8,0.8,6.3-0.7,6.4,5.4c11.2-4.6,23.7-14.2,36.6-25.5
		c9.9-9.7,16.5-23.5,22.2-35.5c2.2-12.5,3.2-5.1,3.2-34.2c0-7.9-0.3-19.6-0.4-33.4c-6.3-8.1-8.8-19.1-10.6-30.8
		c-10.2-2.5-9.7-2.9-10.1-6.7c7.6-2.8,11.1,6.8,10.9,4.2c-1.3-13.1-2.1-30.8,2.9-35.4c2.6,5.1,6.3,8.3,4.6,17.5l-5,16.5
		c1.7-2.3,5-3.7,10.2-3.9c4.2,0.6,6.9,3.5,10.3,6.3c-5.6,0.1-10.4,2.5-17.3-1.5l-3.4,2.8c-0.1,10.2,1.9,20.7,9.6,29.4
		c1.1-6.9-1.4-15.5,5.4-22.7c-0.3,3.6,2.3,7.7,2.2,11.2c-0.1,3.6-4,8.5-4.1,12c3.6-1.6,6.3-6.2,10.1-8c4.1-2,9.4-1.2,13.7-3.2
		c-3.7,13.2-14,12.2-24.6,14.3c7.3,7.9,11.6,11.1,5.3,27.5c-3.1-6-3-16.5-4.5-23c-0.4-1.4-2.1,1.4-2.4,0.1l-0.2,46.6l6.1,0
		c1.2-7.1-3.3-14.6,16.9-22.5c0.2,8.4-9.1,14.2-13.5,21.2c7.7-5.5,15.4-12.2,25-13.3c-3,7.5-11.8,17.3-22.6,16.7c0,1-4-1.1-4,0.4
		c7.5,5.7,5.3,16.6,0.8,18.8c-3.3-5.8-1.7-12.4-8.3-17.6c-5.4,22-12.1,34.6-25,48.7c1.9,0,3.1-0.6,5.2-0.6c2.1-1.6,6.4-0.5,8.5-0.5
		c-1-5.7,4.4-14.6,14.8-16.9c1.5,4.5-5.8,11.7-13.2,17.2c6.4-1,11.3-2,16.7-0.4c-2.7,4.2-10.5,12.7-25.9,3c-1-0.3-2.1,1.1-3.1,0.8
		c9.9,11.7,8.7,20.7,0.5,23.4c-2.7-9.1,1.7-18.3-5.3-23.9c-6.2,5.1-12.5,9.8-18.5,14.7c-3.6,3-15.2,7.2-18.9,10.2
		c-0.1,1.9-1.5,4-0.9,5.4c12.2-7.7,19.5-8.4,26.9-5.4c-3.3,5.9-10.4,8.2-23.9,8.6c9,2.9,21.7,1.8,27.1,11.5
		c-9.8-3.1-14.6,8.6-31.1-9.5c3.9,9.6,10.6,14.9-1.1,21.1c1-8.3-2-12-2.9-17.9C249.7,288.2,247.4,286.5,241.8,286.5"/>
	<path class="st4" d="M241.8,286.5c7.4-4.6,9-8.5,8.6-19.3c3.8,0.8,6.3-0.7,6.4,5.4c11.2-4.6,23.7-14.2,36.6-25.5
		c9.9-9.7,16.5-23.5,22.2-35.5c2.2-12.5,3.2-5.1,3.2-34.2c0-7.9-0.3-19.6-0.4-33.4c-6.3-8.1-8.8-19.1-10.6-30.8
		c-10.2-2.5-9.7-2.9-10.1-6.7c7.6-2.8,11.1,6.8,10.9,4.2c-1.3-13.1-2.1-30.8,2.9-35.4c2.6,5.1,6.3,8.3,4.6,17.5l-5,16.5
		c1.7-2.3,5-3.7,10.2-3.9c4.2,0.6,6.9,3.5,10.3,6.3c-5.6,0.1-10.4,2.5-17.3-1.5l-3.4,2.8c-0.1,10.2,1.9,20.7,9.6,29.4
		c1.1-6.9-1.4-15.5,5.4-22.7c-0.3,3.6,2.3,7.7,2.2,11.2c-0.1,3.6-4,8.5-4.1,12c3.6-1.6,6.3-6.2,10.1-8c4.1-2,9.4-1.2,13.7-3.2
		c-3.7,13.2-14,12.2-24.6,14.3c7.3,7.9,11.6,11.1,5.3,27.5c-3.1-6-3-16.5-4.5-23c-0.4-1.4-2.1,1.4-2.4,0.1l-0.2,46.6l6.1,0
		c1.2-7.1-3.3-14.6,16.9-22.5c0.2,8.4-9.1,14.2-13.5,21.2c7.7-5.5,15.4-12.2,25-13.3c-3,7.5-11.8,17.3-22.6,16.7c0,1-4-1.1-4,0.4
		c7.5,5.7,5.3,16.6,0.8,18.8c-3.3-5.8-1.7-12.4-8.3-17.6c-5.4,22-12.1,34.6-25,48.7c1.9,0,3.1-0.6,5.2-0.6c2.1-1.6,6.4-0.5,8.5-0.5
		c-1-5.7,4.4-14.6,14.8-16.9c1.5,4.5-5.8,11.7-13.2,17.2c6.4-1,11.3-2,16.7-0.4c-2.7,4.2-10.5,12.7-25.9,3c-1-0.3-2.1,1.1-3.1,0.8
		c9.9,11.7,8.7,20.7,0.5,23.4c-2.7-9.1,1.7-18.3-5.3-23.9c-6.2,5.1-12.5,9.8-18.5,14.7c-3.6,3-15.2,7.2-18.9,10.2
		c-0.1,1.9-1.5,4-0.9,5.4c12.2-7.7,19.5-8.4,26.9-5.4c-3.3,5.9-10.4,8.2-23.9,8.6c9,2.9,21.7,1.8,27.1,11.5
		c-9.8-3.1-14.6,8.6-31.1-9.5c3.9,9.6,10.6,14.9-1.1,21.1c1-8.3-2-12-2.9-17.9C249.7,288.2,247.4,286.5,241.8,286.5z"/>
	<path class="st4" d="M188,108.4c37.2-0.8,68.2,35.6,69.2,81.3c1.1,45.7-28.3,83.5-65.4,84.3c-37.2,0.8-68.2-35.6-69.2-81.3
		C121.5,147.1,150.9,109.3,188,108.4z"/>
	<path class="st9" d="M137.8,285.3c-6.8-5-8.2-8.9-7.1-19.8c-3.7,0.6-6-1-6.4,5c-10.5-5.2-21.9-15.4-33.5-27.4
		c-8.9-10.2-14.5-24.3-19.2-36.6c-1.3-12.6-2.8-5.2-1.1-34.3c0.5-7.9,1.4-19.6,2.4-33.4c6.5-7.8,9.6-18.6,12-30.2
		c9.9-2,9.4-2.4,10.1-6.1c-7.1-3.2-11.1,6.2-10.7,3.6c2.1-13,3.8-30.7-0.6-35.5c-2.8,5-6.5,8-5.4,17.2l3.8,16.7
		c-1.5-2.4-4.5-4-9.5-4.4c-4.1,0.4-6.8,3.1-10.2,5.8c5.3,0.4,9.8,3,16.7-0.6l3.1,3c-0.5,10.2-3,20.5-10.9,28.9
		c-0.6-7,2.3-15.4-3.8-23c0,3.6-2.6,7.6-2.7,11c-0.1,3.6,3.3,8.7,3.2,12.2c-3.4-1.8-5.7-6.5-9.2-8.5c-3.8-2.2-8.9-1.7-12.9-4
		c2.8,13.4,12.7,12.9,22.7,15.7c-7.5,7.5-11.8,10.5-6.7,27.1c3.3-5.8,3.8-16.3,5.7-22.7c0.4-1.3,1.9,1.5,2.3,0.2L67,191.9l-5.8-0.3
		c-0.8-7.1,4-14.4-14.9-23.3c-0.7,8.4,7.9,14.6,11.6,21.9c-7.1-5.9-14-13.1-23.1-14.6c2.4,7.6,10.3,17.9,20.7,17.9
		c-0.1,1,3.9-0.9,3.8,0.6c-7.5,5.3-6,16.3-1.9,18.7c3.5-5.6,2.3-12.3,9-17.1c3.9,22.3,9.5,35.2,21.1,49.9c-1.8-0.1-3-0.8-5-0.9
		c-1.9-1.7-6.1-0.8-8.1-1c1.3-5.6-3.3-14.8-13.2-17.6c-1.7,4.4,4.9,12,11.6,17.9c-6.1-1.3-10.7-2.6-16-1.3
		c2.3,4.3,9.3,13.2,24.6,4.4c1-0.3,1.9,1.2,2.9,0.9c-10.1,11.1-9.5,20.2-1.9,23.4c3.1-8.9-0.5-18.4,6.4-23.5
		c5.6,5.5,11.4,10.4,16.8,15.7c3.3,3.2,14.1,8,17.5,11.3c0,1.9,1.2,4.1,0.6,5.4c-11.2-8.3-18.2-9.4-25.4-6.9
		c2.9,6.1,9.5,8.7,22.3,9.9c-8.8,2.4-20.9,0.6-26.7,10c9.6-2.5,13.5,9.4,30.3-7.8c-4.3,9.3-11.1,14.3-0.2,21.1
		c-0.5-8.3,2.6-11.9,3.8-17.7C130.1,286.6,132.4,285.1,137.8,285.3"/>
	<path class="st15" d="M137.8,285.3c-6.8-5-8.2-8.9-7.1-19.8c-3.7,0.6-6-1-6.4,5c-10.5-5.2-21.9-15.4-33.5-27.4
		c-8.9-10.2-14.5-24.3-19.2-36.6c-1.3-12.6-2.8-5.2-1.1-34.3c0.5-7.9,1.4-19.6,2.4-33.4c6.5-7.8,9.6-18.6,12-30.2
		c9.9-2,9.4-2.4,10.1-6.1c-7.1-3.2-11.1,6.2-10.7,3.6c2.1-13,3.8-30.7-0.6-35.5c-2.8,5-6.5,8-5.4,17.2l3.8,16.7
		c-1.5-2.4-4.5-4-9.5-4.4c-4.1,0.4-6.8,3.1-10.2,5.8c5.3,0.4,9.8,3,16.7-0.6l3.1,3c-0.5,10.2-3,20.5-10.9,28.9
		c-0.6-7,2.3-15.4-3.8-23c0,3.6-2.6,7.6-2.7,11c-0.1,3.6,3.3,8.7,3.2,12.2c-3.4-1.8-5.7-6.5-9.2-8.5c-3.8-2.2-8.9-1.7-12.9-4
		c2.8,13.4,12.7,12.9,22.7,15.7c-7.5,7.5-11.8,10.5-6.7,27.1c3.3-5.8,3.8-16.3,5.7-22.7c0.4-1.3,1.9,1.5,2.3,0.2L67,191.9l-5.8-0.3
		c-0.8-7.1,4-14.4-14.9-23.3c-0.7,8.4,7.9,14.6,11.6,21.9c-7.1-5.9-14-13.1-23.1-14.6c2.4,7.6,10.3,17.9,20.7,17.9
		c-0.1,1,3.9-0.9,3.8,0.6c-7.5,5.3-6,16.3-1.9,18.7c3.5-5.6,2.3-12.3,9-17.1c3.9,22.3,9.5,35.2,21.1,49.9c-1.8-0.1-3-0.8-5-0.9
		c-1.9-1.7-6.1-0.8-8.1-1c1.3-5.6-3.3-14.8-13.2-17.6c-1.7,4.4,4.9,12,11.6,17.9c-6.1-1.3-10.7-2.6-16-1.3
		c2.3,4.3,9.3,13.2,24.6,4.4c1-0.3,1.9,1.2,2.9,0.9c-10.1,11.1-9.5,20.2-1.9,23.4c3.1-8.9-0.5-18.4,6.4-23.5
		c5.6,5.5,11.4,10.4,16.8,15.7c3.3,3.2,14.1,8,17.5,11.3c0,1.9,1.2,4.1,0.6,5.4c-11.2-8.3-18.2-9.4-25.4-6.9
		c2.9,6.1,9.5,8.7,22.3,9.9c-8.8,2.4-20.9,0.6-26.7,10c9.6-2.5,13.5,9.4,30.3-7.8c-4.3,9.3-11.1,14.3-0.2,21.1
		c-0.5-8.3,2.6-11.9,3.8-17.7C130.1,286.6,132.4,285.1,137.8,285.3z"/>
	<polygon class="st3" points="245.3,143.2 294.6,103.7 305.7,99.8 308.9,86.1 294.6,91.7 290.6,99.3 243.7,139.2 	"/>
	<polygon class="st16" points="245.3,143.2 294.6,103.7 305.7,99.8 308.9,86.1 294.6,91.7 290.6,99.3 243.7,139.2 	"/>
	<polygon class="st3" points="142.8,133.2 98.7,95.8 89,92.4 85.7,78.8 98.2,83.8 102,91.2 144.1,129.1 	"/>
	<polygon class="st4" points="142.8,133.2 98.7,95.8 89,92.4 85.7,78.8 98.2,83.8 102,91.2 144.1,129.1 	"/>
	<line class="st4" x1="220.6" y1="201.4" x2="229.6" y2="201.2"/>
	<path class="st2" d="M231.5,260.9c10.6-10.3,20-23.6,27.6-43.7c-3.4,17.9-11.3,31.3-22.2,44C235.1,260.8,233.1,261.1,231.5,260.9"
		/>
	<path class="st2" d="M242.7,260.6c8.9-10.4,16.5-23.1,21.8-42.3c-1.6,16.8-7.5,29.3-16.4,41.9C246.4,260,244.2,260.6,242.7,260.6"
		/>
	<path class="st2" d="M253.4,258.6c8-9.5,14.4-20.9,18.9-38.4c-1.2,15.2-5.5,25.1-13.5,36.5C257.3,256.6,254.7,258.6,253.4,258.6"/>
	<path class="st2" d="M265.1,254.4c6.4-8.8,12.5-18.5,15.2-34.3c0,13.7-3.5,20.6-9,31.1C270,251.1,266.3,254.4,265.1,254.4"/>
	<path class="st2" d="M278.3,246.6c3.2-6.3,8.4-14.1,8.5-24.5c1.4,8.8-1.4,13.5-3.7,20.8C282.2,243,279.1,246.5,278.3,246.6"/>
	<path class="st2" d="M288.6,236.6c2.7-6.5,7.9-17.5,7.9-27.8c2.2,8.6-0.6,15.2-2.3,22.7C293.3,231.7,289.3,236.4,288.6,236.6"/>
	<path class="st2" d="M245.1,138.4c-0.9-5.7-6.5-10.5-11.3-17.4c6,4.1,12.4,8.7,14,15C247.3,136.5,245.5,137.9,245.1,138.4"/>
	<polygon class="st9" points="153.8,304.9 246.2,283.5 247.9,286.7 155.5,308.1 	"/>
	<polygon class="st4" points="153.8,304.9 246.2,283.5 247.9,286.7 155.5,308.1 	"/>
	<path class="st2" d="M250.2,133.9c-2.1-7.9-2.1-5.5-9.8-14.7c7.8,6.6,9.9,6.4,13,10.8C252.8,130.7,250.8,133.2,250.2,133.9"/>
	<path class="st2" d="M256.6,127.8c-1.7-2.5-5-5.4-11-10.1c5.7,2,10.2,4.3,13.5,8.1C258.6,126.3,256.9,127.3,256.6,127.8"/>
	<path class="st2" d="M261.7,124.4c-2.1-3.4-4.3-4.2-9.7-9c6.9,1.7,7.8,2.7,12.3,6.7C263.7,122.8,262.1,123.8,261.7,124.4"/>
	<path class="st2" d="M265.5,120.9c-2-3.7-3.6-4.6-8.7-8.2c4.8,2.4,8.7,2,11.5,5.7C268.1,118.8,265.7,120.5,265.5,120.9"/>
	<path class="st2" d="M270,117.1c-2.3-3.5-1.8-2.4-6.9-6c5,2,5.4,0.6,8.5,4.1C271.4,115.7,270.2,116.7,270,117.1"/>
	<path class="st2" d="M273.4,113.2c-1.7-2.6-1.4-1.8-5.1-4.5c3.7,1.5,4,0.5,6.3,3C274.5,112.1,273.6,112.9,273.4,113.2"/>
	<path class="st2" d="M142.6,127.4c1-4.3,5.9-7.8,10.1-12.9c-5.2,2.9-10.7,6.1-12.3,10.9C140.9,125.8,142.3,127.1,142.6,127.4"/>
	<path class="st2" d="M138.6,123.7c2.1-6,2-4.2,8.8-10.9c-6.8,4.7-8.5,4.4-11.3,7.7C136.6,121.1,138.2,123.1,138.6,123.7"/>
	<path class="st2" d="M133.6,118.7c1.5-1.8,4.4-3.9,9.6-7.2c-4.8,1.2-8.7,2.8-11.6,5.6C131.9,117.4,133.3,118.3,133.6,118.7"/>
	<path class="st2" d="M129.5,115.8c1.9-2.5,3.8-3,8.5-6.4c-5.8,1-6.6,1.7-10.5,4.6C127.9,114.4,129.2,115.3,129.5,115.8"/>
	<path class="st2" d="M126.5,112.9c1.8-2.8,3.2-3.3,7.6-5.9c-4.1,1.6-7.3,1.1-9.8,3.8C124.4,111.2,126.3,112.6,126.5,112.9"/>
	<polygon class="st9" points="134.4,282.3 221.1,307.9 219.7,311.4 132.9,285.6 	"/>
	<polygon class="st4" points="134.4,282.3 221.1,307.9 219.7,311.4 132.9,285.6 	"/>
	<path class="st2" d="M122.9,109.8c2.1-2.6,1.6-1.8,6-4.3c-4.3,1.3-4.5,0.2-7.3,2.7C121.8,108.6,122.7,109.4,122.9,109.8"/>
	<path class="st2" d="M120.2,106.5c1.5-2,1.2-1.3,4.5-3.2c-3.2,0.9-3.4,0.2-5.4,2C119.4,105.7,120.1,106.3,120.2,106.5"/>
	<path class="st2" d="M143.6,259.7c-9.2-10.4-18.2-24.2-24.8-44.5c3,18.1,10,31.6,19.4,44.3C139.7,259,142.2,259.9,143.6,259.7"/>
	<path class="st2" d="M133.7,259.2c-7.7-10.5-14.9-23.6-19.6-43c1.5,17,6.7,29.6,14.5,42.2C130,258.2,132.4,259.3,133.7,259.2"/>
	<path class="st2" d="M124.2,257c-6.9-9.6-12.5-21-16.6-38.6c1.2,15.4,5,25.2,11.9,36.8C120.8,255,123,257.1,124.2,257"/>
	<path class="st2" d="M114,252c-5.6-8.8-11-18-13.5-33.9c0.1,13.8,3.2,20.8,8,31.4C109.7,249.4,112.9,252,114,252"/>
	<path class="st2" d="M101.7,244.1c-2.8-6.3-6.5-13.4-6.7-23.8c-1.2,8.9,0.3,13.6,2.4,21C98.2,241.3,101,243.9,101.7,244.1"/>
	<path class="st2" d="M93.9,235.7c-2.3-6.5-6.7-15.8-6.9-26.2c-1.8,8.7,0.1,11.9,1.7,19.4C89.5,229,93.3,235.5,93.9,235.7"/>
	<polygon class="st3" points="151.6,273.1 238.6,286.8 237.5,291 150.3,276.8 	"/>
	<polygon class="st4" points="151.6,273.1 238.6,286.8 237.5,291 150.3,276.8 	"/>
	<polygon class="st3" points="141.1,289.9 228.4,278.3 228.4,274.9 140.8,286.3 	"/>
	<polygon class="st4" points="141.1,289.9 228.4,278.3 228.4,274.9 140.8,286.3 	"/>
	<path class="st7" d="M139,263.5c-2.2,4-3,12.7,2.2,13.4c6.5,0.9,7.5-9.1,5.6-12.5c6.7,3.6,4.6,12,2.1,15.1c-2.6,2.1-5,2.7-8,2.9
		c-4.9-1.1-4.8-3-7.1-5.5C132.9,272.9,132.6,265.9,139,263.5"/>
	<path class="st4" d="M139,263.5c-2.2,4-3,12.7,2.2,13.4c6.5,0.9,7.5-9.1,5.6-12.5c6.7,3.6,4.6,12,2.1,15.1c-2.6,2.1-5,2.7-8,2.9
		c-4.9-1.1-4.8-3-7.1-5.5C132.9,272.9,132.6,265.9,139,263.5z"/>
	<path class="st7" d="M232.9,264.6c-1.8,4.2-1.9,12.9,3.4,13.2c6.5,0.3,6.6-9.7,4.5-13c7,3.1,5.7,11.5,3.4,14.9
		c-2.4,2.3-4.7,3.1-7.7,3.6c-5-0.7-5-2.6-7.6-4.9C227.7,274.5,226.8,267.5,232.9,264.6"/>
	<path class="st16" d="M232.9,264.6c-1.8,4.2-1.9,12.9,3.4,13.2c6.5,0.3,6.6-9.7,4.5-13c7,3.1,5.7,11.5,3.4,14.9
		c-2.4,2.3-4.7,3.1-7.7,3.6c-5-0.7-5-2.6-7.6-4.9C227.7,274.5,226.8,267.5,232.9,264.6z"/>
	<path class="st3" d="M143,259.2c2.6-0.1,4.7,2,4.8,4.5c0.1,2.6-2,4.7-4.6,4.8c-2.6,0.1-4.8-2-4.8-4.5
		C138.4,261.4,140.4,259.3,143,259.2"/>
	<path class="st4" d="M143,259.2c2.6-0.1,4.7,2,4.8,4.5c0.1,2.6-2,4.7-4.6,4.8c-2.6,0.1-4.8-2-4.8-4.5
		C138.4,261.4,140.4,259.3,143,259.2z"/>
	<path class="st3" d="M237,261.1c2.6-0.1,4.7,2,4.8,4.5c0.1,2.6-2,4.7-4.6,4.8c-2.6,0-4.8-2-4.8-4.6
		C232.3,263.3,234.4,261.2,237,261.1"/>
	<path class="st4" d="M237,261.1c2.6-0.1,4.7,2,4.8,4.5c0.1,2.6-2,4.7-4.6,4.8c-2.6,0-4.8-2-4.8-4.6
		C232.3,263.3,234.4,261.2,237,261.1z"/>
	<polygon class="st17" points="95.9,464.1 97.5,464.1 102,474.9 106.5,464.1 108.1,464.1 102.5,477.4 101.5,477.4 	"/>
	<rect x="111" y="464.1" class="st17" width="1.5" height="13.3"/>
	<path class="st17" d="M116.7,473.9c0.6,1.4,1.6,2.4,3.3,2.4c2.4,0,2.7-1.7,2.7-2.3c0-1.6-1.1-2.1-3-3c-2-0.9-3.5-1.7-3.5-3.8
		c0-1.9,1.5-3.3,3.6-3.3c1.7,0,2.8,0.7,3.6,2.1l-1.3,0.6c-0.5-0.9-1.2-1.4-2.3-1.4c-1.2,0-2.1,0.8-2.1,1.9c0,1.4,1.1,1.9,2.7,2.6
		c2.4,1.1,3.8,2,3.8,4.2c0,2.1-1.4,3.7-4.2,3.7c-2,0-3.8-1-4.6-3.2L116.7,473.9z"/>
	<path class="st17" d="M131.4,464.1h1.1l5.6,13.3h-1.6l-1.4-3.3h-6.4l-1.4,3.3h-1.6L131.4,464.1z M130.9,461.2c1,0,1.5,0.7,2.2,0.7
		c0.5,0,0.7-0.2,0.9-0.8l0.9,0.1c-0.1,1.1-0.6,1.9-1.8,1.9c-1,0-1.5-0.7-2.2-0.7c-0.4,0-0.7,0.2-0.8,0.7l-0.9-0.1
		C129.3,461.9,129.9,461.2,130.9,461.2 M134.6,472.8l-2.6-6.3l-2.6,6.3H134.6z"/>
	<path class="st17" d="M146.3,463.9c3.8,0,6.9,2.9,6.9,6.9c0,4-3.1,6.9-6.9,6.9c-3.8,0-6.9-2.9-6.9-6.9
		C139.4,466.8,142.4,463.9,146.3,463.9 M146.3,476.3c3.1,0,5.4-2.4,5.4-5.5c0-3.2-2.3-5.5-5.4-5.5c-3.1,0-5.4,2.4-5.4,5.5
		C140.8,474,143.1,476.3,146.3,476.3"/>
	<path class="st17" d="M163.9,464.1h4.3c4.3,0,6.9,2.7,6.9,6.6c0,3.9-2.5,6.6-6.8,6.6h-4.3V464.1z M168,476c3.7,0,5.5-2.2,5.5-5.3
		c0-3.1-1.8-5.3-5.5-5.3h-2.7V476H168z"/>
	<polygon class="st17" points="178.1,464.1 185.6,464.1 185.6,465.5 179.5,465.5 179.5,469.7 185.2,469.7 185.2,471.1 179.5,471.1 
		179.5,476 185.7,476 185.7,477.4 178.1,477.4 	"/>
	<polygon class="st17" points="197.1,464.1 204.1,464.1 204.1,465.5 198.6,465.5 198.6,469.8 203.6,469.8 203.6,471.2 198.6,471.2 
		198.6,477.4 197.1,477.4 	"/>
	<path class="st17" d="M207,464.1h1.5v8.5c0,2.4,1.4,3.7,3.5,3.7c2.1,0,3.5-1.2,3.5-3.7v-8.5h1.5v8.6c0,3.2-2.1,4.9-5,4.9
		c-2.9,0-5-1.7-5-4.9V464.1z"/>
	<polygon class="st17" points="223.2,465.5 219.6,465.5 219.6,464.1 228.3,464.1 228.3,465.5 224.7,465.5 224.7,477.4 223.2,477.4 	
		"/>
	<path class="st17" d="M230.9,464.1h1.5v8.5c0,2.4,1.4,3.7,3.5,3.7c2.1,0,3.5-1.2,3.5-3.7v-8.5h1.5v8.6c0,3.2-2.1,4.9-5,4.9
		c-2.9,0-5-1.7-5-4.9V464.1z"/>
	<path class="st17" d="M244.6,464.1h4.5c2.2,0,4,1.7,4,4c0,1.8-1,3.2-2.5,3.8l3.2,5.5h-1.7l-3-5.3h0h-3v5.3h-1.5V464.1z M249,470.8
		c1.5,0,2.6-1.1,2.6-2.7c0-1.5-1.1-2.6-2.6-2.6h-3v5.3H249z"/>
	<path class="st17" d="M262.6,463.9c3.8,0,6.9,2.9,6.9,6.9c0,4-3.1,6.9-6.9,6.9c-3.8,0-6.9-2.9-6.9-6.9
		C255.7,466.8,258.8,463.9,262.6,463.9 M262.6,476.3c3.1,0,5.4-2.4,5.4-5.5c0-3.2-2.3-5.5-5.4-5.5c-3.1,0-5.4,2.4-5.4,5.5
		C257.2,474,259.5,476.3,262.6,476.3"/>
	<path class="st17" d="M271.5,475.6c0.5,0,1,0.4,1,1c0,0.6-0.5,1-1,1c-0.5,0-1-0.4-1-1C270.5,476,271,475.6,271.5,475.6"/>
	<path class="st17" d="M89,482.2c1.8,0,3.4,0.6,4.6,1.7l-0.9,1c-1-0.9-2.2-1.4-3.7-1.4c-3.1,0-5.4,2.4-5.4,5.5
		c0,3.2,2.3,5.5,5.4,5.5c1.4,0,2.7-0.5,3.6-1.3v-3.4h-4.1v-1.4h5.5v5.3c-1.3,1.4-3.1,2.2-5.1,2.2c-3.8,0-6.9-2.9-6.9-6.9
		C82.1,485.1,85.2,482.2,89,482.2"/>
	<path class="st17" d="M103.5,482.2c3.8,0,6.9,2.9,6.9,6.9c0,4-3.1,6.9-6.9,6.9c-3.8,0-6.9-2.9-6.9-6.9
		C96.5,485.1,99.6,482.2,103.5,482.2 M103.5,494.6c3.1,0,5.4-2.4,5.4-5.5c0-3.2-2.3-5.5-5.4-5.5c-3.1,0-5.4,2.4-5.4,5.5
		C98,492.3,100.3,494.6,103.5,494.6"/>
	<polygon class="st17" points="111.5,482.5 113.1,482.5 117.6,493.2 122,482.5 123.6,482.5 118.1,495.7 117,495.7 	"/>
	<polygon class="st17" points="126.4,482.5 133.9,482.5 133.9,483.8 127.9,483.8 127.9,488 133.6,488 133.6,489.4 127.9,489.4 
		127.9,494.4 134.1,494.4 134.1,495.7 126.4,495.7 	"/>
	<path class="st17" d="M137.3,482.5h4.5c2.2,0,4,1.7,4,4c0,1.8-1,3.2-2.5,3.8l3.2,5.5h-1.7l-3-5.3h0h-3v5.3h-1.5V482.5z
		 M141.6,489.1c1.5,0,2.6-1.1,2.6-2.7c0-1.5-1.1-2.6-2.6-2.6h-3v5.3H141.6z"/>
	<polygon class="st17" points="149.2,482.5 150.5,482.5 158.5,493.1 158.5,482.5 160,482.5 160,495.7 158.8,495.7 150.7,485 
		150.7,495.7 149.2,495.7 	"/>
	<path class="st17" d="M169.9,482.2c3.8,0,6.9,2.9,6.9,6.9c0,4-3.1,6.9-6.9,6.9c-3.8,0-6.9-2.9-6.9-6.9
		C163,485.1,166.1,482.2,169.9,482.2 M169.9,494.6c3.1,0,5.4-2.4,5.4-5.5c0-3.2-2.3-5.5-5.4-5.5c-3.1,0-5.4,2.4-5.4,5.5
		C164.5,492.3,166.8,494.6,169.9,494.6"/>
	<path class="st17" d="M187.5,482.5h4.3c4.3,0,6.9,2.7,6.9,6.6c0,3.9-2.5,6.6-6.8,6.6h-4.3V482.5z M191.7,494.4
		c3.7,0,5.5-2.2,5.5-5.3c0-3.1-1.8-5.3-5.5-5.3H189v10.5H191.7z"/>
	<polygon class="st17" points="201.7,482.5 209.2,482.5 209.2,483.8 203.2,483.8 203.2,488 208.9,488 208.9,489.4 203.2,489.4 
		203.2,494.4 209.3,494.4 209.3,495.7 201.7,495.7 	"/>
	<polygon class="st17" points="221.7,483.8 218.1,483.8 218.1,482.5 226.8,482.5 226.8,483.8 223.2,483.8 223.2,495.7 221.7,495.7 	
		"/>
	<path class="st17" d="M234.9,482.2c3.8,0,6.9,2.9,6.9,6.9c0,4-3.1,6.9-6.9,6.9c-3.8,0-6.9-2.9-6.9-6.9
		C228,485.1,231.1,482.2,234.9,482.2 M234.9,494.6c3.1,0,5.4-2.4,5.4-5.5c0-3.2-2.3-5.5-5.4-5.5c-3.1,0-5.4,2.4-5.4,5.5
		C229.4,492.3,231.8,494.6,234.9,494.6"/>
	<path class="st17" d="M244.8,482.5h4.3c4.3,0,6.9,2.7,6.9,6.6c0,3.9-2.5,6.6-6.8,6.6h-4.3V482.5z M249,494.4c3.7,0,5.5-2.2,5.5-5.3
		c0-3.1-1.8-5.3-5.5-5.3h-2.7v10.5H249z"/>
	<path class="st17" d="M265.1,482.2c3.8,0,6.9,2.9,6.9,6.9c0,4-3.1,6.9-6.9,6.9c-3.8,0-6.9-2.9-6.9-6.9
		C258.2,485.1,261.3,482.2,265.1,482.2 M265.1,494.6c3.1,0,5.4-2.4,5.4-5.5c0-3.2-2.3-5.5-5.4-5.5c-3.1,0-5.4,2.4-5.4,5.5
		C259.6,492.3,262,494.6,265.1,494.6"/>
	<path class="st17" d="M275.3,492.2c0.6,1.4,1.6,2.4,3.3,2.4c2.4,0,2.7-1.7,2.7-2.3c0-1.6-1.1-2.1-3-2.9c-2-0.9-3.5-1.7-3.5-3.8
		c0-1.9,1.5-3.3,3.6-3.3c1.7,0,2.8,0.7,3.6,2.1l-1.3,0.6c-0.5-0.9-1.2-1.4-2.3-1.4c-1.2,0-2.1,0.8-2.1,1.9c0,1.4,1.1,1.9,2.7,2.6
		c2.4,1.1,3.8,2,3.8,4.2c0,2.1-1.4,3.7-4.2,3.7c-2,0-3.8-1-4.6-3.2L275.3,492.2z"/>
	<path class="st17" d="M285.5,494c0.5,0,1,0.4,1,1c0,0.6-0.5,1-1,1c-0.5,0-1-0.4-1-1C284.6,494.4,285,494,285.5,494"/>
	<g>
		<defs>
			<polygon id="SVGID_1_" points="184.3,448.5 183.2,448.5 65.3,448.5 65.3,452.9 183.2,452.9 184.3,452.9 303.5,452.9 303.5,448.5 
							"/>
		</defs>
		<clipPath id="SVGID_2_">
			<use xlink:href="#SVGID_1_"  style="overflow:visible;"/>
		</clipPath>
		
			<linearGradient id="SVGID_3_" gradientUnits="userSpaceOnUse" x1="-226.4864" y1="546.2235" x2="-223.9016" y2="546.2235" gradientTransform="matrix(92.1504 0 0 -92.1504 20936.1562 50785.4102)">
			<stop  offset="0" style="stop-color:#F0CF15"/>
			<stop  offset="6.968975e-02" style="stop-color:#E9CD17"/>
			<stop  offset="0.169" style="stop-color:#D7C71D"/>
			<stop  offset="0.2862" style="stop-color:#B8BD26"/>
			<stop  offset="0.4158" style="stop-color:#8DAF32"/>
			<stop  offset="0.4944" style="stop-color:#70A63B"/>
			<stop  offset="0.7269" style="stop-color:#ADB929"/>
			<stop  offset="1" style="stop-color:#F0CF15"/>
		</linearGradient>
		<rect x="65.3" y="448.5" class="st18" width="238.2" height="4.4"/>
	</g>
	<g>
		<defs>
			<path id="SVGID_4_" d="M65.3,367.3h76.3v-4.4H65.3V367.3z M235.4,367.3h68.1v-4.4h-68.1V367.3z"/>
		</defs>
		<clipPath id="SVGID_5_">
			<use xlink:href="#SVGID_4_"  style="overflow:visible;"/>
		</clipPath>
		
			<linearGradient id="SVGID_6_" gradientUnits="userSpaceOnUse" x1="-226.4864" y1="546.7933" x2="-223.9016" y2="546.7933" gradientTransform="matrix(92.1504 0 0 -92.1504 20936.1562 50752.2812)">
			<stop  offset="0" style="stop-color:#F0CF15"/>
			<stop  offset="6.968975e-02" style="stop-color:#E9CD17"/>
			<stop  offset="0.169" style="stop-color:#D7C71D"/>
			<stop  offset="0.2862" style="stop-color:#B8BD26"/>
			<stop  offset="0.4158" style="stop-color:#8DAF32"/>
			<stop  offset="0.4944" style="stop-color:#70A63B"/>
			<stop  offset="0.7269" style="stop-color:#ADB929"/>
			<stop  offset="1" style="stop-color:#F0CF15"/>
		</linearGradient>
		<rect x="65.3" y="362.9" class="st19" width="238.2" height="4.4"/>
	</g>
	<g>
		<path class="st20" d="M98.4,379h9.1l25,59.8h-11.3l-4.9-11.9H89.7l-4.9,11.9H73.5L98.4,379z M113,418.1l-10-24.4l-10,24.4H113z"/>
		<path class="st20" d="M167.8,378c9.5,0,17.9,4.1,23.7,10.7l-7.3,6.3c-4-4.6-9.8-7.3-16.4-7.3c-12,0-21.1,9.1-21.1,21.3
			c0,12.2,9.1,21.2,21.1,21.2c6.6,0,12.5-2.7,16.6-7.5l7.2,6.3c-5.8,6.8-14.3,10.9-23.8,10.9c-17.6,0-31.8-13.1-31.8-30.9
			C136.1,391.1,150.2,378,167.8,378"/>
		<path class="st20" d="M200.4,379h23.3c10.6,0,19.4,8.2,19.4,19c0,7.9-4.5,14.3-10.9,17l14.5,23.9h-12.1l-12.8-21.3h-0.2h-10.5
			v21.3h-10.7V379z M222.5,407.9c5.8,0,9.9-4,9.9-9.8c0-5.5-3.9-9.4-9-9.4h-12.3v19.2H222.5z"/>
		<polygon class="st20" points="256.7,379 294.8,379 294.8,388.7 267.4,388.7 267.4,402.9 293.1,402.9 293.1,412.6 267.4,412.6 
			267.4,429.1 295.4,429.1 295.4,438.8 256.7,438.8 		"/>
		<path class="st21" d="M72.9,292.9l-0.9-1.1c0.4-0.4,0.6-0.8,0.7-1.2c0.1-0.6,0-1.1-0.3-1.6c-0.3-0.4-0.6-0.6-1-0.8
			c-0.5-0.2-1.2-0.2-1.8,0c-0.7,0.2-1.5,0.6-2.5,1.3c0.6,0,1.2,0.1,1.7,0.4c0.5,0.3,0.9,0.6,1.3,1.1c0.6,0.8,0.8,1.7,0.6,2.7
			c-0.2,1-0.8,1.8-1.7,2.5c-0.6,0.4-1.3,0.7-2,0.8c-0.7,0.1-1.4,0-2-0.2c-0.6-0.3-1.1-0.7-1.5-1.3c-0.7-1-0.9-2.1-0.6-3.2
			c0.3-1.2,1.3-2.3,3-3.5c1.9-1.3,3.5-2,4.9-1.9c1.2,0.1,2.1,0.6,2.9,1.7c0.5,0.8,0.8,1.6,0.7,2.4C74,291.5,73.6,292.2,72.9,292.9
			 M65.2,290.9c-0.4,0.3-0.7,0.7-1,1.1c-0.3,0.4-0.4,0.9-0.3,1.4c0,0.5,0.2,0.9,0.4,1.2c0.4,0.5,0.9,0.8,1.5,0.9
			c0.7,0.1,1.4-0.1,2.1-0.6c0.7-0.5,1.1-1,1.2-1.7c0.1-0.6,0-1.2-0.4-1.8c-0.4-0.5-0.9-0.9-1.6-1C66.4,290.3,65.8,290.5,65.2,290.9"
			/>
		
			<rect x="73.3" y="299.6" transform="matrix(0.7725 -0.635 0.635 0.7725 -174.885 115.6814)" class="st21" width="1.5" height="4.5"/>
		<path class="st21" d="M82.1,307.9c-0.3-0.6-0.3-1.1-0.2-1.6c0.1-0.5,0.4-0.9,0.8-1.4c0.6-0.6,1.4-0.9,2.2-0.8
			c0.9,0,1.7,0.4,2.4,1.2c0.7,0.8,1.1,1.6,1.1,2.5c0,0.9-0.3,1.6-0.9,2.2c-0.4,0.4-0.9,0.6-1.4,0.7c-0.5,0.1-1,0-1.6-0.3
			c0.3,0.7,0.4,1.4,0.3,2c-0.1,0.6-0.4,1.2-1,1.7c-0.7,0.7-1.6,1-2.6,1c-1,0-1.9-0.5-2.7-1.4c-0.8-0.9-1.2-1.8-1.2-2.8
			c0-1,0.4-1.9,1.2-2.6c0.6-0.5,1.2-0.8,1.8-0.9C80.9,307.4,81.5,307.5,82.1,307.9 M79.4,309.5c-0.3,0.3-0.5,0.6-0.7,1.1
			c-0.1,0.4-0.2,0.8,0,1.3c0.1,0.4,0.3,0.8,0.6,1.1c0.5,0.5,1.1,0.8,1.7,0.8c0.6,0,1.2-0.2,1.7-0.7c0.5-0.5,0.8-1.1,0.8-1.7
			c0-0.7-0.2-1.3-0.7-1.8c-0.5-0.5-1-0.8-1.7-0.8C80.5,308.8,79.9,309,79.4,309.5 M83.8,306c-0.4,0.4-0.6,0.8-0.6,1.4
			c0,0.5,0.2,1,0.6,1.4c0.4,0.4,0.8,0.6,1.4,0.6c0.5,0,1-0.2,1.3-0.5c0.4-0.4,0.6-0.8,0.6-1.4c0-0.5-0.2-1-0.6-1.4
			c-0.4-0.4-0.8-0.6-1.4-0.6C84.6,305.5,84.1,305.6,83.8,306"/>
		
			<rect x="89.4" y="316.5" transform="matrix(0.6669 -0.7452 0.7452 0.6669 -207.5326 173.3914)" class="st21" width="1.5" height="4.5"/>
		<path class="st21" d="M97.8,330.7l-1.2-0.9l5.7-7.5c-0.5,0.1-1.1,0-1.7,0c-0.7-0.1-1.2-0.2-1.7-0.3l0.9-1.1
			c0.9,0.2,1.8,0.3,2.6,0.2c0.8-0.1,1.5-0.2,2-0.5l0.8,0.6L97.8,330.7z"/>
		<path class="st21" d="M102.7,330.8l1.3,0.7c-0.3,0.6-0.3,1.2-0.2,1.6c0.1,0.4,0.4,0.8,0.8,1.1c0.4,0.2,0.8,0.4,1.2,0.4
			c0.4,0,0.8-0.1,1.2-0.2c0.4-0.2,0.8-0.5,1.2-0.9c0.4-0.4,0.8-0.9,1.2-1.4c0-0.1,0.1-0.1,0.2-0.3c-0.5,0.2-1.1,0.3-1.6,0.3
			c-0.6,0-1.1-0.2-1.6-0.5c-0.8-0.5-1.3-1.3-1.5-2.3c-0.2-1,0-2,0.7-3c0.7-1,1.5-1.6,2.5-1.9c1-0.2,2,0,2.9,0.5
			c0.7,0.4,1.1,1,1.5,1.7c0.3,0.7,0.4,1.5,0.2,2.3c-0.1,0.8-0.6,1.9-1.4,3.1c-0.8,1.3-1.7,2.2-2.4,2.8c-0.8,0.6-1.6,0.9-2.4,0.9
			c-0.8,0-1.6-0.2-2.3-0.7c-0.8-0.5-1.3-1.2-1.5-1.9C102.2,332.5,102.3,331.7,102.7,330.8 M110.7,329.7c0.5-0.7,0.6-1.4,0.5-2.1
			c-0.1-0.7-0.4-1.2-1-1.5c-0.5-0.4-1.2-0.4-1.9-0.3c-0.7,0.2-1.3,0.6-1.7,1.3c-0.4,0.6-0.6,1.3-0.4,1.9c0.1,0.7,0.5,1.2,1,1.5
			c0.6,0.4,1.2,0.5,1.8,0.3C109.7,330.8,110.2,330.4,110.7,329.7"/>
		<path class="st21" d="M112,333c0.7-1.2,1.4-2.2,2.1-2.8c0.7-0.6,1.4-1,2.1-1.1c0.7-0.1,1.5,0,2.2,0.4c0.6,0.3,1,0.7,1.3,1.2
			c0.3,0.5,0.5,1,0.5,1.6c0,0.6,0,1.2-0.2,1.9c-0.2,0.7-0.6,1.6-1.1,2.6c-0.7,1.2-1.4,2.2-2,2.8c-0.7,0.6-1.4,1-2.1,1.1
			c-0.7,0.1-1.5,0-2.3-0.4c-1-0.6-1.6-1.4-1.8-2.4C110.4,336.6,110.9,335,112,333 M113.3,333.8c-1,1.7-1.4,3-1.3,3.8
			c0.1,0.8,0.4,1.4,1,1.7c0.6,0.3,1.3,0.3,2,0c0.7-0.3,1.6-1.4,2.5-3.1c1-1.7,1.4-3,1.3-3.8c-0.1-0.8-0.4-1.4-1-1.7
			c-0.6-0.3-1.2-0.3-1.8,0C115.1,331,114.2,332.1,113.3,333.8"/>
		<path class="st21" d="M125.1,344.8l-0.6,1.3l-7.2-3.4c0.1-0.3,0.3-0.6,0.6-0.9c0.4-0.4,0.9-0.8,1.6-1c0.6-0.3,1.5-0.6,2.5-0.8
			c1.6-0.4,2.8-0.8,3.5-1.2c0.7-0.4,1.1-0.8,1.4-1.3c0.2-0.5,0.3-1.1,0.1-1.6c-0.2-0.5-0.6-1-1.2-1.2c-0.6-0.3-1.3-0.3-1.8-0.1
			c-0.6,0.2-1,0.7-1.3,1.3l-1.3-0.8c0.6-1,1.3-1.6,2.2-1.9c0.9-0.3,1.8-0.1,2.9,0.3c1,0.5,1.7,1.2,2.1,2c0.3,0.9,0.3,1.7-0.1,2.6
			c-0.2,0.4-0.5,0.8-0.9,1.2c-0.4,0.3-0.9,0.6-1.5,0.9c-0.6,0.3-1.6,0.6-3,1c-1.1,0.3-1.8,0.5-2.2,0.7c-0.3,0.1-0.6,0.3-0.9,0.5
			L125.1,344.8z"/>
		<path class="st21" d="M145.8,330.5l-1.4-0.4l2.6-9.1c-0.4,0.2-1,0.4-1.6,0.6c-0.6,0.2-1.2,0.3-1.7,0.3l0.4-1.4
			c0.9-0.1,1.7-0.4,2.5-0.8c0.7-0.4,1.3-0.8,1.7-1.2l0.9,0.3L145.8,330.5z"/>
		<path class="st21" d="M150.3,328.5l1.5,0.2c0,0.8,0.1,1.4,0.4,1.8c0.3,0.5,0.8,0.7,1.4,0.9c0.7,0.1,1.3,0,1.9-0.4
			c0.6-0.4,1-1.1,1.2-1.9c0.2-0.8,0.1-1.5-0.3-2.1c-0.4-0.6-0.9-0.9-1.7-1.1c-0.5-0.1-0.9-0.1-1.3,0.1c-0.4,0.1-0.8,0.3-1.1,0.6
			l-1.3-0.5l2.4-5.8l5.9,1.2l-0.3,1.4l-4.7-1l-1.3,3c0.8-0.3,1.6-0.4,2.4-0.3c1,0.2,1.8,0.7,2.4,1.6c0.6,0.9,0.7,1.8,0.5,3
			c-0.2,1.1-0.7,1.9-1.5,2.6c-1,0.8-2.1,1.1-3.4,0.8c-1.1-0.2-1.9-0.7-2.4-1.4C150.4,330.4,150.2,329.5,150.3,328.5"/>
		
			<rect x="165.3" y="327.7" transform="matrix(0.1202 -0.9928 0.9928 0.1202 -181.552 455.1342)" class="st21" width="1.5" height="4.5"/>
		<path class="st21" d="M181.5,326.4l-1.5,0.1c-0.1-0.6-0.3-1-0.5-1.3c-0.4-0.4-0.9-0.7-1.4-0.7c-0.5,0-0.9,0.1-1.3,0.3
			c-0.5,0.3-0.9,0.8-1.2,1.4c-0.3,0.6-0.5,1.6-0.5,2.8c0.4-0.5,0.8-0.9,1.4-1.1c0.5-0.2,1.1-0.3,1.6-0.3c1,0,1.8,0.4,2.5,1.2
			c0.7,0.8,1,1.7,0.9,2.9c0,0.8-0.2,1.5-0.6,2.1c-0.4,0.6-0.8,1.1-1.4,1.4c-0.6,0.3-1.2,0.5-2,0.4c-1.2-0.1-2.2-0.6-2.9-1.5
			c-0.7-0.9-1.1-2.4-1-4.5c0.1-2.3,0.6-4,1.5-5c0.8-0.9,1.8-1.3,3.1-1.2c0.9,0,1.7,0.3,2.3,0.9C181.1,324.7,181.5,325.5,181.5,326.4
			 M175.3,331.3c0,0.5,0.1,1,0.3,1.5c0.2,0.5,0.5,0.8,0.9,1.1c0.4,0.3,0.8,0.4,1.2,0.4c0.6,0,1.2-0.2,1.6-0.7c0.5-0.5,0.7-1.2,0.8-2
			c0-0.8-0.2-1.5-0.6-2c-0.4-0.5-1-0.8-1.6-0.8c-0.7,0-1.2,0.2-1.7,0.6C175.6,329.9,175.3,330.5,175.3,331.3"/>
		
			<rect x="187.1" y="330.3" transform="matrix(0.9997 -2.443880e-02 2.443880e-02 0.9997 -8.0341 4.7263)" class="st21" width="4.5" height="1.5"/>
		<path class="st21" d="M202.9,334.6l-1.5,0.1l-0.8-9.4c-0.3,0.4-0.8,0.7-1.3,1.1c-0.5,0.4-1,0.7-1.5,0.9l-0.1-1.4
			c0.8-0.5,1.5-1,2-1.6c0.6-0.6,1-1.2,1.2-1.7l0.9-0.1L202.9,334.6z"/>
		<path class="st21" d="M206.6,331.4l1.4-0.3c0.2,0.6,0.5,1.1,0.9,1.3c0.4,0.3,0.8,0.3,1.4,0.3c0.4-0.1,0.8-0.2,1.1-0.5
			c0.3-0.3,0.6-0.6,0.7-0.9c0.2-0.4,0.3-0.9,0.4-1.5c0.1-0.6,0.1-1.2,0-1.8c0-0.1,0-0.2,0-0.3c-0.2,0.5-0.6,0.9-1,1.3
			c-0.5,0.4-1,0.6-1.6,0.7c-1,0.1-1.9-0.1-2.6-0.7c-0.8-0.6-1.3-1.5-1.4-2.7c-0.2-1.2,0.1-2.2,0.7-3.1c0.6-0.8,1.5-1.3,2.5-1.5
			c0.8-0.1,1.5,0,2.2,0.3c0.7,0.3,1.3,0.9,1.7,1.6c0.4,0.7,0.8,1.8,1,3.3c0.2,1.5,0.2,2.8,0,3.7c-0.2,0.9-0.6,1.7-1.2,2.3
			c-0.6,0.6-1.3,0.9-2.2,1c-0.9,0.1-1.7,0-2.4-0.5C207.3,333,206.8,332.3,206.6,331.4 M211.8,325.3c-0.1-0.8-0.4-1.5-0.9-1.9
			c-0.5-0.4-1.1-0.6-1.7-0.5c-0.6,0.1-1.2,0.4-1.6,1c-0.4,0.6-0.6,1.3-0.4,2.2c0.1,0.8,0.4,1.3,0.9,1.7c0.5,0.4,1.1,0.6,1.8,0.5
			c0.7-0.1,1.2-0.4,1.6-0.9C211.8,326.9,212,326.2,211.8,325.3"/>
		<path class="st21" d="M221.9,322.6l-1.4,0.4c-0.2-0.5-0.5-0.9-0.8-1.1c-0.5-0.3-1-0.5-1.6-0.4c-0.5,0.1-0.8,0.3-1.1,0.6
			c-0.4,0.4-0.7,1-0.8,1.7c-0.1,0.7-0.1,1.6,0.1,2.8c0.3-0.6,0.6-1.1,1.1-1.4c0.5-0.4,1-0.6,1.5-0.7c1-0.2,1.9,0,2.7,0.6
			c0.8,0.6,1.3,1.4,1.5,2.6c0.1,0.7,0.1,1.5-0.1,2.2c-0.2,0.7-0.6,1.3-1,1.7c-0.5,0.4-1.1,0.7-1.8,0.9c-1.2,0.2-2.3,0-3.2-0.8
			c-0.9-0.7-1.6-2.1-2-4.2c-0.4-2.3-0.3-4,0.3-5.2c0.6-1,1.5-1.7,2.7-1.9c0.9-0.2,1.7-0.1,2.4,0.4
			C221.1,321,221.6,321.7,221.9,322.6 M216.9,328.7c0.1,0.5,0.3,1,0.6,1.4c0.3,0.4,0.7,0.7,1.1,0.9c0.4,0.2,0.8,0.2,1.3,0.1
			c0.6-0.1,1.1-0.5,1.4-1c0.4-0.6,0.4-1.3,0.3-2.1c-0.1-0.8-0.5-1.4-1-1.8c-0.5-0.4-1.1-0.5-1.8-0.4c-0.7,0.1-1.2,0.5-1.5,1
			C216.9,327.3,216.8,328,216.9,328.7"/>
		<path class="st21" d="M232.4,328l0.3,1.4l-7.7,1.8c-0.1-0.3-0.1-0.7-0.1-1c0.1-0.6,0.3-1.2,0.6-1.8c0.3-0.6,0.8-1.3,1.5-2.2
			c1-1.3,1.7-2.4,2-3.1c0.3-0.7,0.4-1.3,0.3-1.9c-0.1-0.6-0.4-1-0.9-1.3c-0.5-0.3-1.1-0.4-1.7-0.2c-0.7,0.2-1.2,0.5-1.5,1
			c-0.3,0.5-0.4,1.1-0.2,1.9l-1.5,0.2c-0.1-1.1,0-2.1,0.6-2.8c0.5-0.7,1.4-1.2,2.5-1.5c1.1-0.3,2.1-0.1,2.9,0.3
			c0.8,0.5,1.3,1.2,1.5,2.1c0.1,0.5,0.1,1,0,1.5c-0.1,0.5-0.3,1-0.6,1.6c-0.3,0.6-0.9,1.5-1.7,2.6c-0.7,0.9-1.1,1.5-1.3,1.9
			c-0.2,0.3-0.3,0.6-0.4,0.9L232.4,328z"/>
		<path class="st21" d="M253,344.1l0.5,1.3l-7.4,2.9c-0.1-0.3-0.2-0.7-0.2-1c0-0.6,0.1-1.2,0.3-1.8c0.2-0.6,0.6-1.5,1.1-2.4
			c0.8-1.5,1.3-2.6,1.5-3.3c0.2-0.8,0.2-1.4,0-1.9c-0.2-0.5-0.6-0.9-1.1-1.2c-0.5-0.2-1.1-0.2-1.7,0c-0.7,0.3-1.1,0.7-1.4,1.2
			c-0.2,0.6-0.2,1.2,0,1.9l-1.5,0.4c-0.3-1.1-0.3-2,0.2-2.8c0.4-0.8,1.2-1.4,2.2-1.8c1.1-0.4,2-0.4,2.9-0.1c0.9,0.4,1.5,1,1.8,1.9
			c0.2,0.4,0.3,0.9,0.2,1.4c0,0.5-0.1,1.1-0.4,1.7c-0.2,0.6-0.7,1.6-1.4,2.8c-0.6,1-0.9,1.7-1,2c-0.1,0.3-0.2,0.7-0.3,1L253,344.1z"
			/>
		<path class="st21" d="M259.6,342.5l-1.3-2.6l-4.7,2.3L253,341l1.4-9.4l1.1-0.5l3.5,7l1.5-0.7l0.6,1.2l-1.5,0.7l1.3,2.6
			L259.6,342.5z M257.7,338.7l-2.4-4.9l-1,6.5L257.7,338.7z"/>
		
			<rect x="265" y="332.3" transform="matrix(0.8415 -0.5402 0.5402 0.8415 -137.5798 197.131)" class="st21" width="4.5" height="1.5"/>
		<path class="st21" d="M280.7,328.7l-1.2,0.9l-5.8-7.4c-0.1,0.5-0.2,1-0.5,1.7c-0.2,0.6-0.5,1.1-0.7,1.6l-0.9-1.1
			c0.4-0.8,0.7-1.6,0.8-2.4c0.1-0.8,0.2-1.5,0-2.1l0.7-0.6L280.7,328.7z"/>
		
			<rect x="283.4" y="317.9" transform="matrix(0.7302 -0.6833 0.6833 0.7302 -140.6046 281.1918)" class="st21" width="4.5" height="1.5"/>
		<path class="st21" d="M298.2,312l-1,1.1l-7-6.3c0,0.5,0,1.1-0.2,1.7c-0.1,0.7-0.3,1.2-0.5,1.7l-1.1-1c0.3-0.9,0.4-1.7,0.4-2.6
			c0-0.8-0.1-1.5-0.3-2l0.6-0.7L298.2,312z"/>
		<path class="st21" d="M298.8,307.2l0.8-1.2c0.6,0.3,1.1,0.5,1.6,0.4c0.4-0.1,0.8-0.3,1.2-0.7c0.3-0.4,0.5-0.7,0.5-1.1
			c0.1-0.4,0-0.8-0.1-1.2c-0.1-0.4-0.4-0.8-0.7-1.3c-0.4-0.5-0.8-0.9-1.3-1.3c-0.1,0-0.1-0.1-0.2-0.2c0.2,0.5,0.2,1.1,0.1,1.7
			c-0.1,0.6-0.3,1.1-0.7,1.6c-0.6,0.8-1.4,1.2-2.4,1.3c-1,0.1-2-0.3-2.9-1c-0.9-0.8-1.5-1.7-1.6-2.7c-0.1-1,0.2-2,0.8-2.8
			c0.5-0.6,1.1-1,1.8-1.3c0.7-0.2,1.5-0.2,2.3,0c0.8,0.2,1.8,0.8,2.9,1.7c1.2,1,2,1.9,2.5,2.7c0.5,0.8,0.7,1.7,0.7,2.5
			c0,0.8-0.3,1.6-0.9,2.2c-0.6,0.7-1.3,1.2-2.1,1.3C300.4,307.9,299.6,307.7,298.8,307.2 M298.4,299.2c-0.7-0.5-1.3-0.8-2-0.7
			c-0.7,0-1.2,0.3-1.6,0.8c-0.4,0.5-0.6,1.1-0.5,1.8c0.1,0.7,0.5,1.3,1.2,1.9c0.6,0.5,1.2,0.7,1.9,0.6c0.7-0.1,1.2-0.4,1.6-0.9
			c0.4-0.5,0.6-1.1,0.5-1.8C299.5,300.3,299.1,299.7,298.4,299.2"/>
		<path class="st21" d="M301.9,298.3c-1.2-0.8-2-1.6-2.5-2.4c-0.5-0.7-0.8-1.5-0.9-2.2c0-0.7,0.2-1.5,0.7-2.2
			c0.4-0.5,0.8-0.9,1.3-1.1c0.5-0.2,1-0.3,1.6-0.3c0.6,0,1.2,0.2,1.9,0.4c0.7,0.3,1.5,0.8,2.5,1.5c1.1,0.8,2,1.6,2.5,2.4
			c0.5,0.7,0.8,1.5,0.9,2.2c0,0.7-0.2,1.5-0.7,2.2c-0.7,0.9-1.6,1.4-2.6,1.5C305.3,300.3,303.7,299.6,301.9,298.3 M302.8,297.1
			c1.6,1.2,2.8,1.7,3.6,1.8c0.8,0,1.4-0.3,1.8-0.8c0.4-0.6,0.5-1.2,0.2-2c-0.3-0.8-1.2-1.7-2.8-2.9c-1.6-1.2-2.8-1.8-3.6-1.8
			c-0.8,0-1.4,0.3-1.8,0.8c-0.4,0.6-0.5,1.2-0.3,1.8C300.2,294.9,301.2,295.9,302.8,297.1"/>
		<path class="st21" d="M309.5,292.4l0.6-1.3c0.8,0.3,1.5,0.4,2,0.3c0.5-0.1,1-0.5,1.3-0.9c0.4-0.6,0.5-1.2,0.4-1.9
			c-0.1-0.7-0.5-1.2-1.1-1.6c-0.6-0.4-1.2-0.5-1.8-0.4c-0.6,0.1-1.1,0.5-1.5,1c-0.2,0.2-0.3,0.6-0.4,1l-1-0.8
			c0.1-0.1,0.1-0.1,0.1-0.2c0.3-0.5,0.5-1.1,0.5-1.7s-0.3-1.1-0.9-1.5c-0.5-0.3-0.9-0.4-1.4-0.3c-0.5,0.1-0.9,0.4-1.2,0.9
			c-0.3,0.5-0.4,1-0.3,1.5c0.1,0.5,0.4,1,1,1.5l-1,1.1c-0.7-0.7-1.1-1.5-1.3-2.3c-0.1-0.8,0.1-1.6,0.6-2.4c0.4-0.5,0.8-1,1.4-1.3
			c0.5-0.3,1.1-0.4,1.7-0.4c0.6,0,1.1,0.2,1.5,0.5c0.4,0.3,0.8,0.7,1,1.1c0.2,0.5,0.3,1,0.2,1.6c0.5-0.5,1.1-0.8,1.8-0.8
			c0.6,0,1.3,0.1,1.9,0.6c0.9,0.6,1.4,1.4,1.6,2.4c0.2,1,0,2-0.7,3c-0.6,0.9-1.3,1.4-2.2,1.7C311.3,293,310.4,292.9,309.5,292.4"/>
		<polygon class="st21" points="147.8,222.9 136.5,226.8 135.7,224.6 141.7,217.3 134.1,220 133.3,217.8 144.7,213.9 145.5,216.2 
			139.7,223.3 147.1,220.8 		"/>
		<polygon class="st21" points="144.1,211.5 132.3,213.7 130.6,204.9 132.6,204.6 133.8,210.9 136.5,210.4 135.3,204.5 137.3,204.1 
			138.4,210.1 141.7,209.5 140.4,202.9 142.4,202.5 		"/>
		<path class="st21" d="M137.4,193l0.6-2.4c1.3,0.3,2.3,0.9,3,1.7c0.7,0.8,1,1.9,1.1,3.1c0.1,1.6-0.4,2.9-1.5,4
			c-1,1.1-2.5,1.7-4.4,1.7c-2,0.1-3.6-0.4-4.7-1.3c-1.2-1-1.8-2.3-1.8-4c-0.1-1.5,0.3-2.7,1.1-3.6c0.5-0.6,1.2-1,2.2-1.3l0.7,2.4
			c-0.6,0.2-1.1,0.5-1.4,1c-0.3,0.5-0.5,1-0.5,1.7c0,0.9,0.4,1.6,1.1,2.1c0.7,0.5,1.7,0.8,3.1,0.7c1.5-0.1,2.6-0.4,3.2-1
			c0.6-0.6,0.9-1.3,0.9-2.2c0-0.6-0.3-1.2-0.7-1.6C139,193.5,138.3,193.2,137.4,193"/>
		<polygon class="st21" points="142.2,183.6 130.4,181.9 130.7,179.5 140.5,180.9 141.4,174.9 143.4,175.2 		"/>
		<path class="st21" d="M132.2,170.2l0.7-2.3l6.3,1.8c1,0.3,1.6,0.4,2,0.5c0.5,0,1-0.1,1.3-0.4c0.4-0.3,0.7-0.8,0.9-1.4
			c0.2-0.7,0.2-1.2,0-1.6c-0.2-0.4-0.4-0.7-0.8-0.9c-0.4-0.2-1-0.4-1.9-0.7l-6.4-1.9l0.7-2.3l6.1,1.8c1.4,0.4,2.3,0.7,2.9,1
			c0.5,0.3,1,0.7,1.2,1.1c0.3,0.5,0.5,1,0.5,1.6c0.1,0.6,0,1.4-0.3,2.3c-0.3,1.1-0.7,1.9-1.1,2.4c-0.4,0.5-0.9,0.8-1.4,1.1
			c-0.5,0.2-1,0.3-1.5,0.3c-0.7,0-1.7-0.2-3-0.6L132.2,170.2z"/>
		<path class="st21" d="M146.6,153.2l1.7-1.8c1,0.9,1.6,1.9,1.9,2.9c0.2,1,0,2.1-0.5,3.3c-0.7,1.4-1.7,2.4-3.2,2.8
			c-1.4,0.5-3,0.3-4.7-0.5c-1.8-0.9-3-2-3.5-3.4c-0.6-1.4-0.5-2.9,0.3-4.4c0.6-1.3,1.5-2.2,2.7-2.7c0.7-0.3,1.5-0.3,2.5-0.2
			l-0.5,2.4c-0.6-0.1-1.2-0.1-1.7,0.2c-0.5,0.3-0.9,0.7-1.2,1.2c-0.4,0.8-0.4,1.6-0.1,2.4c0.3,0.8,1.2,1.5,2.4,2.1
			c1.4,0.7,2.5,0.9,3.3,0.7c0.8-0.2,1.4-0.7,1.8-1.5c0.3-0.6,0.3-1.2,0.2-1.8C147.7,154.4,147.3,153.8,146.6,153.2"/>
		<polygon class="st21" points="152.6,151.4 142.8,144.4 148,137.1 149.7,138.3 145.9,143.6 148.1,145.1 151.6,140.2 153.2,141.4 
			149.7,146.3 152.4,148.2 156.3,142.8 157.9,144 		"/>
		<path class="st21" d="M154.7,138.5c-0.8-0.9-1.4-1.8-1.7-2.7c-0.2-0.6-0.3-1.3-0.3-2c0-0.7,0.2-1.3,0.4-1.8
			c0.3-0.7,0.9-1.4,1.6-2.1c1.3-1.2,2.7-1.7,4.3-1.6c1.5,0.1,2.9,0.9,4.3,2.3c1.3,1.4,1.9,2.9,1.9,4.4c0,1.5-0.7,2.9-2,4.1
			c-1.3,1.2-2.7,1.7-4.3,1.6C157.4,140.7,156,139.9,154.7,138.5 M156.5,136.8c0.9,1,1.8,1.6,2.8,1.7c0.9,0.1,1.8-0.2,2.5-0.8
			c0.7-0.7,1.1-1.4,1.1-2.4c0-0.9-0.5-1.9-1.4-3c-0.9-1-1.8-1.6-2.7-1.7c-0.9-0.1-1.7,0.2-2.5,0.9c-0.7,0.7-1.1,1.5-1.1,2.4
			C155.1,134.8,155.6,135.7,156.5,136.8"/>
		<path class="st21" d="M172.7,132l-4.3-11.2l3.6-1.4c1.4-0.5,2.3-0.8,2.8-0.9c0.7-0.1,1.4,0.1,2,0.5c0.6,0.4,1.1,1,1.5,1.9
			c0.3,0.7,0.4,1.3,0.3,1.9c-0.1,0.6-0.2,1.1-0.5,1.5c-0.3,0.4-0.6,0.7-1,1c-0.5,0.3-1.3,0.7-2.3,1.1l-1.5,0.6l1.6,4.2L172.7,132z
			 M171.4,121.8l1.2,3.2l1.2-0.5c0.9-0.3,1.5-0.6,1.7-0.9c0.3-0.2,0.4-0.5,0.5-0.8c0.1-0.3,0.1-0.6-0.1-1c-0.2-0.4-0.4-0.7-0.7-0.9
			c-0.3-0.2-0.7-0.2-1.1-0.1c-0.3,0.1-0.8,0.2-1.7,0.6L171.4,121.8z"/>
		<polygon class="st21" points="183,128.4 181.8,116.5 184.2,116.3 185.2,126.1 191.2,125.6 191.4,127.6 		"/>
		<path class="st21" d="M194.8,115.8l2.4,0.4l-1.2,6.4c-0.2,1-0.3,1.7-0.3,2c0,0.5,0.2,0.9,0.5,1.3c0.3,0.4,0.8,0.6,1.5,0.7
			c0.7,0.1,1.2,0.1,1.6-0.1c0.4-0.2,0.7-0.5,0.8-0.9c0.1-0.4,0.3-1.1,0.5-2l1.2-6.5l2.4,0.4l-1.2,6.2c-0.3,1.4-0.5,2.4-0.8,3
			c-0.2,0.6-0.6,1-1,1.3c-0.4,0.3-0.9,0.6-1.6,0.7c-0.6,0.1-1.4,0.1-2.3-0.1c-1.1-0.2-2-0.5-2.5-0.9c-0.5-0.4-0.9-0.8-1.2-1.3
			c-0.3-0.5-0.4-1-0.4-1.4c0-0.7,0.1-1.7,0.3-3L194.8,115.8z"/>
		<path class="st21" d="M204,130.1l5.6-10.7l4.5,2.4c1.1,0.6,1.9,1.1,2.3,1.6c0.4,0.5,0.7,1,0.7,1.7c0.1,0.6-0.1,1.3-0.4,1.9
			c-0.4,0.8-1,1.3-1.7,1.6s-1.6,0.2-2.6-0.1c0.3,0.5,0.6,1,0.7,1.5c0.1,0.5,0.2,1.3,0.3,2.4l0.2,2.8l-2.6-1.3l-0.3-3.1
			c-0.1-1.1-0.2-1.8-0.3-2.2c-0.1-0.3-0.2-0.6-0.4-0.8c-0.2-0.2-0.5-0.4-1-0.7l-0.4-0.2l-2.3,4.5L204,130.1z M209.4,125l1.6,0.8
			c1,0.5,1.7,0.8,2,0.9c0.3,0,0.6,0,0.8-0.1c0.3-0.1,0.5-0.4,0.6-0.7c0.2-0.4,0.2-0.7,0.2-1c-0.1-0.3-0.3-0.6-0.6-0.8
			c-0.2-0.1-0.7-0.4-1.6-0.9l-1.7-0.9L209.4,125z"/>
		
			<rect x="212.9" y="130.8" transform="matrix(0.6154 -0.7882 0.7882 0.6154 -19.8712 223.3315)" class="st21" width="12" height="2.4"/>
		<path class="st21" d="M226.8,130.6l3.3,3.5c0.6,0.7,1.1,1.2,1.4,1.6c0.3,0.4,0.4,0.8,0.5,1.3c0.1,0.4,0,0.9-0.1,1.4
			c-0.1,0.5-0.4,0.9-0.8,1.2c-0.4,0.4-0.9,0.6-1.4,0.7c-0.6,0.1-1.1,0-1.6-0.2c0.3,0.7,0.5,1.3,0.3,2c-0.1,0.6-0.4,1.2-0.9,1.7
			c-0.4,0.4-0.9,0.6-1.4,0.8c-0.6,0.2-1.1,0.2-1.6,0.1c-0.5-0.1-1-0.4-1.5-0.8c-0.3-0.3-1-1-2-2.1l-2.8-3L226.8,130.6z M223.4,137
			l-2.4,2.2l1.5,1.6c0.6,0.6,1,1,1.2,1.2c0.3,0.2,0.6,0.3,0.9,0.3c0.3,0,0.7-0.2,1-0.4c0.3-0.2,0.4-0.5,0.5-0.8
			c0.1-0.3,0-0.6-0.1-0.9c-0.1-0.3-0.6-0.9-1.3-1.7L223.4,137z M226.9,133.7l-2,1.9l1.1,1.2c0.6,0.7,1.1,1.1,1.2,1.3
			c0.3,0.3,0.6,0.4,1,0.4c0.3,0,0.6-0.1,0.9-0.4c0.3-0.3,0.4-0.5,0.5-0.8c0-0.3-0.1-0.6-0.3-1c-0.1-0.2-0.6-0.7-1.4-1.6L226.9,133.7
			z"/>
		<path class="st21" d="M236.1,141.4l1.3,2.1l-5.6,3.4c-0.9,0.5-1.4,0.9-1.7,1.1c-0.4,0.3-0.6,0.8-0.6,1.3c-0.1,0.5,0.1,1,0.5,1.6
			c0.4,0.6,0.7,1,1.2,1.1c0.4,0.2,0.8,0.2,1.2,0c0.4-0.2,1-0.5,1.8-1l5.7-3.5l1.3,2.1l-5.4,3.3c-1.2,0.8-2.1,1.2-2.7,1.4
			c-0.6,0.2-1.1,0.3-1.7,0.2c-0.5-0.1-1.1-0.3-1.6-0.7c-0.5-0.4-1-1-1.5-1.8c-0.6-1-0.9-1.8-1-2.4c-0.1-0.6,0-1.2,0.1-1.7
			c0.2-0.5,0.4-0.9,0.8-1.3c0.5-0.5,1.3-1.1,2.5-1.8L236.1,141.4z"/>
		<path class="st21" d="M235.3,156l1.1,2.1c-0.7,0.4-1.1,0.9-1.3,1.5c-0.2,0.5-0.1,1.2,0.1,1.8c0.3,0.7,0.7,1.2,1.1,1.5
			c0.5,0.2,0.9,0.3,1.3,0.1c0.3-0.1,0.5-0.3,0.6-0.5c0.1-0.2,0.2-0.6,0.2-1c0-0.3-0.1-1-0.2-2c-0.2-1.3-0.2-2.3,0.1-3
			c0.3-0.9,1-1.6,1.8-1.9c0.6-0.2,1.2-0.3,1.8-0.2c0.6,0.1,1.2,0.4,1.7,0.9c0.5,0.5,0.9,1.2,1.3,2c0.6,1.4,0.7,2.6,0.3,3.5
			c-0.3,1-1,1.6-2,2.1l-1-2.2c0.5-0.3,0.9-0.7,1-1.1c0.1-0.4,0.1-0.9-0.2-1.6c-0.3-0.7-0.6-1.1-1-1.4c-0.3-0.2-0.5-0.2-0.8-0.1
			c-0.3,0.1-0.4,0.3-0.5,0.6c-0.1,0.4-0.1,1.2,0.1,2.4c0.2,1.2,0.2,2.1,0.2,2.8c-0.1,0.6-0.3,1.2-0.6,1.7c-0.4,0.5-0.9,0.9-1.6,1.2
			c-0.6,0.3-1.3,0.3-2,0.2c-0.7-0.1-1.3-0.5-1.8-1c-0.5-0.5-1-1.3-1.4-2.3c-0.6-1.4-0.7-2.6-0.3-3.6
			C233.3,157.5,234.1,156.7,235.3,156"/>
		
			<rect x="237.1" y="171.9" transform="matrix(0.9776 -0.2104 0.2104 0.9776 -30.974 55.0131)" class="st21" width="12" height="2.4"/>
		<polygon class="st21" points="238.1,177.7 250,176.6 250.4,180.2 242.4,183.2 250.8,184.5 251.1,188.1 239.2,189.3 239,187.1 
			248.4,186.1 238.7,184.7 238.5,182.4 247.7,179.1 238.3,180 		"/>
		<path class="st21" d="M239.1,191.6l12,0.6l-0.2,3.9c-0.1,1.5-0.2,2.4-0.3,2.9c-0.2,0.7-0.6,1.2-1.3,1.7c-0.6,0.4-1.4,0.6-2.4,0.6
			c-0.7,0-1.3-0.2-1.8-0.5c-0.5-0.3-0.9-0.7-1.1-1.1c-0.3-0.4-0.4-0.9-0.5-1.3c-0.1-0.6-0.1-1.4,0-2.5l0.1-1.6L239,194L239.1,191.6z
			 M249,194.5l-3.4-0.2l-0.1,1.3c0,1,0,1.6,0.1,1.9c0.1,0.3,0.3,0.6,0.6,0.8c0.3,0.2,0.6,0.3,0.9,0.3c0.4,0,0.8-0.1,1.1-0.3
			c0.3-0.2,0.5-0.6,0.6-0.9c0.1-0.3,0.1-0.9,0.2-1.7L249,194.5z"/>
		<path class="st21" d="M236.7,212.2l0.5-2.6l2.9-0.6l0.8-4.7l-2.5-1.5l0.4-2.5l11,6.7l-0.4,2.5L236.7,212.2z M242.2,208.6l4.7-0.9
			l-4.1-2.4L242.2,208.6z"/>
		<path class="st21" d="M236.3,213.4l11.4,3.9l-1.7,4.8c-0.4,1.2-0.8,2.1-1.2,2.5c-0.4,0.5-0.9,0.8-1.5,0.9c-0.6,0.2-1.3,0.1-2-0.1
			c-0.9-0.3-1.5-0.8-1.9-1.5c-0.4-0.7-0.5-1.6-0.3-2.6c-0.5,0.4-0.9,0.7-1.4,0.9c-0.5,0.2-1.2,0.4-2.3,0.7l-2.7,0.6l0.9-2.8l3-0.8
			c1.1-0.3,1.8-0.5,2.1-0.6c0.3-0.1,0.5-0.3,0.7-0.5c0.2-0.2,0.3-0.6,0.5-1.1l0.2-0.5l-4.8-1.6L236.3,213.4z M242.1,217.9l-0.6,1.7
			c-0.4,1.1-0.6,1.8-0.6,2.1c0,0.3,0.1,0.6,0.3,0.8c0.2,0.2,0.4,0.4,0.8,0.5c0.4,0.1,0.7,0.1,1,0c0.3-0.1,0.6-0.4,0.7-0.7
			c0.1-0.2,0.3-0.7,0.6-1.7l0.6-1.8L242.1,217.9z"/>
	</g>
</g>
</svg>
