<?xml version="1.0" encoding="utf-8"?>
<!-- Generator: Adobe Illustrator 21.0.0, SVG Export Plug-In . SVG Version: 6.00 Build 0)  -->
<svg version="1.1" xmlns="http://www.w3.org/2000/svg" xmlns:xlink="http://www.w3.org/1999/xlink" x="0px" y="0px"
	 viewBox="0 0 500 438" style="enable-background:new 0 0 500 438;" xml:space="preserve">
<style type="text/css">
	.st0{display:none;}
	.st1{display:inline;}
	.st2{fill:#3C3C3B;}
	.st3{fill:#CA511C;}
	.st4{fill:#FDFDFD;}
	.st5{fill:url(#SVGID_1_);}
	.st6{fill:url(#SVGID_2_);}
	.st7{fill:#FFFFFF;}
	.st8{fill:url(#SVGID_3_);}
	.st9{fill:#D8D9DD;}
	.st10{fill:url(#SVGID_4_);}
	.st11{fill:url(#SVGID_5_);}
	.st12{fill:url(#SVGID_6_);}
	.st13{fill:url(#SVGID_7_);}
	.st14{fill:url(#SVGID_8_);}
	.st15{fill:url(#SVGID_9_);}
	.st16{fill:url(#SVGID_10_);}
	.st17{fill:#35393A;}
	.st18{fill:#7AB4F6;}
	.st19{fill:#E9A67D;}
	.st20{opacity:0.3;fill:#BC663A;}
	.st21{fill:#F8F9FD;}
	.st22{fill:#D2635A;}
	.st23{fill:#E5E5E6;}
	.st24{fill:#909294;}
	.st25{clip-path:url(#SVGID_12_);}
	.st26{fill:#EDD7BB;}
	.st27{fill:#61AAEA;}
	.st28{fill:#E1A299;}
	.st29{fill:#2E2F2F;}
	.st30{fill:#E2A283;}
	.st31{fill:#2C2C2E;}
	.st32{opacity:0.2;fill:#E2A283;}
	.st33{opacity:0.1;fill:#F2F2F2;}
	.st34{fill:none;stroke:#2C2C2E;stroke-width:0.397;stroke-miterlimit:10;}
	.st35{fill:#CED0D1;}
	.st36{fill:none;stroke:#59595B;stroke-miterlimit:10;}
	.st37{clip-path:url(#SVGID_14_);}
	.st38{fill:#EDBC90;}
	.st39{fill:#E8CBB2;}
	.st40{opacity:0.4;fill:#E9A67D;}
	.st41{fill:#4E4E4E;}
	.st42{opacity:0.1;fill:#35393A;}
	.st43{fill:#F1CC5E;}
	.st44{fill:none;}
	.st45{fill:#E5A279;}
	.st46{fill:#CC7849;}
	.st47{fill:#EAA97C;}
	.st48{fill:#979797;}
	.st49{fill:#1A1A1A;}
	.st50{opacity:0.2;fill:#F0F0F0;}
	.st51{fill:none;stroke:#73BD72;stroke-width:3;stroke-miterlimit:10;}
</style>
<g id="Camada_1" class="st0">
	<g class="st1">
		<g>
			<path class="st2" d="M14.1,423.8c-5.1,0-8.7-4-8.7-9.9c0-6.2,3.8-10.3,8.9-10.3c5.3,0,8.7,4.1,8.7,9.9
				C23,420.2,19,423.8,14.1,423.8L14.1,423.8z M14.2,421.7c3.9,0,6.2-3.7,6.2-8.1c0-3.9-2-7.9-6.1-7.9S8,409.6,8,413.8
				C8,417.9,10.3,421.7,14.2,421.7L14.2,421.7z"/>
			<path class="st2" d="M26.2,413.8c0-1.7,0-3.1-0.1-4.4h2.2l0.1,2.8h0.1c0.6-1.9,2.2-3.1,3.9-3.1c0.3,0,0.5,0,0.7,0.1v2.4
				c-0.3,0-0.5-0.1-0.9-0.1c-1.8,0-3,1.4-3.4,3.2c-0.1,0.4-0.1,0.8-0.1,1.2v7.5h-2.5V413.8z"/>
			<path class="st2" d="M47.1,421.4c0,3.2-0.7,5.2-2,6.4c-1.4,1.2-3.3,1.7-5.1,1.7c-1.7,0-3.5-0.4-4.6-1.2l0.6-2
				c0.9,0.6,2.3,1.1,4.1,1.1c2.6,0,4.5-1.4,4.5-4.9V421h-0.1c-0.7,1.3-2.3,2.3-4.4,2.3c-3.4,0-5.9-3-5.9-6.9c0-4.8,3.1-7.4,6.3-7.4
				c2.4,0,3.7,1.2,4.3,2.4h0.1l0.1-2.1h2.2c-0.1,1-0.1,2.1-0.1,3.8V421.4z M44.6,414.9c0-0.4,0-0.8-0.1-1.1
				c-0.5-1.5-1.7-2.7-3.5-2.7c-2.4,0-4.1,2.1-4.1,5.3c0,2.7,1.4,5,4.1,5c1.6,0,3-1,3.5-2.6c0.1-0.4,0.2-0.9,0.2-1.4V414.9z"/>
			<path class="st2" d="M61,420.1c0,1.2,0.1,2.4,0.2,3.4H59l-0.2-1.8h-0.1c-0.7,1.1-2.3,2.1-4.2,2.1c-2.8,0-4.2-2-4.2-4
				c0-3.4,3-5.2,8.3-5.2v-0.3c0-1.2-0.3-3.3-3.1-3.2c-1.3,0-2.7,0.4-3.6,1l-0.6-1.7c1.1-0.7,2.8-1.2,4.6-1.2c4.3,0,5.3,2.9,5.3,5.7
				V420.1z M58.6,416.3c-2.7-0.1-5.9,0.4-5.9,3.2c0,1.7,1.1,2.4,2.3,2.4c1.8,0,3-1.2,3.4-2.3c0.1-0.3,0.1-0.6,0.1-0.8V416.3z"/>
			<path class="st2" d="M65.1,413.2c0-1.5,0-2.6-0.1-3.8h2.2l0.1,2.3h0.1c0.7-1.3,2.3-2.6,4.6-2.6c1.9,0,4.9,1.2,4.9,6v8.4h-2.5
				v-8.1c0-2.3-0.8-4.2-3.2-4.2c-1.6,0-2.9,1.2-3.4,2.6c-0.1,0.3-0.2,0.8-0.2,1.2v8.5h-2.5V413.2z"/>
			<path class="st2" d="M82.1,407c-0.9,0-1.5-0.7-1.5-1.6c0-0.9,0.6-1.6,1.6-1.6c0.9,0,1.5,0.7,1.5,1.6
				C83.7,406.3,83.1,407,82.1,407L82.1,407z M80.9,423.5v-14h2.5v14H80.9z"/>
			<path class="st2" d="M86,422l6.3-8.3c0.6-0.8,1.2-1.5,1.8-2.2v-0.1h-7.5v-2h10.6v1.6l-6.2,8.2c-0.6,0.8-1.1,1.5-1.8,2.2v0.1h8.1
				v2H86V422z"/>
			<path class="st2" d="M109.6,420.1c0,1.2,0.1,2.4,0.2,3.4h-2.3l-0.2-1.8h-0.1c-0.7,1.1-2.3,2.1-4.2,2.1c-2.8,0-4.2-2-4.2-4
				c0-3.4,3-5.2,8.3-5.2v-0.3c0-1.2-0.3-3.3-3.1-3.2c-1.3,0-2.7,0.4-3.6,1l-0.6-1.7c1.1-0.7,2.8-1.2,4.6-1.2c4.3,0,5.3,2.9,5.3,5.7
				V420.1z M107.2,416.3c-2.7-0.1-5.9,0.4-5.9,3.2c0,1.7,1.1,2.4,2.3,2.4c1.8,0,3-1.2,3.4-2.3c0.1-0.3,0.1-0.6,0.1-0.8V416.3z"/>
			<path class="st2" d="M123.5,422.9c-0.6,0.3-1.9,0.8-3.6,0.8l-0.7,1.2c1.1,0.2,2,0.9,2,2.1c0,1.7-1.4,2.4-3,2.4
				c-0.7,0-1.5-0.2-2-0.5l0.4-1.3c0.4,0.3,1,0.4,1.6,0.4c0.7,0,1.2-0.2,1.2-0.9c0-0.8-0.9-1.1-2.2-1.2l1.2-2.2
				c-3.5-0.4-5.8-3.2-5.8-7.1c0-4.3,2.9-7.5,7.4-7.5c1.5,0,2.8,0.4,3.5,0.8l-0.6,1.9c-0.6-0.3-1.5-0.7-2.9-0.7
				c-3.2,0-4.9,2.4-4.9,5.3c0,3.2,2.1,5.2,4.8,5.2c1.4,0,2.4-0.4,3.1-0.7L123.5,422.9z"/>
			<path class="st2" d="M136.2,420.1c0,1.2,0.1,2.4,0.2,3.4h-2.3l-0.2-1.8h-0.1c-0.7,1.1-2.3,2.1-4.2,2.1c-2.8,0-4.2-2-4.2-4
				c0-3.4,3-5.2,8.3-5.2v-0.3c0-1.2-0.3-3.3-3.1-3.2c-1.3,0-2.7,0.4-3.6,1l-0.6-1.7c1.1-0.7,2.8-1.2,4.6-1.2c4.3,0,5.3,2.9,5.3,5.7
				V420.1z M127.6,407c-0.1-1.9,0.7-3,1.9-3c0.6,0,1.1,0.3,1.8,0.6c0.5,0.3,0.9,0.5,1.2,0.5c0.4,0,0.7-0.3,0.8-1.2h1.3
				c0,1.9-0.6,2.9-1.9,2.9c-0.6,0-1.2-0.3-1.8-0.6c-0.6-0.3-0.9-0.5-1.2-0.5c-0.5,0-0.7,0.5-0.7,1.3H127.6z M133.7,416.3
				c-2.7-0.1-5.9,0.4-5.9,3.2c0,1.7,1.1,2.4,2.3,2.4c1.8,0,3-1.2,3.4-2.3c0.1-0.3,0.1-0.6,0.1-0.8V416.3z"/>
			<path class="st2" d="M145.8,423.8c-3.7,0-6.6-2.8-6.6-7.2c0-4.7,3.1-7.5,6.9-7.5c4,0,6.7,2.9,6.7,7.2
				C152.7,421.5,149.2,423.8,145.8,423.8L145.8,423.8z M146,421.9c2.4,0,4.2-2.3,4.2-5.5c0-2.4-1.2-5.4-4.1-5.4
				c-2.9,0-4.2,2.8-4.2,5.5C141.8,419.5,143.5,421.9,146,421.9L146,421.9z"/>
			<path class="st2" d="M163.4,416.9c0.1,3.4,2.2,4.8,4.7,4.8c1.8,0,2.9-0.3,3.8-0.7l0.5,1.8c-0.9,0.4-2.4,0.9-4.6,0.9
				c-4.2,0-6.8-2.9-6.8-7.1c0-4.2,2.5-7.6,6.5-7.6c4.5,0,5.7,4,5.7,6.6c0,0.5,0,0.9-0.1,1.2H163.4z M170.8,415.1
				c0-1.6-0.7-4.1-3.5-4.1c-2.6,0-3.7,2.4-3.9,4.1H170.8z"/>
			<path class="st2" d="M176.3,413.2c0-1.5-0.1-2.6-0.1-3.8h2.2l0.1,2.3h0.1c0.8-1.3,2.1-2.6,4.4-2.6c1.9,0,3.3,1.2,3.9,2.8h0.1
				c0.4-0.8,1-1.4,1.6-1.8c0.8-0.6,1.7-1,3-1c1.9,0,4.6,1.2,4.6,6.1v8.3h-2.5v-7.9c0-2.7-1-4.3-3-4.3c-1.5,0-2.5,1.1-3,2.3
				c-0.1,0.4-0.2,0.8-0.2,1.3v8.7H185V415c0-2.2-1-3.8-2.9-3.8c-1.5,0-2.7,1.3-3.1,2.6c-0.1,0.4-0.2,0.8-0.2,1.2v8.5h-2.5V413.2z"/>
			<path class="st2" d="M219.7,422.8c-0.9,0.5-2.7,0.9-5.1,0.9c-5.4,0-9.5-3.5-9.5-9.9c0-6.1,4.1-10.2,10.1-10.2
				c2.4,0,3.9,0.5,4.6,0.8l-0.6,2.1c-0.9-0.5-2.3-0.8-3.9-0.8c-4.5,0-7.5,2.9-7.5,8c0,4.8,2.7,7.8,7.4,7.8c1.5,0,3.1-0.3,4.1-0.8
				L219.7,422.8z"/>
			<path class="st2" d="M223.9,416.9c0.1,3.4,2.2,4.8,4.7,4.8c1.8,0,2.9-0.3,3.8-0.7l0.5,1.8c-0.9,0.4-2.4,0.9-4.6,0.9
				c-4.2,0-6.8-2.9-6.8-7.1c0-4.2,2.5-7.6,6.5-7.6c4.5,0,5.7,4,5.7,6.6c0,0.5,0,0.9-0.1,1.2H223.9z M231.3,415.1
				c0-1.6-0.7-4.1-3.5-4.1c-2.6,0-3.7,2.4-3.9,4.1H231.3z"/>
			<path class="st2" d="M236.8,413.2c0-1.5,0-2.6-0.1-3.8h2.2l0.1,2.3h0.1c0.7-1.3,2.3-2.6,4.6-2.6c1.9,0,4.9,1.2,4.9,6v8.4h-2.5
				v-8.1c0-2.3-0.8-4.2-3.2-4.2c-1.6,0-2.9,1.2-3.4,2.6c-0.1,0.3-0.2,0.8-0.2,1.2v8.5h-2.5V413.2z"/>
			<path class="st2" d="M255.6,406.1v3.4h3.6v1.9h-3.6v7.5c0,1.7,0.5,2.7,1.9,2.7c0.7,0,1.1-0.1,1.5-0.2l0.1,1.9
				c-0.5,0.2-1.3,0.3-2.2,0.3c-1.2,0-2.1-0.4-2.7-1.1c-0.7-0.8-1-2-1-3.7v-7.6H251v-1.9h2.1v-2.6L255.6,406.1z"/>
			<path class="st2" d="M262,413.8c0-1.7,0-3.1-0.1-4.4h2.2l0.1,2.8h0.1c0.6-1.9,2.2-3.1,3.9-3.1c0.3,0,0.5,0,0.7,0.1v2.4
				c-0.3,0-0.5-0.1-0.9-0.1c-1.8,0-3,1.4-3.4,3.2c-0.1,0.4-0.1,0.8-0.1,1.2v7.5H262V413.8z"/>
			<path class="st2" d="M276.7,423.8c-3.7,0-6.6-2.8-6.6-7.2c0-4.7,3.1-7.5,6.9-7.5c4,0,6.7,2.9,6.7,7.2
				C283.6,421.5,280.1,423.8,276.7,423.8L276.7,423.8z M276.9,421.9c2.4,0,4.2-2.3,4.2-5.5c0-2.4-1.2-5.4-4.1-5.4
				c-2.9,0-4.2,2.8-4.2,5.5C272.7,419.5,274.4,421.9,276.9,421.9L276.9,421.9z"/>
			<path class="st2" d="M286.5,420.8c0.8,0.5,2.1,1,3.3,1c1.8,0,2.7-0.9,2.7-2.1c0-1.2-0.7-1.9-2.5-2.6c-2.5-0.9-3.7-2.3-3.7-4
				c0-2.3,1.8-4.1,4.8-4.1c1.4,0,2.6,0.4,3.4,0.9l-0.6,1.8c-0.5-0.3-1.5-0.8-2.8-0.8c-1.5,0-2.3,0.9-2.3,1.9c0,1.2,0.8,1.7,2.6,2.4
				c2.4,0.9,3.6,2.1,3.6,4.2c0,2.5-1.9,4.2-5.1,4.2c-1.5,0-2.9-0.4-3.9-1L286.5,420.8z"/>
			<path class="st2" d="M316.1,402.9v17c0,1.2,0,2.7,0.1,3.6H314l-0.1-2.4h-0.1c-0.8,1.6-2.4,2.8-4.7,2.8c-3.3,0-5.9-2.9-5.9-7.1
				c0-4.7,2.9-7.5,6.2-7.5c2.1,0,3.6,1,4.2,2.1h0.1v-8.4H316.1z M313.6,415.1c0-0.3,0-0.8-0.1-1.1c-0.4-1.6-1.7-2.9-3.6-2.9
				c-2.6,0-4.1,2.3-4.1,5.4c0,2.9,1.4,5.2,4.1,5.2c1.7,0,3.2-1.2,3.7-3.1c0.1-0.3,0.1-0.7,0.1-1.1V415.1z"/>
			<path class="st2" d="M321.8,416.9c0.1,3.4,2.2,4.8,4.7,4.8c1.8,0,2.9-0.3,3.8-0.7l0.5,1.8c-0.9,0.4-2.4,0.9-4.6,0.9
				c-4.2,0-6.8-2.9-6.8-7.1c0-4.2,2.5-7.6,6.5-7.6c4.5,0,5.7,4,5.7,6.6c0,0.5,0,0.9-0.1,1.2H321.8z M329.1,415.1
				c0-1.6-0.7-4.1-3.5-4.1c-2.6,0-3.7,2.4-3.9,4.1H329.1z"/>
			<path class="st2" d="M343.9,417.3l-2,6.1h-2.6l6.5-19.5h3l6.6,19.5h-2.7l-2.1-6.1H343.9z M350.2,415.3l-1.9-5.6
				c-0.4-1.3-0.7-2.4-1-3.6h-0.1c-0.3,1.1-0.6,2.3-0.9,3.5l-1.9,5.7H350.2z"/>
			<path class="st2" d="M361,406.1v3.4h3.6v1.9H361v7.5c0,1.7,0.5,2.7,1.9,2.7c0.7,0,1.1-0.1,1.5-0.2l0.1,1.9
				c-0.5,0.2-1.3,0.3-2.2,0.3c-1.2,0-2.1-0.4-2.7-1.1c-0.7-0.8-1-2-1-3.7v-7.6h-2.1v-1.9h2.1v-2.6L361,406.1z"/>
			<path class="st2" d="M368.7,416.9c0.1,3.4,2.2,4.8,4.7,4.8c1.8,0,2.9-0.3,3.8-0.7l0.5,1.8c-0.9,0.4-2.4,0.9-4.6,0.9
				c-4.2,0-6.8-2.9-6.8-7.1c0-4.2,2.5-7.6,6.5-7.6c4.5,0,5.7,4,5.7,6.6c0,0.5,0,0.9-0.1,1.2H368.7z M376,415.1
				c0-1.6-0.7-4.1-3.5-4.1c-2.6,0-3.7,2.4-3.9,4.1H376z"/>
			<path class="st2" d="M381.5,413.2c0-1.5,0-2.6-0.1-3.8h2.2l0.1,2.3h0.1c0.7-1.3,2.3-2.6,4.6-2.6c1.9,0,4.9,1.2,4.9,6v8.4h-2.5
				v-8.1c0-2.3-0.8-4.2-3.2-4.2c-1.6,0-2.9,1.2-3.4,2.6c-0.1,0.3-0.2,0.8-0.2,1.2v8.5h-2.5V413.2z"/>
			<path class="st2" d="M409.4,402.9v17c0,1.2,0,2.7,0.1,3.6h-2.3l-0.1-2.4h-0.1c-0.8,1.6-2.4,2.8-4.7,2.8c-3.3,0-5.9-2.9-5.9-7.1
				c0-4.7,2.9-7.5,6.2-7.5c2.1,0,3.6,1,4.2,2.1h0.1v-8.4H409.4z M406.9,415.1c0-0.3,0-0.8-0.1-1.1c-0.4-1.6-1.7-2.9-3.6-2.9
				c-2.6,0-4.1,2.3-4.1,5.4c0,2.9,1.4,5.2,4.1,5.2c1.7,0,3.2-1.2,3.7-3.1c0.1-0.3,0.1-0.7,0.1-1.1V415.1z"/>
			<path class="st2" d="M414.8,407c-0.9,0-1.5-0.7-1.5-1.6c0-0.9,0.6-1.6,1.6-1.6c0.9,0,1.5,0.7,1.5,1.6
				C416.4,406.3,415.8,407,414.8,407L414.8,407z M413.6,423.5v-14h2.5v14H413.6z"/>
			<path class="st2" d="M420.2,413.2c0-1.5-0.1-2.6-0.1-3.8h2.2l0.1,2.3h0.1c0.8-1.3,2.1-2.6,4.4-2.6c1.9,0,3.3,1.2,3.9,2.8h0.1
				c0.4-0.8,1-1.4,1.6-1.8c0.8-0.6,1.7-1,3-1c1.9,0,4.6,1.2,4.6,6.1v8.3h-2.5v-7.9c0-2.7-1-4.3-3-4.3c-1.5,0-2.5,1.1-3,2.3
				c-0.1,0.4-0.2,0.8-0.2,1.3v8.7h-2.5V415c0-2.2-1-3.8-2.9-3.8c-1.5,0-2.7,1.3-3.1,2.6c-0.1,0.4-0.2,0.8-0.2,1.2v8.5h-2.5V413.2z"
				/>
			<path class="st2" d="M445.5,416.9c0.1,3.4,2.2,4.8,4.7,4.8c1.8,0,2.9-0.3,3.8-0.7l0.5,1.8c-0.9,0.4-2.4,0.9-4.6,0.9
				c-4.2,0-6.8-2.9-6.8-7.1c0-4.2,2.5-7.6,6.5-7.6c4.5,0,5.7,4,5.7,6.6c0,0.5,0,0.9-0.1,1.2H445.5z M452.9,415.1
				c0-1.6-0.7-4.1-3.5-4.1c-2.6,0-3.7,2.4-3.9,4.1H452.9z"/>
			<path class="st2" d="M458.4,413.2c0-1.5,0-2.6-0.1-3.8h2.2l0.1,2.3h0.1c0.7-1.3,2.3-2.6,4.6-2.6c1.9,0,4.9,1.2,4.9,6v8.4h-2.5
				v-8.1c0-2.3-0.8-4.2-3.2-4.2c-1.6,0-2.9,1.2-3.4,2.6c-0.1,0.3-0.2,0.8-0.2,1.2v8.5h-2.5V413.2z"/>
			<path class="st2" d="M477.2,406.1v3.4h3.6v1.9h-3.6v7.5c0,1.7,0.5,2.7,1.9,2.7c0.7,0,1.1-0.1,1.5-0.2l0.1,1.9
				c-0.5,0.2-1.3,0.3-2.2,0.3c-1.2,0-2.1-0.4-2.7-1.1c-0.7-0.8-1-2-1-3.7v-7.6h-2.1v-1.9h2.1v-2.6L477.2,406.1z"/>
			<path class="st2" d="M489.1,423.8c-3.7,0-6.6-2.8-6.6-7.2c0-4.7,3.1-7.5,6.9-7.5c4,0,6.7,2.9,6.7,7.2
				C496,421.5,492.4,423.8,489.1,423.8L489.1,423.8z M489.2,421.9c2.4,0,4.2-2.3,4.2-5.5c0-2.4-1.2-5.4-4.1-5.4
				c-2.9,0-4.2,2.8-4.2,5.5C485,419.5,486.8,421.9,489.2,421.9L489.2,421.9z"/>
		</g>
		<g>
			<path class="st3" d="M495.8,144.8c-1.1,7.4-2.8,13-3.9,16.5c-3.8,12.4-8.4,22.6-16.1,34.2c-27.8,41.5-55.4,83.2-83.1,124.8
				c-0.7,1-0.9,2.6-2.8,2.7c7.1-27.1,14.2-54.1,21.5-81.5c-4.1,0.8-7.7,1.6-11.3,2.2c-64.4,11.7-126.7-34-134.9-98.9
				c-3.8-29.8,3.6-58.2,19.1-80.9c29.3-43,76.7-49.2,78.8-49.4c0.3,0,3.7-0.4,8.2-0.8c5.5-0.5,8.4-0.7,11.3-0.7
				c3.4,0.1,6,0.4,9.6,0.8c0,0,3.8,0.4,7.3,1.1c13.2,2.3,37.4,8.8,59.2,28.6c0,0,28.5,25.9,36.1,65.7
				C495.9,115.2,498.3,128.3,495.8,144.8z M414.9,75.1c-3.8-2.2-9.8-5.5-17.9-7.6c-6.5-1.7-13.3-2.2-20.4-1.8
				c-50.1,3.4-77.9,59.1-50.4,101.1c15.3,23.3,41.1,29,44.8,29.8c7.8,1.8,15.7,2.1,23.6,0.9c14.7-2.2,27.4-8.4,37.6-19.1
				c14.3-15,20.5-33,17.9-53.9c-0.5-3.6-1.4-10.8-5.4-19.2c-6.7-14.1-17.3-22-22.3-25.6C421.5,79.3,418.7,77.3,414.9,75.1z"/>
			<path class="st2" d="M8.3,296c1.6-7.5,4.6-21,15.7-33.4c4.1-4.6,9-8.6,14.8-12.1c19.8-11.7,59.6-11.8,78.6,14.3
				c7.6,10.5,11.6,22.2,13,34.9c1.7,14.9,1.3,29.7-3.4,44.2c-9.1,28.3-32.5,43.5-62.2,41.8c-5.8-0.3-19.4-1.4-32.4-10.9
				C13.1,360.7,9.5,338.2,7.7,327C5.3,312.1,7.3,300.4,8.3,296z M105.5,314c-0.2-11.3-1.1-21.8-5.4-31.6c-8-18-30.5-25.2-47.5-15.1
				c-9,5.4-14.2,13.8-16.9,23.6c-4.4,15.6-4,31.4-0.3,47.1c1.7,7.3,4.8,14,10.4,19.2c15.7,14.7,42,9.9,52.6-9.6
				C104.1,337,105.4,325.2,105.5,314z"/>
			<path class="st2" d="M364.6,367.8c-14.4,15.8-32.6,20.3-52.2,17.1c-30.2-5-42.9-42.5-23.2-66.7c10.7-13.2,25-19.9,41.6-22.3
				c9.9-1.4,19.8-1.7,29.4,1.7c1.7,0.6,2.1,0.1,2-1.6c-0.2-5.9-1.1-11.6-3.7-17c-4-8.3-11-12.6-19.9-13.5
				c-14.6-1.5-28.4,0.6-40,10.7c-1.4,1.2-1.7,0.5-2.3-0.6c-2.8-5.7-5.7-11.5-8.7-17.1c-1-1.8,0.1-2.4,1.2-3.1
				c7.3-5,15.4-8,23.9-10.1c13.6-3.4,27.2-2.8,40.6,0.7c18.6,4.7,28.4,17.5,31.8,35.8c1.2,6.6,1.5,13.4,1.6,20.1c0,16,0,32,0,48
				c0,4.2,0.5,8.4,1.9,12.4c1,3,2.2,6.2,4.8,7.8c6,3.6,3.8,9.1,4.2,14.1c0.1,1.1-0.5,1.6-1.6,1.5c-7.5-0.2-15-0.7-21.7-4.7
				C369.4,377.8,366.7,373.1,364.6,367.8z M362.2,332.3c0-4.9,0-9.7,0-14.6c0-1.4-0.4-2.2-1.8-2.6c-9.9-2.3-19.8-3.1-29.7-0.1
				c-11,3.4-20,9.5-24.5,20.5c-6.5,15.8,2.1,29.2,19,30.6c14.6,1.2,25.9-4.7,35.3-15.2c1.2-1.4,1.9-2.8,1.8-4.7
				C362.1,341.6,362.2,336.9,362.2,332.3z"/>
			<path class="st2" d="M248.6,273.9c-10.4-7-21.6-10.6-33.8-10c-18.8,0.8-32.2,11.1-37.9,29.1c-4.4,13.8-4.7,27.8-0.9,41.8
				c4.8,17.9,18.6,28.7,37.1,30.1c13.5,1,25.3-2.9,35.9-10.7c2.3-1.7,3.1-1.3,4.1,1.1c2.2,5.2,4.6,10.3,7.2,15.3
				c1.1,2.1,0.5,3-1.3,4c-16.5,9.4-34.4,12.1-53,10.8c-18.3-1.3-33.1-9.4-44.4-23.8c-7.6-9.7-11.6-21-13-33.1
				c-1.6-14.2-1.2-28.3,3.8-41.8c9.6-25.9,28.8-39.8,55.9-43.1c17.7-2.2,33.8,2.4,49.1,11c2.8,1.6,3.1,2.8,1.1,5.4
				C255,264.4,251.9,269.2,248.6,273.9z"/>
			<path class="st2" d="M379.1,240.5c-1.3,0-33-48.3-48.3-71.6c-27.5-42,0.3-97.7,50.4-101.1c7-0.5,13.8,0.1,20.4,1.8
				c8.3,2.1,14.5,5.7,17.9,7.6c1.5,0.8,2.7,1.6,3.5,2.1c0.9,0.7,1.9,1.5,2.9,2.2c0.3,0.2,1.8,1.5,2.3,1.9
				c21.2,18.7,28.5,47.5,18.4,73.5c-10,25.8-35.1,42.3-63.3,41.6c-5.1-0.1-10-1.2-15.3-2.1C371.8,210.3,379.6,239.4,379.1,240.5z"/>
			<path class="st4" d="M373.8,238.6c-1.3,0-33-48.3-48.3-71.6c-27.5-42,0.3-97.7,50.4-101.1c7-0.5,13.8,0.1,20.4,1.8
				c8.3,2.1,14.5,5.7,17.9,7.6c1.5,0.8,2.7,1.6,3.5,2.1c0.9,0.7,1.9,1.5,2.9,2.2c0.3,0.2,1.8,1.5,2.3,1.9
				c21.2,18.7,28.5,47.5,18.4,73.5c-10,25.8-35.1,42.3-63.3,41.6c-5.1-0.1-10-1.2-15.3-2.1C366.5,208.3,374.3,237.4,373.8,238.6z"/>
		</g>
	</g>
</g>
<g id="Camada_2" class="st0">
	<g class="st1">
		<g>
			<radialGradient id="SVGID_1_" cx="68.7848" cy="15.121" r="622.4515" gradientUnits="userSpaceOnUse">
				<stop  offset="3.763440e-02" style="stop-color:#199A8E"/>
				<stop  offset="0.5538" style="stop-color:#7AF4AB"/>
				<stop  offset="1" style="stop-color:#F1FF8D"/>
			</radialGradient>
			<path class="st5" d="M461.7,216.6c0-54.8-20.4-104.7-54.1-142.7C368.4,32.8,313.1,7.2,251.8,7.2c-119,0-215.4,96.4-215.4,215.4
				c0,54.8,20.4,104.7,54.1,142.7C129.7,406.4,185,432,246.3,432C365.3,432,461.7,335.6,461.7,216.6z"/>
		</g>
		<radialGradient id="SVGID_2_" cx="245.7774" cy="201.449" r="257.977" gradientUnits="userSpaceOnUse">
			<stop  offset="0" style="stop-color:#199A8E"/>
			<stop  offset="0.2969" style="stop-color:#1B9C8F;stop-opacity:0.7031"/>
			<stop  offset="0.4624" style="stop-color:#23A292;stop-opacity:0.5376"/>
			<stop  offset="0.5956" style="stop-color:#31AC96;stop-opacity:0.4044"/>
			<stop  offset="0.7116" style="stop-color:#45BB9D;stop-opacity:0.2884"/>
			<stop  offset="0.8165" style="stop-color:#5ECDA5;stop-opacity:0.1835"/>
			<stop  offset="0.9119" style="stop-color:#7DE4B0;stop-opacity:8.811665e-02"/>
			<stop  offset="1" style="stop-color:#A1FFBC;stop-opacity:0"/>
		</radialGradient>
		<path class="st6" d="M128,330.9l100.4,100.4c5.9,0.5,11.9,0.7,18,0.7c119,0,215.4-96.4,215.4-215.4c0-3.4-0.1-6.8-0.2-10.2
			l-73.1-73.1L128,330.9z"/>
		<g>
			<g>
				<g>
					<g>
						<ellipse class="st7" cx="247" cy="217.3" rx="164.5" ry="164.5"/>
					</g>
				</g>
			</g>
			<g>
				<radialGradient id="SVGID_3_" cx="111.401" cy="63.4603" r="475.3036" gradientUnits="userSpaceOnUse">
					<stop  offset="0" style="stop-color:#F7F7F8"/>
					<stop  offset="0.5055" style="stop-color:#FBFBFB"/>
					<stop  offset="0.7151" style="stop-color:#FFFFFF"/>
				</radialGradient>
				<path class="st8" d="M411.4,217.3c0-41.8-15.6-80-41.3-109C340.2,77,298,57.4,251.2,57.4c-90.8,0-164.5,73.6-164.5,164.5
					c0,41.8,15.6,80,41.3,109c29.9,31.4,72.2,50.9,119,50.9C337.8,381.8,411.4,308.2,411.4,217.3z"/>
			</g>
			<g>
				<g>
					<path class="st9" d="M394.8,145.2c9.1,20.4,14.2,43,14.2,66.8c0,90.8-73.6,164.5-164.5,164.5c-54.6,0-102.9-26.6-132.9-67.5
						c4.9,7.8,10.3,15.1,16.4,21.9c29.9,31.4,72.2,50.9,119,50.9c90.8,0,164.5-73.6,164.5-164.5C411.4,191.4,405.5,167,394.8,145.2z
						"/>
				</g>
			</g>
		</g>
	</g>
</g>
<g id="Camada_4" class="st0">
	<g class="st1">
		<linearGradient id="SVGID_4_" gradientUnits="userSpaceOnUse" x1="249" y1="353" x2="249" y2="156">
			<stop  offset="3.763440e-02" style="stop-color:#199A8E"/>
			<stop  offset="0.5538" style="stop-color:#7AF4AB"/>
		</linearGradient>
		<path class="st10" d="M249,353L249,353c-16,0-29-13-29-29V185c0-15.9,13-29,29-29h0c15.9,0,29,13,29,29v139
			C278,340,265,353,249,353z"/>
		<linearGradient id="SVGID_5_" gradientUnits="userSpaceOnUse" x1="249" y1="150" x2="249" y2="88">
			<stop  offset="3.763440e-02" style="stop-color:#199A8E"/>
			<stop  offset="0.5538" style="stop-color:#7AF4AB"/>
		</linearGradient>
		<circle class="st11" cx="249" cy="119" r="31"/>
	</g>
</g>
<g id="Camada_3" class="st0">
</g>
<g id="Camada_5" class="st0">
	<g class="st1">
		<g>
			<g>
				<radialGradient id="SVGID_6_" cx="69.7166" cy="15.6097" r="621.7197" gradientUnits="userSpaceOnUse">
					<stop  offset="3.763440e-02" style="stop-color:#FF9100"/>
					<stop  offset="0.5699" style="stop-color:#FFB655"/>
					<stop  offset="1" style="stop-color:#FFF04A"/>
				</radialGradient>
				<path class="st12" d="M462.2,216.9c0-54.7-20.4-104.6-54-142.6C369,33.3,313.7,7.7,252.5,7.7C133.7,7.7,37.4,104,37.4,222.9
					c0,54.7,20.4,104.6,54,142.6c39.2,41,94.4,66.6,155.6,66.6C365.9,432,462.2,335.7,462.2,216.9z"/>
			</g>
			<radialGradient id="SVGID_7_" cx="246.5013" cy="201.7188" r="257.6736" gradientUnits="userSpaceOnUse">
				<stop  offset="0" style="stop-color:#FF9100"/>
				<stop  offset="0.342" style="stop-color:#FF9202;stop-opacity:0.658"/>
				<stop  offset="0.5326" style="stop-color:#FF960A;stop-opacity:0.4674"/>
				<stop  offset="0.686" style="stop-color:#FF9C18;stop-opacity:0.314"/>
				<stop  offset="0.8196" style="stop-color:#FFA42C;stop-opacity:0.1804"/>
				<stop  offset="0.9391" style="stop-color:#FFAF45;stop-opacity:6.085581e-02"/>
				<stop  offset="1" style="stop-color:#FFB655;stop-opacity:0"/>
			</radialGradient>
			<path class="st13" d="M128.9,331l100.2,100.2c5.9,0.5,11.9,0.7,17.9,0.7c118.8,0,215.1-96.3,215.1-215.1c0-3.4-0.1-6.8-0.2-10.2
				l-73-73L128.9,331z"/>
			<g>
				<g>
					<g>
						<g>
							<circle class="st7" cx="247.7" cy="217.6" r="164.3"/>
						</g>
					</g>
				</g>
				<g>
					<radialGradient id="SVGID_8_" cx="112.2806" cy="63.8913" r="474.7508" gradientUnits="userSpaceOnUse">
						<stop  offset="0" style="stop-color:#F7F7F8"/>
						<stop  offset="0.5055" style="stop-color:#FBFBFB"/>
						<stop  offset="0.7151" style="stop-color:#FFFFFF"/>
					</radialGradient>
					<path class="st14" d="M412,217.6c0-41.8-15.6-79.9-41.3-108.9c-29.9-31.3-72.1-50.8-118.8-50.8c-90.7,0-164.3,73.6-164.3,164.3
						c0,41.8,15.6,79.9,41.3,108.9c29.9,31.3,72.1,50.8,118.8,50.8C338.4,381.9,412,308.3,412,217.6z"/>
				</g>
				<g>
					<g>
						<path class="st9" d="M395.4,145.5c9.1,20.4,14.1,43,14.1,66.8c0,90.7-73.6,164.3-164.3,164.3c-54.5,0-102.8-26.6-132.7-67.4
							c4.8,7.8,10.3,15.1,16.3,21.9c29.9,31.3,72.1,50.8,118.8,50.8c90.7,0,164.3-73.6,164.3-164.3C412,191.7,406,167.3,395.4,145.5
							z"/>
					</g>
				</g>
			</g>
		</g>
		<g>
			<linearGradient id="SVGID_9_" gradientUnits="userSpaceOnUse" x1="250" y1="354" x2="250" y2="157">
				<stop  offset="3.763440e-02" style="stop-color:#FF9100"/>
				<stop  offset="0.5699" style="stop-color:#FFB655"/>
			</linearGradient>
			<path class="st15" d="M250,354L250,354c-16,0-29-13-29-29V186c0-15.9,13-29,29-29h0c15.9,0,29,13,29,29v139
				C279,341,266,354,250,354z"/>
			<linearGradient id="SVGID_10_" gradientUnits="userSpaceOnUse" x1="250" y1="151" x2="250" y2="89">
				<stop  offset="3.763440e-02" style="stop-color:#FF9100"/>
				<stop  offset="0.5699" style="stop-color:#FFB655"/>
			</linearGradient>
			<circle class="st16" cx="250" cy="120" r="31"/>
		</g>
	</g>
</g>
<g id="Camada_6">
</g>
<g id="Camada_7">
	<g>
		<path class="st17" d="M442.3,333.8H57.7c-7.7,0-13.9-6.2-13.9-13.9V77.1c0-7.7,6.2-13.9,13.9-13.9h384.7c7.7,0,13.9,6.2,13.9,13.9
			v242.8C456.3,327.5,450,333.8,442.3,333.8z"/>
		<path class="st18" d="M432,320.5H68c-7.3,0-13.2-5.6-13.2-12.6V89c0-6.9,5.9-12.6,13.2-12.6h364c7.3,0,13.2,5.6,13.2,12.6v218.9
			C445.2,314.8,439.3,320.5,432,320.5z"/>
		<path class="st17" d="M223.2,333.8v82.4h53.6v-82.4H223.2z M250,395.5c-9.7,0-17.5-7.8-17.5-17.5c0-9.7,7.8-17.5,17.5-17.5
			c9.7,0,17.5,7.8,17.5,17.5C267.5,387.6,259.7,395.5,250,395.5z"/>
		<rect x="167.7" y="416.2" class="st17" width="164.7" height="16.2"/>
		<path class="st19" d="M172.2,148c6.7-2.7,15.2-4.5,20.6,0.4c2.8,2.5,4,6.4,5,10c1.8,7.3,2.7,14.9,3.6,22.4c1.3,11,2.4,22.2,1,33.2
			c-1.4,11-5.7,22-13.7,29.6c-1.9,1.8-4.1,3.5-6.7,4c-1.9,0.4-3.8,0.1-5.7-0.2c-6.5-0.9-12.9-1.8-19.4-2.7c-2.2-0.3-4.4-0.6-6.5-1.5
			c-3-1.2-5.4-3.5-7.5-6c-13.5-15.4-17.2-37.7-11.2-57C137,163.2,156.7,154.2,172.2,148z"/>
		<polyline class="st20" points="159.5,173.2 151.4,176.7 159.5,175.6 159.5,172.1 		"/>
		<g>
			<g>
				<rect x="159.5" y="5" class="st21" width="193.4" height="252.2"/>
				<rect x="159.5" y="5" class="st17" width="193.4" height="16.1"/>
			</g>
			<circle class="st22" cx="339.9" cy="11.9" r="2.9"/>
			<circle class="st23" cx="328.6" cy="11.9" r="2.9"/>
			<circle class="st23" cx="317.3" cy="11.9" r="2.9"/>
		</g>
		<g>
			<circle class="st24" cx="205.8" cy="71.5" r="32.2"/>
			<g>
				<defs>
					<circle id="SVGID_11_" cx="205.9" cy="71.9" r="31.7"/>
				</defs>
				<clipPath id="SVGID_12_">
					<use xlink:href="#SVGID_11_"  style="overflow:visible;"/>
				</clipPath>
				<g class="st25">
					<g>
						<path class="st26" d="M210.2,87.3l6.6,1.5c3.2,0.7,5.4,3.5,5.4,6.8v8.5c0,0.4-0.3,0.8-0.8,0.8H206h-15.5
							c-0.4,0-0.8-0.3-0.8-0.8v-8.5c0-3.3,2.3-6.1,5.4-6.8l6.2-1.4c0,0,0,0,0.1,0l3-0.4c0,0,0.1,0,0.1,0h3.7c0,0,0.1,0,0.1,0
							L210.2,87.3C210.2,87.3,210.2,87.3,210.2,87.3z"/>
						<g>
							<path class="st27" d="M215.2,88.4l-5-1.1l-1.3-0.2l0,3.1c0,0,0,0,0,0l0-0.2c0,0.1,0,0.2,0,0.2l0,0v0
								c-0.1,1.5-1.4,2.7-2.9,2.7c-1.6,0-2.9-1.3-2.9-2.9v0v-2.8l-1.7,0.2l-4.6,1c-1.2,0.3-2.2,0.7-3.2,1.4v15H206h12.5V89.9
								C217.6,89.2,216.4,88.7,215.2,88.4z"/>
						</g>
						<path class="st27" d="M193.6,98.9h-3.9c0,0-1-5.8,3.9-9V98.9z"/>
						<path class="st27" d="M218.6,98.9h3.9c0,0,1-5.8-3.9-9V98.9z"/>
						<g>
							<path class="st26" d="M208.9,87.1l0,3.2l0-0.2c0,1.6-1.3,2.9-2.9,2.9c-1.6,0-2.9-1.3-2.9-2.9v0v-4.7l0.7-0.7h0.5l2.9-0.6
								l0.8,0.2l1,0.3"/>
							<path class="st28" d="M207.1,84.1l-2.9,0.6h-0.5l-0.7,0.7v2.3c0.9,0.6,1.9,0.9,3,0.9c1.1,0,2.1-0.3,2.9-0.8l0-0.6v-2.5
								l-1-0.3L207.1,84.1z"/>
						</g>
					</g>
					<path class="st26" d="M206,86.4L206,86.4c-6.5,0-11.8-5.3-11.8-11.8V61.5c0-6.5,5.3-11.8,11.8-11.8l0,0
						c6.5,0,11.8,5.3,11.8,11.8v13.1C217.8,81.1,212.5,86.4,206,86.4z"/>
					<circle class="st29" cx="211.3" cy="67.3" r="1.2"/>
					<circle class="st29" cx="201" cy="67.3" r="1.2"/>
					<g>
						<g>
							<path class="st30" d="M206.2,79.1c-1.6,0-3.1-0.5-4.2-1.2c-0.1-0.1-0.2-0.3-0.1-0.4c0.1-0.1,0.3-0.1,0.4-0.1
								c1,0.7,2.5,1.1,3.9,1.1c1.5,0,2.9-0.5,4-1.1c0.1-0.1,0.3-0.1,0.4,0.1c0.1,0.1,0.1,0.3-0.1,0.4
								C209.3,78.6,207.8,79.1,206.2,79.1z"/>
						</g>
					</g>
					<g>
						<g>
							<path class="st30" d="M204.9,83.4c-0.1,0-0.2-0.1-0.2-0.1c-0.1-0.1,0-0.3,0.1-0.3c0.4-0.2,0.8-0.3,1.3-0.3
								c0.4,0,0.8,0.1,1.2,0.2c0.1,0.1,0.2,0.2,0.1,0.3c-0.1,0.1-0.2,0.2-0.3,0.1c-0.3-0.1-0.6-0.2-1-0.2c-0.4,0-0.7,0.1-1,0.2
								C205,83.4,204.9,83.4,204.9,83.4z"/>
						</g>
					</g>
					<path class="st28" d="M217.8,67L217.8,67c1.3,0,2.3,1,2.3,2.3v1.3c0,1.3-1,2.3-2.3,2.3h0"/>
					<path class="st28" d="M194.2,67L194.2,67c-1.3,0-2.3,1-2.3,2.3v1.3c0,1.3,1,2.3,2.3,2.3l0,0"/>
					<path class="st28" d="M205.9,67.8l-0.9,3.8c-0.2,0.8,0.4,1.6,1.3,1.6l0,0c0.9,0,1.5-0.8,1.3-1.6l-0.9-3.8
						C206.5,67.5,205.9,67.5,205.9,67.8z"/>
					<g>
						<g>
							<g>
								<path class="st31" d="M202.7,64.1c-0.1,0-0.2,0-0.3-0.1c-1.7-1.3-2.7-0.1-2.7-0.1c-0.2,0.2-0.5,0.3-0.7,0.1
									c-0.2-0.2-0.3-0.5-0.1-0.7c0.6-0.7,2.2-1.7,4.2-0.1c0.2,0.2,0.3,0.5,0.1,0.7C203,64,202.9,64.1,202.7,64.1z"/>
							</g>
						</g>
					</g>
					<g>
						<g>
							<g>
								<path class="st31" d="M209.5,64.1c-0.2,0-0.3-0.1-0.4-0.2c-0.2-0.2-0.1-0.6,0.1-0.7c2-1.6,3.6-0.6,4.2,0.1
									c0.2,0.2,0.1,0.6-0.1,0.7c-0.2,0.2-0.5,0.1-0.7-0.1c-0.1-0.1-1.1-1.2-2.7,0.1C209.7,64.1,209.6,64.1,209.5,64.1z"/>
							</g>
						</g>
					</g>
					<path class="st26" d="M211.5,83c0,0.1,0,0.2,0,0.3"/>
					<rect x="218.6" y="98.9" class="st28" width="1.5" height="5.9"/>
					<rect x="192.1" y="98.9" class="st28" width="1.5" height="5.9"/>
					<path class="st32" d="M206.1,86.4C206.1,86.4,206.1,86.4,206.1,86.4L206.1,86.4c6.5,0,11.8-5.3,11.8-11.8v-8.4l0-0.1
						c0,0-0.7,11.6-9.7,15.1c-1.3,0.5-2.8,0.5-4.1,0c-9.1-3.5-9.7-15.1-9.7-15.1l0,0.1v8.4C194.2,81.1,199.5,86.4,206.1,86.4
						L206.1,86.4C206,86.4,206,86.4,206.1,86.4"/>
					<path class="st31" d="M216.8,52.1c-1.7-3.9-5.6-7.3-14.6-5.8c-0.1,0.2-2.3,0.3-3.7,2.7c-2.6,0.3-6.1,3-4.3,16.6
						c0,0,2-15.3,7.1-9.7c0,0,0,0,0,0c1.7,1.9,6.1,5.3,16.4,5.6c0.1,2.2,0.1,4.1,0.1,4.1C221,55.4,218.3,52.8,216.8,52.1z"/>
					<path class="st33" d="M206.8,57.4c-1.4-0.6-2.7-1.7-3.7-3.2c-1.5-2.2-3.9-1.7-3.9-1.7l0.1,0.4c0.1,0,2.1-0.4,3.4,1.5
						c1.1,1.5,2.4,2.6,3.9,3.3c2.3,1,6.3,2.2,12.4,2.5c0-0.1,0-0.3,0.1-0.4C213,59.7,209.1,58.5,206.8,57.4z"/>
					<path class="st33" d="M219.2,56.2c-10.3-0.2-12.5-2.5-13-3.5l0-0.1c-2.9-4-6.9-2.4-7-2.4l0.2,0.4c0,0,3.7-1.5,6.4,2.2l0,0
						c1.1,2.3,5.8,3.6,13.5,3.8C219.2,56.5,219.2,56.4,219.2,56.2z"/>
				</g>
			</g>
			<g>
				<circle class="st34" cx="211.2" cy="67.5" r="3"/>
				<line class="st34" x1="214" y1="66.6" x2="217.7" y2="66.6"/>
			</g>
			<g>
				<circle class="st34" cx="200.7" cy="67.5" r="3"/>
				<line class="st34" x1="197.9" y1="66.6" x2="194.2" y2="66.6"/>
			</g>
			<line class="st34" x1="203.6" y1="67.2" x2="208.3" y2="67.2"/>
		</g>
		<rect x="252.8" y="50.5" class="st35" width="81.2" height="9.8"/>
		<rect x="252.8" y="71.6" class="st35" width="81.2" height="9.8"/>
		<rect x="252.8" y="92.6" class="st35" width="81.2" height="9.8"/>
		<rect x="211.2" y="124.3" class="st35" width="122.9" height="9.8"/>
		<rect x="211.2" y="156.1" class="st35" width="122.9" height="9.8"/>
		<rect x="211.2" y="187.8" class="st35" width="122.9" height="9.8"/>
		<rect x="211.2" y="219.5" class="st35" width="122.9" height="9.8"/>
		<g>
			<rect x="180.1" y="121.9" class="st36" width="13.6" height="12.2"/>
			<rect x="180.1" y="154.9" class="st36" width="13.6" height="12.2"/>
			<rect x="180.1" y="187.9" class="st36" width="13.6" height="12.2"/>
			<rect x="180.1" y="220.9" class="st36" width="13.6" height="12.2"/>
		</g>
		<g>
			<g>
				<g>
					<defs>
						<path id="SVGID_13_" d="M432,320.5H68c-7.3,0-13.2-5.6-13.2-12.6V89c0-6.9,5.9-12.6,13.2-12.6h364c7.3,0,13.2,5.6,13.2,12.6
							v218.9C445.2,314.8,439.3,320.5,432,320.5z"/>
					</defs>
					<clipPath id="SVGID_14_">
						<use xlink:href="#SVGID_13_"  style="overflow:visible;"/>
					</clipPath>
					<g class="st37">
						<g>
							<path class="st38" d="M160.2,232.7c-3-2.2-3.9-5.8-4.1-9.7c-2.2,9.9-8.6,9.5-10.1,10.3c-0.1,0.1-0.2,0.1-0.2,0.2
								c0.1-0.1,0.1-0.1,0.2-0.2c9.4-6.5,10.3-17.9,10.3-19.6c0.1-12-3.5-24.1-10.2-34.1c-4.4-6.6-10.9-13.9-5.3-21.9
								c1.4-2,3.6-3.4,5.7-4.8c4.6-3.4,8.4-8.2,10.2-13.6c0.9-2.6,2.9-17.1-2.6-16.1c-0.9,0.2-1.7,0.7-2.4,1.2
								c-5.8,4.2-11.9,8-18.2,11.5c-5.5,3-9.1,4-11.2,10.1c-6.8,20.2-14.3,39.4-10.2,61c2.6,13.6-5.3,28.1-12.5,39.9
								c-1.2,2-2.6,4-3.1,6.3c10.4,12.3,21.4,24.8,34.6,34.1c4.9-6.7,9.8-13.5,16.1-19c5.6-4.9,6-7.5,12.5-11.1v-11.9L160.2,232.7z"
								/>
							<g>
								<path class="st39" d="M139.5,141.7c0.1,0.2,0.2,0.3,0.4,0.4c0.2,0.1,0.5,0,0.7-0.1c2.2-1.1,4.3-2.4,6.4-3.7
									c0.9-0.6,1.8-1.3,2.5-2.1c1-1.2,1.5-2.7,1.7-4.3c0.4-2.3,0.3-4.6-0.2-6.9c-4.5,3.2-9.1,6.2-13.9,9
									C137.1,136.7,138.3,139.8,139.5,141.7z"/>
								<path class="st19" d="M135.5,143.6c-1.1-0.8-1.4-4.3-1.6-5.6c-0.1-0.7-0.1-1.5-0.1-2.2c-0.1,0-0.2,0.1-0.2,0.1
									c-0.4,0.2-0.7,0.4-1.1,0.6C132.4,139.2,133.4,142,135.5,143.6z"/>
								<path class="st19" d="M132.4,143.6c-1.1-0.8-1.4-4.3-1.6-5.6c0-0.2,0-0.4-0.1-0.6c-0.4,0.2-0.9,0.5-1.3,0.7
									C129.8,140.2,130.8,142.3,132.4,143.6z"/>
								<path class="st40" d="M123.2,213.9c-0.3-12.8-7.3-24.2-9.7-36.6c-0.1-0.6-0.2-1.2-0.3-1.8c-2.3,10.2-3.2,20.5-1.1,31.5
									c2.6,13.6-5.3,28.1-12.5,39.9c-1.2,2-2.6,4-3.1,6.3c1.7,2,3.4,4,5.1,6c1.9-2.3,3.7-4.8,5.4-7.2
									C115.1,240.5,123.5,228,123.2,213.9z"/>
								<path class="st19" d="M132.7,159c2.9-0.3,5.8-0.8,8.5-1.8c0.4-0.5,0.8-0.9,1.2-1.3c-0.6,0.2-1.2,0.4-1.6,0.6
									c-2.9,1.3-6,2.2-9.2,2.5C132,159.1,132.3,159.1,132.7,159z"/>
								<path class="st19" d="M133,284.9c0.9-1.3,1.9-2.6,2.9-3.9c-0.9-1-1.8-2-2.8-2.9c-7.5-7-15.6-14-21.7-22.4
									c5.6,7.6,11.1,15.1,16.7,22.7C129.7,280.6,131.3,282.8,133,284.9z"/>
								<path class="st21" d="M93.2,238.2c0,0,14.9,31.5,42.6,52.1c0.4,1.2-4.9,9.1-4.9,9.1s-35.3-21.9-47.4-53.7
									C84.7,242.4,93.2,238.2,93.2,238.2z"/>
								<g>
									<path class="st41" d="M81.1,238.2c0,0,5.5,33.7,63.1,63.8c-2.4-1.6-60.7,78.4-60.7,78.4l-89.6-71.1L81.1,238.2z"/>
									<path class="st42" d="M116.9,284.9h-4.7l-83,52.4l54.3,43.1c0,0,58.3-80.1,60.7-78.4C133.4,296.3,124.4,290.6,116.9,284.9
										L116.9,284.9z"/>
								</g>
							</g>
						</g>
						<circle class="st43" cx="121.3" cy="305.8" r="6.4"/>
					</g>
					<g class="st37">
						<g>
							<rect x="251.4" y="104.3" class="st44" width="145.8" height="207.2"/>
							<g>
								<g>
									<path class="st45" d="M351,152.2c1.6,2.1,2.7,4.6,3.8,7c2,4.7,3.9,9.5,5.7,14.3c1.9,5.1,3.6,10.4,4.3,15.8
										c0.4,3.5,0.3,7.1,0.3,10.6c-0.3,15.5-0.6,31.1-0.9,46.6c-2.3-2.8-3.7-6.2-4.9-9.5c-6.4-16.8-11.5-34.1-15.5-51.6
										c-1.3-5.7-2.4-11.5-4.4-17c-1.3-3.7-3-7.3-4.7-10.8c-2.6-5.5-5.1-11.1-7.9-16.5c3.8-1.4,8.1,1.7,11.7,3
										C343.1,145.8,347.8,148,351,152.2z"/>
									<path class="st46" d="M283.9,155.9c1,0.9,2.4,1.5,3,1.7c2.5,0.6,4.8-1.7,7.1-2.3c1.5-0.4,3-0.4,4.5-0.5
										c3.6-0.2,7.1-0.3,10.7-0.5c0.5,0,1,0,1.4,0.2c0.5,0.2,0.8,0.7,1.1,1.1c1.4,2,3,3.9,4.8,5.5c0.6,0.6,1.3,1.1,1.5,1.9
										c0.4,1.3-0.4,2.6-1,3.7c-1.5,3-2.1,6.6-1.6,9.9c0.1,0.5,0.2,1.1,0,1.6c-0.2,0.7-0.8,1.1-1.3,1.6c-3.7,3-5.8,7.8-5.7,12.5
										c5,0.3,10-0.6,14.6-2.6c2.6-1.1,5-2.6,6.8-4.7c2-2.4,3-5.6,3.3-8.7c0.3-3.1,0-6.3-0.4-9.5c-0.3-2.9-0.7-5.9-2-8.6
										c-1.3-2.6-3.4-4.7-5.8-6.3c-3.3-2.2-7-3.6-10.9-4.4c-6.8-1.5-14.2-2.3-20.7,0.5c-3.4,1.5-6.8,2.9-10.2,4.4
										c-0.3,0.1-0.6,0.3-0.8,0.6C282,153.9,282.8,155,283.9,155.9z"/>
									<path class="st45" d="M320.1,177.9c0-1.7-0.4-3.4,0.1-5c0.5-2,2.1-3.4,3.4-5c0.2-0.3,0.5-0.7,0.5-1.1c0-0.3-0.2-0.7-0.3-1
										c-3.4-6.2-3.3-12.5-11.1-14.8c-7.9-2.3-17.5-0.8-25.7-0.7c-2.7,0.1-5.8-0.4-6.4-3.7c0-0.2-0.1-0.4,0-0.6
										c0.1-0.2,0.3-0.4,0.5-0.5c1.3-0.8,3-1.1,4.5-1.5c4.2-1.1,7.9-2.8,12.2-3.7c6.6-1.3,13.3-2.5,19.9-3.8
										c0.9-0.2,1.9-0.4,2.9-0.1c1,0.2,1.8,0.9,2.5,1.5c3.6,3,7.3,6,10.9,9c2.6,2.1,5.3,4.4,6.5,7.5c1,2.7,0.8,5.6,0.6,8.4
										c-0.6,10.7-0.7,21.4-0.1,32.1c0.2,3.1,0.3,6.9-1.9,9.4c-4.1,4.7-15.8,0.7-20.3-1.8c-6-3.5-8-9.4-3.7-15.2
										c2-2.6,4.5-5.2,4.9-8.4C320.1,178.7,320.1,178.3,320.1,177.9z"/>
									<path class="st38" d="M366.1,224.3c-1.2-12.4-1.8-24.2-4.2-36.4c0-0.2,0.3,2.9,0.4,2.7c0.8-4-0.4-8.2-2.3-11.8
										c-1.9-3.6-4.4-6.9-6.4-10.5c-4.7-8.4-6.5-18.3-11.4-26.6c-1.2-2-2.6-4-4.7-5.1c-1.6-0.9-3.5-1.1-5.3-1.3
										c-6.1-0.8-12.3-1.5-18.4-2.3c-4-0.5-8-1-12.1-0.8c-6.3,0.3-12.1,2.1-18.2,0.5c-1.3-0.3-2.5,1-2.6,2.3
										c-0.1,1.3,0.7,2.5,1.5,3.5c3,3.7,7.3,6.2,12,6.9c3.4,0.5,6.9,0.1,10.3,0.7c3,0.5,5.9,1.7,8.7,3c5,2.2,10,4.6,14.9,7
										c1.6,0.8,3.4,1.8,3.6,3.6c0.2,1.6-0.9,3-1.8,4.3c-4.4,6.2-5.8,14.3-3.8,21.6c1.1,3.9-3.6,5.2-6.9,5.8
										c-3.6,0.6-5.7-1.7-7.6-4.7c-3.4-5.4-4.7-11.8-6.6-17.9c-0.1-0.4-0.3-0.8-0.4-1.2c-1.1-3.1-2.6-6.2-4.3-9
										c-0.9-1.6-2-3.1-3.1-4.5c-2.4-2.9-6.3-4-9.8-2.7c-2.1,0.8-3.8,2.6-4.8,4.6c-2.2,4.5-0.9,8.8-0.1,13.4
										c0.5,2.7,0.9,5.5,1.4,8.2c0.9,5.7,2.2,11.4,4.7,16.6c4,8.3,6.2,16.5,8.6,25.2c2.6,9.1,8.4,18,13.5,25.9
										c10.6,16.5,23.3,31.8,31.5,49.7c4.4,9.7,7.4,19.9,9.8,30.3c1,4.3,2.5,26.1,6.7,27.3c1.9,0.6,6.6-3.4,8.4-4.1
										c5-1.9,10.7-2.7,15.9-3.9c3.3-0.7,29.6-7.9,31.1-5.8C391.9,305.6,369.9,264.6,366.1,224.3z"/>
									<path class="st39" d="M282.7,161.9c0,0-0.8-12.2,12.3-6.1c0.5,0.2,3.3,9.2,3.1,11.3c-0.3-0.7-5.4,4.4-12.3,5
										C285.6,172.4,282.7,161.9,282.7,161.9z"/>
									<path class="st39" d="M285.7,135.6c2.9,0.9,6,1.1,8.9,0.7c-0.2-1.1-0.5-2.1-0.7-3.2c-3.1,0.4-6.2,0.6-9.4-0.1
										c0.1,1,0.3,2,0.7,2.3C285.3,135.5,285.5,135.5,285.7,135.6z"/>
									<path class="st47" d="M297.5,137.5c-0.2-1.6-0.2-3.2-0.1-4.8c-0.2,0-0.5,0.1-0.7,0.1C296.8,134.3,297.1,135.9,297.5,137.5z
										"/>
									<path class="st47" d="M299.9,135.8c-0.1-1.1,0-2.3,0.2-3.4c-0.2,0-0.4,0-0.6,0.1c0,0.1,0,0.3,0,0.4
										C299.5,133.8,299.7,134.8,299.9,135.8z"/>
									<path class="st47" d="M302.9,145.9c0.6-0.4,1.3-0.9,1.8-1.3c1-0.7,2.1-1.5,2.9-2.4c-1.3,1.6-4.4,2.8-6.4,3.6
										C301.9,145.9,302.4,145.9,302.9,145.9z"/>
									<path class="st47" d="M320.5,152.4c1.5-0.5,3-1.1,4.4-1.7c-1.8,0.7-3.6,1.1-5.5,1.2C319.8,152.1,320.1,152.2,320.5,152.4z"
										/>
									<path class="st47" d="M334.7,142.8c-0.4-2.4-0.2-4.7,0.2-7c-0.4-0.1-0.8-0.2-1.2-0.2C333.2,138.2,334.3,140.3,334.7,142.8z
										"/>
									<path class="st45" d="M313.4,189c0.9,4.9,1.3,9.9,0.9,14.8c0.5-4.5,0.7-9,0.4-13.5C314.3,189.9,313.8,189.4,313.4,189z"/>
									<path class="st47" d="M342.5,161.2c-3.9-0.6-7.8-1.7-11.4-3.2c0.4,0.5,0.7,1,0.8,1.7c0.1,0.4,0,0.7,0,1.1
										C335.4,161.7,339,161.9,342.5,161.2z"/>
									<path class="st47" d="M300.9,169.3c-4,2.8-8.8,4.9-13.6,5.6c2-1,3.3-2.1,5.6-2.7C295.5,171.5,298.7,170.8,300.9,169.3z"/>
									<path class="st47" d="M288.5,177c2.2,0.5,4.6,0.5,6.8-0.1c2.1-0.6,4.3-1.9,5.6-3.6c-1.7,1-3.6,1.4-5.3,2.2
										C293.4,176.5,290.9,176.7,288.5,177z"/>
								</g>
								<path class="st21" d="M322.2,270.3v8.2c0,0,49.4-11.6,56.7-22.8c-0.8,0.5-4.9-6.4-4.9-6.4S369,261,322.2,270.3z"/>
								<path class="st41" d="M388.1,247.3c0,0-22.7,24.3-76.8,33.4c-0.2,0.6,25.5,92.2,25.5,92.2s99.2-35.8,98.6-36.7
									C434.8,335.2,388.1,247.3,388.1,247.3z"/>
								<path class="st42" d="M387.8,354.3c-9.8-26.6-32.1-86.4-32.7-85.5c-5.8,3.2-18.8,6.5-29.2,8.8c-4.6,1.1-9.5,2.1-14.6,3
									c-0.2,0.6,25.5,92.2,25.5,92.2S362.6,363.5,387.8,354.3z"/>
								<g>
									<path class="st17" d="M262.5,131.1c0,0,57,23.9,110.5,63.9c0.3,0.9,2.1,5.5-5.9,7.7C366.7,202.9,279.5,148.9,262.5,131.1z"
										/>
									<path class="st48" d="M262.5,131.1c0,0,4.9,4.7,9.4,8.2c0.1,0,3.4,0.3,2.8-2.7C274.4,136.5,262.5,131.1,262.5,131.1z"/>
									<path class="st49" d="M262.5,131.1l4.1,3.7c0,0,1.6,0,1.4-1.3C267.9,133.6,262.5,131.1,262.5,131.1z"/>
									<path class="st49" d="M344.5,175.3c-0.8,2.8-2.6,6-6.7,9.3c0.3,0.2,0.6,0.4,0.9,0.6c3.9-3.2,5.9-6.4,6.7-9.2
										C345.1,175.7,344.8,175.5,344.5,175.3z"/>
									<path class="st50" d="M279,140c0,0,46,23.3,61.9,35.9c0,0.5-1.6,2.1-1.6,2.1L279,140z"/>
									<path class="st50" d="M345.4,181.7l24.4,17.3c0,0,2.4-0.8,1.7-3.2c0.1-0.1-25.5-16.3-25.5-16.3L345.4,181.7z"/>
								</g>
							</g>
						</g>
						<circle class="st43" cx="332.9" cy="293.7" r="6.4"/>
					</g>
				</g>
				<path class="st17" d="M388.1,247.3c0,0-8.6,0.5-12.9,4.1c-0.2-0.4,3.6,4.3,3.6,4.3L388.1,247.3z"/>
				<path class="st17" d="M311.3,280.6c0,0,2.2-5.9,10.9-7.3c0-0.4,0,5.2,0,5.2L311.3,280.6z"/>
			</g>
			<path class="st17" d="M81.1,238.2c0,0,4.1-0.4,6.1,3.6c0,0-3,2.1-3.7,3.9C83.5,245.7,81.2,240.2,81.1,238.2z"/>
			<path class="st17" d="M135.5,291.9c0,0,9,5.7,8.7,10.1c0,0-9-4.9-11.1-6.2C133.5,295.5,135.5,291.9,135.5,291.9z"/>
		</g>
		<polyline class="st51" points="177.9,116.4 186.9,128 208.3,112.2 		"/>
		<polyline class="st51" points="177.9,149.6 186.9,161.1 208.3,145.4 		"/>
		<polyline class="st51" points="177.9,182.7 186.9,194.2 208.3,178.5 		"/>
		<polyline class="st51" points="177.9,215.9 186.9,227.4 208.3,211.7 		"/>
	</g>
</g>
</svg>
